<svg width="24" height="25" viewBox="0 0 24 25" fill="none" xmlns="http://www.w3.org/2000/svg">
<path d="M12 16.4053C14.2091 16.4053 16 14.6144 16 12.4053C16 10.1961 14.2091 8.40527 12 8.40527C9.79086 8.40527 8 10.1961 8 12.4053C8 14.6144 9.79086 16.4053 12 16.4053Z" stroke="#F3EDC8" stroke-width="1.5" stroke-linecap="round" stroke-linejoin="round"/>
<path d="M3 16.4053V8.40527C3 5.64385 5.23858 3.40527 8 3.40527H16C18.7614 3.40527 21 5.64385 21 8.40527V16.4053C21 19.1667 18.7614 21.4053 16 21.4053H8C5.23858 21.4053 3 19.1667 3 16.4053Z" stroke="#F3EDC8" stroke-width="1.5"/>
<path d="M17.5 6.91527L17.51 6.90416" stroke="#F3EDC8" stroke-width="1.5" stroke-linecap="round" stroke-linejoin="round"/>
</svg>
