<svg width="50" height="50" viewBox="0 0 50 50" fill="none" xmlns="http://www.w3.org/2000/svg">
<path d="M24.6907 45.7317C19.2348 45.7317 14.1059 43.611 10.2476 39.7527C6.38925 35.8943 4.26855 30.7654 4.26855 25.3096C4.26855 19.8537 6.38925 14.7154 10.2476 10.8571C14.1059 6.99874 19.2348 4.87805 24.6907 4.87805C30.1466 4.87805 35.2848 6.99874 39.1432 10.8571C43.0015 14.7154 45.1222 19.8443 45.1222 25.3002C45.1222 30.7561 43.0015 35.885 39.1432 39.7433C35.2848 43.6017 30.1559 45.7317 24.6907 45.7317ZM24.6907 6.18597C14.1527 6.18597 5.57647 14.7622 5.57647 25.3096C5.57647 35.8476 14.1527 44.4238 24.6907 44.4238C35.2288 44.4238 43.8143 35.8476 43.8143 25.3096C43.8143 14.7622 35.2381 6.18597 24.6907 6.18597Z" fill="#3A4A09"/>
<path d="M18.6088 39.7246C18.7489 32.7833 24.2235 26.9631 30.6883 25.3095C30.6977 25.3095 30.6977 25.3002 30.6883 25.3002C24.2422 23.6466 18.7863 17.8637 18.6088 10.9598C18.5994 10.773 18.7583 10.6141 18.9451 10.6141H19.7953C20.0288 10.6141 20.2157 10.801 20.225 11.0345C20.4492 18.6765 26.7272 24.833 34.4159 24.8424C34.6588 24.8424 34.883 25.0199 34.911 25.2628C34.939 25.543 34.7148 25.7766 34.4439 25.7766C26.6805 25.7766 20.3464 32.0266 20.2157 39.762C20.2157 39.8927 20.1036 40.0049 19.9728 40.0049H18.8797C18.7302 40.0049 18.6088 39.8741 18.6088 39.7246Z" fill="#3A4A09"/>
</svg>
