<svg width="90" height="161" viewBox="0 0 90 161" fill="none" xmlns="http://www.w3.org/2000/svg">
<path d="M0.00214919 159.465C0.769824 121.441 30.7603 89.5582 66.1757 80.5C66.2269 80.5 66.2269 80.4488 66.1757 80.4488C30.8627 71.4418 0.974539 39.7638 0.00215107 1.89352C-0.0490272 0.869995 0.821004 9.79037e-09 1.84457 2.19963e-08L6.5018 7.75331e-08C7.78126 9.27905e-08 8.80482 1.02353 8.856 2.30293C10.0843 44.165 44.4761 77.89 86.5959 77.9412C87.9265 77.9412 89.1548 78.9135 89.3083 80.2441C89.4619 81.7794 88.2336 83.0588 86.7494 83.0588C44.2202 83.0588 9.52132 117.296 8.80482 159.669C8.80482 160.386 8.19068 161 7.47418 161L1.48632 161C0.667467 161 0.00214918 160.335 0.00214919 159.465Z" fill="#F3EDC8"/>
</svg>
