<svg width="248" height="139" viewBox="0 0 248 139" fill="none" xmlns="http://www.w3.org/2000/svg">
<path d="M2.36491 0.50332C60.9358 1.68921 110.047 48.0178 124 102.727C124 102.806 124.079 102.806 124.079 102.727C137.953 48.1759 186.749 2.00544 245.083 0.50332C246.66 0.424261 248 1.76826 248 3.34945V10.5438C248 12.5203 246.423 14.1015 244.453 14.1805C179.969 16.078 128.02 69.2056 127.942 134.271C127.942 136.327 126.444 138.224 124.394 138.461C122.029 138.699 120.058 136.801 120.058 134.508C120.058 68.8103 67.321 15.2083 2.04959 14.1015C0.945963 14.1015 0 13.1528 0 12.0459L0 2.79603C0 1.53109 1.02479 0.50332 2.36491 0.50332Z" fill="#415602"/>
</svg>
