<svg width="133" height="84" viewBox="0 0 133 84" fill="none" xmlns="http://www.w3.org/2000/svg">
<path d="M87.2133 5.96213C86.9611 4.51676 87.8799 2.94493 89.5733 2.83653C89.6094 2.83653 89.7535 2.83653 89.8796 2.83653C89.9517 2.83653 90.0057 2.76426 89.9697 2.71006L89.2671 0.216805C89.231 0.0903352 89.1049 0 88.9608 0H76.0977H73.1972H68.4771C68.315 0 68.1889 0.108402 68.1528 0.271006L67.7025 2.54745C67.6664 2.71006 67.7925 2.83653 67.9547 2.83653H69.2158C69.5941 2.83653 69.9544 2.90879 70.2967 3.05333C71.5218 3.55921 72.1883 4.9323 71.9181 6.23313L68.4771 22.7464V22.7283C68.0628 24.8241 66.7837 25.5829 64.9821 25.5649H63.2346C63.1265 25.5649 63.0364 25.6733 63.0725 25.7817L63.7571 28.0581C63.8111 28.2569 64.0093 28.4014 64.2255 28.4014H67.2881H70.1886H73.9899C74.2421 28.4014 74.4583 28.2207 74.5123 27.9859L74.9988 25.7455C75.0168 25.6371 74.9447 25.5468 74.8366 25.5468H74.17C74.116 25.5468 74.0619 25.5468 74.0079 25.5468C72.3325 25.4384 71.1614 23.8124 71.5037 22.1502L73.2873 13.6226C73.3053 13.5322 73.3774 13.478 73.4674 13.4599C78.8361 12.7553 81.9167 16.5855 84.529 21.0481C84.6731 21.301 84.7992 21.5721 84.8893 21.8611C85.3937 23.451 84.4749 25.1855 82.8355 25.4926C82.6554 25.5287 82.4752 25.5468 82.2951 25.5468H81.8627C81.7726 25.5468 81.7005 25.6371 81.7366 25.7275L82.4392 28.1304C82.4932 28.293 82.6193 28.4014 82.7815 28.4014H86.7809H93.5007H96.6174C96.8336 28.4014 97.0138 28.2569 97.0678 28.0581L97.6623 25.7455C97.6803 25.6552 97.6263 25.5829 97.5362 25.5829H95.5365C93.9691 25.5829 92.7981 24.9506 92.1316 23.4872C92.0235 23.2523 91.9514 23.0174 91.8793 22.7825L88.6726 11.7074L87.2133 5.96213ZM81.8086 11.3642V11.3461L82.7094 14.4898C82.7455 14.5982 82.6013 14.6885 82.5112 14.6162C80.0972 12.7553 77.4309 11.4003 73.7917 11.9062C73.7016 11.9243 73.6296 11.852 73.6476 11.7616L75.305 3.84828C75.305 3.83021 75.305 3.83021 75.323 3.81215C75.5753 3.25207 76.458 2.83653 77.4849 2.83653C78.6559 2.83653 79.4126 3.3424 79.6828 4.02895L79.953 4.95037L81.8086 11.3642Z" fill="#3A4A09"/>
<path d="M56.4247 41.8614C56.1725 40.416 57.0913 38.8442 58.7848 38.7358C58.8208 38.7358 58.9649 38.7358 59.091 38.7358C59.1631 38.7358 59.2172 38.6635 59.1811 38.6093L58.4785 36.116C58.4425 35.9896 58.3164 35.8992 58.1723 35.8992H45.3091H42.4086H37.6886C37.5264 35.8992 37.4003 36.0076 37.3643 36.1702L36.9139 38.4467C36.8779 38.6093 37.004 38.7358 37.1661 38.7358H38.4272C38.8055 38.7358 39.1658 38.808 39.5081 38.9526C40.7332 39.4584 41.3998 40.8315 41.1295 42.1324L37.6886 58.6456V58.6276C37.2742 60.7234 35.9951 61.4822 34.1935 61.4641H32.428C32.3199 61.4641 32.2299 61.5725 32.2659 61.6809L32.9505 63.9574C33.0045 64.1561 33.2027 64.3006 33.4189 64.3006H36.4815H39.382H43.1833C43.4355 64.3006 43.6517 64.12 43.7058 63.8851L44.1922 61.6448C44.2102 61.5364 44.1381 61.446 44.03 61.446H43.3635C43.3094 61.446 43.2554 61.446 43.2013 61.446C41.5259 61.3376 40.3549 59.7116 40.6972 58.0494L42.4807 49.5218C42.4987 49.4314 42.5708 49.3772 42.6609 49.3592C48.0295 48.6546 51.1102 52.4848 53.7224 56.9473C53.8665 57.2003 53.9926 57.4713 54.0827 57.7604C54.5872 59.3503 53.6684 61.0847 52.0289 61.3918C51.8488 61.428 51.6686 61.446 51.4885 61.446H51.0561C50.966 61.446 50.894 61.5364 50.93 61.6267L51.6326 64.0296C51.6867 64.1922 51.8128 64.3006 51.9749 64.3006H55.9744H62.6942H65.8108C66.027 64.3006 66.2072 64.1561 66.2612 63.9574L66.8558 61.6448C66.8738 61.5544 66.8197 61.4822 66.7296 61.4822H64.7299C63.1626 61.4822 61.9916 60.8498 61.325 59.3864C61.2169 59.1515 61.1448 58.9166 61.0728 58.6818L57.866 47.6067L56.4247 41.8614ZM51.0021 47.2634V47.2453L51.9028 50.389C51.9389 50.4974 51.7947 50.5877 51.7047 50.5155C49.2906 48.6546 46.6243 47.2995 42.9851 47.8054C42.8951 47.8235 42.823 47.7512 42.841 47.6609L44.4984 39.7475C44.4984 39.7294 44.4984 39.7294 44.5165 39.7114C44.7687 39.1513 45.6514 38.7358 46.6783 38.7358C47.8493 38.7358 48.606 39.2416 48.8762 39.9282L49.1465 40.8496L51.0021 47.2634Z" fill="#3A4A09"/>
<path d="M121.551 41.8614C121.299 40.416 122.218 38.8442 123.911 38.7358C123.947 38.7358 124.091 38.7358 124.217 38.7358C124.289 38.7358 124.343 38.6635 124.307 38.6093L123.605 36.116C123.569 35.9896 123.443 35.8992 123.298 35.8992H110.435H107.553H102.833C102.671 35.8992 102.545 36.0076 102.509 36.1702L102.058 38.4467C102.022 38.6093 102.148 38.7358 102.31 38.7358H103.571C103.95 38.7358 104.31 38.808 104.652 38.9526C105.877 39.4584 106.544 40.8315 106.274 42.1324L102.833 58.6456V58.6276C102.418 60.7234 101.139 61.4822 99.3378 61.4641H97.5903C97.4822 61.4641 97.3921 61.5725 97.4281 61.6809L98.1127 63.9574C98.1668 64.1561 98.365 64.3006 98.5811 64.3006H101.644H104.544H108.346C108.598 64.3006 108.814 64.12 108.868 63.8851L109.354 61.6448C109.372 61.5364 109.3 61.446 109.192 61.446H108.526C108.472 61.446 108.418 61.446 108.364 61.446C106.688 61.3376 105.517 59.7116 105.859 58.0494L107.643 49.5218C107.661 49.4314 107.733 49.3772 107.823 49.3592C113.192 48.6546 116.272 52.4848 118.885 56.9473C119.029 57.2003 119.155 57.4713 119.245 57.7604C119.749 59.3503 118.831 61.0847 117.191 61.3918C117.011 61.428 116.831 61.446 116.651 61.446H116.218C116.128 61.446 116.056 61.5364 116.092 61.6267L116.795 64.0296C116.849 64.1922 116.975 64.3006 117.137 64.3006H121.137H127.892H131.009C131.225 64.3006 131.405 64.1561 131.46 63.9574L132.054 61.6448C132.072 61.5544 132.018 61.4822 131.928 61.4822H129.928C128.361 61.4822 127.19 60.8498 126.523 59.3864C126.415 59.1515 126.343 58.9166 126.271 58.6818L123.064 47.6067L121.551 41.8614ZM116.146 47.2634V47.2453L117.047 50.389C117.083 50.4974 116.939 50.5877 116.849 50.5155C114.435 48.6546 111.769 47.2995 108.129 47.8054C108.039 47.8235 107.967 47.7512 107.985 47.6609L109.643 39.7475C109.643 39.7294 109.643 39.7294 109.661 39.7114C109.913 39.1513 110.796 38.7358 111.823 38.7358C112.994 38.7358 113.75 39.2416 114.02 39.9282L114.291 40.8496L116.146 47.2634Z" fill="#3A4A09"/>
<path d="M44.8768 5.67305C44.8768 4.11929 46.1559 2.85459 47.7052 2.85459H53.0018C53.1999 2.85459 53.3261 2.67392 53.272 2.49325L52.6415 0.289072C52.5874 0.126469 52.4433 0.0180664 52.2811 0.0180664H44.8587H38.3731H36.4275C36.2473 0.0180664 36.0852 0.144536 36.0491 0.325206L35.5987 2.56552C35.5627 2.71006 35.6708 2.85459 35.8329 2.87266C37.2562 3.0172 38.3731 4.22769 38.3731 5.69112V5.81759V11.2558V22.7464C38.3731 24.2098 37.2742 25.4203 35.851 25.5649C35.6888 25.5829 35.5807 25.7275 35.6348 25.8901L36.2653 28.1665C36.3013 28.3291 36.4455 28.4375 36.6076 28.4375H38.3731H44.8587H58.3704C58.4965 28.4375 58.6046 28.3472 58.6226 28.2388L59.2352 25.601L60.172 21.554C60.19 21.4456 60.1179 21.3372 60.0098 21.3372H59.4333C59.3252 21.3372 59.2171 21.4275 59.1991 21.5359C58.8208 23.6859 57.6678 25.601 56.4067 25.601H47.6872C46.2459 25.601 45.0569 24.517 44.8768 23.1077C44.8587 22.9813 44.8587 22.8548 44.8587 22.7283V11.3461" fill="#3A4A09"/>
<path d="M0.540467 46.5407L0.468405 46.8117C0.450389 46.8659 0.378327 47.1188 0.360311 47.173C0.126109 48.1125 0 49.0881 0 50.0818C0 57.8868 7.78272 64.2103 17.367 64.2103C25.7082 64.2103 32.6802 59.4225 34.3557 53.0268C34.3737 52.9545 34.3737 52.8822 34.3377 52.81L33.0045 50.1902C32.9685 50.118 32.8784 50.0638 32.7883 50.0638H31.7074C31.5993 50.0638 31.4912 50.1541 31.4912 50.2806C31.3651 56.5318 25.8343 61.5725 19.0064 61.5725C12.1065 61.5725 6.52163 56.4234 6.52163 50.0638C6.52163 48.9255 6.70179 47.8235 7.02607 46.7936C7.6386 44.3184 9.47618 42.2407 12.1425 40.4521C14.1062 39.2597 16.4662 38.5551 19.0064 38.5551C23.5824 38.5551 27.3296 39.7294 29.4915 43.108C29.5275 43.1622 29.5815 43.1983 29.6536 43.1983H32.2479C32.3379 43.1983 32.392 43.108 32.374 43.0176L31.0408 38.7177C31.0228 38.6273 30.9687 38.5551 30.8967 38.5189C27.9421 36.2425 22.1591 35.7366 17.349 35.7366C11.6921 35.7366 6.68377 38.013 3.51303 41.4639V41.4458C3.45899 41.5181 3.42296 41.5723 3.36891 41.6265C3.18875 41.8433 3.0086 42.042 2.82844 42.2588C1.76552 43.65 0.990856 45.0592 0.540467 46.5407Z" fill="#3A4A09"/>
<path d="M80.6376 47.155C75.6473 46.613 70.7291 46.1974 70.7291 41.9155C70.7291 32.7556 90.8525 36.1702 93.8971 37.7963C93.9151 37.8143 93.9331 37.8143 93.9331 37.8505L95.5365 43.0357C95.5725 43.126 95.5005 43.2344 95.3924 43.2344L93.789 43.2886C93.7169 43.2886 93.6629 43.2525 93.6088 43.2164C86.6728 34.6165 77.1967 37.6156 77.1967 41.6807C77.1967 43.7765 79.1423 44.5172 81.8447 44.9327L87.1593 45.5109C87.1593 45.5109 87.1593 45.5109 87.1773 45.5109C92.2396 46.089 97.338 47.3537 97.338 53.4965C97.338 57.9229 94.7618 64.1561 84.0426 64.1561C69.522 64.1561 67.3241 56.4414 67.0899 55.3755C67.0719 55.3032 67.0719 55.2129 67.0899 55.1406L68.1889 49.9012C68.2069 49.8108 68.297 49.7386 68.3871 49.7386H71.1434C71.2515 49.7386 71.3236 49.8289 71.3236 49.9192C71.2335 51.3646 71.1074 60.904 83.7723 60.904C88.5284 61.0124 91.0326 56.7486 90.8524 53.4965C90.8524 50.1541 88.6546 48.7088 85.718 47.9499H85.7L80.6376 47.155Z" fill="#3A4A09"/>
<path d="M13.2955 81.645C12.6469 82.2954 11.4038 83.018 9.69234 83.018H6.95398V73.0992H9.67433C11.3858 73.0992 12.6469 73.8219 13.2774 74.4723C13.926 75.1228 14.7727 76.261 14.7727 78.0677C14.7907 79.8383 13.926 80.9945 13.2955 81.645ZM12.6109 74.8698C11.9803 74.2736 10.9714 73.8039 9.60227 73.8039H7.72865V82.3134H9.60227C10.9714 82.3134 11.9803 81.8618 12.6109 81.2655C13.2414 80.6693 13.98 79.6395 13.98 78.0677C13.9981 76.4778 13.2414 75.448 12.6109 74.8698Z" fill="#3A4A09"/>
<path d="M16.1239 82.7832V73.298H16.9346V82.7832H16.1239ZM16.3041 74.0749V73.316H22.3393V74.0749H16.3041ZM16.3041 78.3025V77.5437H21.6727V78.3025H16.3041ZM16.3041 82.7832V82.0244H22.3393V82.7832H16.3041Z" fill="#3A4A09"/>
<path d="M26.8251 82.7832V73.298H27.6358V82.7832H26.8251ZM27.2575 82.7832V82.0244H32.3559V82.7832H27.2575Z" fill="#3A4A09"/>
<path d="M37.4904 82.9277C34.9321 82.9277 32.6982 81.0487 32.6982 78.0315C32.6982 75.0143 34.9321 73.1354 37.4904 73.1354C40.0666 73.1354 42.2825 75.0143 42.2825 78.0315C42.3005 81.0668 40.0666 82.9277 37.4904 82.9277ZM37.4904 73.8039C35.3285 73.8039 33.4729 75.3576 33.4729 78.0315C33.4729 80.6693 35.3465 82.2412 37.4904 82.2412C39.6522 82.2412 41.5258 80.6693 41.5258 78.0315C41.5258 75.3757 39.6702 73.8039 37.4904 73.8039Z" fill="#3A4A09"/>
<path d="M47.1287 82.9639C46.5161 82.9639 45.9577 82.8916 45.4893 82.747C45.0209 82.6025 44.6425 82.4038 44.3363 82.1147C44.048 81.8437 43.8318 81.5004 43.7057 81.1029C43.5796 80.7055 43.5436 80.2538 43.5976 79.7298L44.3543 79.6756C44.2822 80.2357 44.3543 80.6874 44.5705 81.0668C44.7686 81.4282 45.0929 81.7172 45.5433 81.8979C45.9937 82.0786 46.5161 82.1689 47.1467 82.1689C47.7412 82.1689 48.2637 82.0966 48.678 81.9521C49.0924 81.8076 49.4166 81.5908 49.6328 81.3197C49.849 81.0487 49.9571 80.7235 49.9571 80.3441C49.9571 79.9286 49.831 79.6034 49.5968 79.3866C49.3446 79.1517 49.0383 78.9891 48.642 78.8626C48.2456 78.7362 47.8313 78.6278 47.3629 78.5374C46.9305 78.4471 46.4981 78.3568 46.0838 78.2303C45.6514 78.1219 45.2731 77.9593 44.9308 77.7786C44.5885 77.5799 44.3182 77.3269 44.1021 77.0198C43.8859 76.7126 43.7958 76.3152 43.7958 75.8274C43.7958 75.2673 43.9399 74.7975 44.2102 74.4001C44.4804 74.0026 44.8587 73.6955 45.3451 73.4787C45.8316 73.2618 46.372 73.1534 47.0026 73.1534C47.6151 73.1534 48.1916 73.2618 48.714 73.4606C49.2365 73.6593 49.6509 73.9845 49.9751 74.4001C50.2994 74.8337 50.4616 75.3757 50.4616 76.0261L49.6509 76.1706C49.6509 75.7912 49.5788 75.466 49.4527 75.177C49.3266 74.8879 49.1464 74.653 48.8942 74.4723C48.66 74.2917 48.3717 74.1471 48.0475 74.0568C47.7232 73.9665 47.3629 73.9123 46.9845 73.9123C46.5342 73.9123 46.1198 73.9845 45.7595 74.1471C45.3992 74.2917 45.1109 74.5085 44.9128 74.7975C44.6966 75.0686 44.6065 75.4118 44.6065 75.7912C44.6065 76.2429 44.7506 76.5862 45.0389 76.8391C45.3271 77.0921 45.7054 77.2727 46.1738 77.4173C46.6423 77.5437 47.1287 77.6702 47.6331 77.7967C48.0475 77.887 48.4438 77.9773 48.8041 78.1038C49.1824 78.2122 49.5067 78.3748 49.813 78.5555C50.1012 78.7362 50.3354 78.9891 50.5156 79.2782C50.6958 79.5672 50.7678 79.9467 50.7678 80.4164C50.7678 80.9403 50.6417 81.392 50.3715 81.7714C50.1012 82.1508 49.7049 82.458 49.1644 82.6748C48.624 82.8554 47.9394 82.9639 47.1287 82.9639Z" fill="#3A4A09"/>
<path d="M55.578 82.7832V73.298H56.3887V82.7832H55.578ZM55.7761 74.0749V73.316H61.8294V74.0749H55.7761ZM55.7761 78.3748V77.616H61.1448V78.3748H55.7761Z" fill="#3A4A09"/>
<path d="M62.8923 82.7832V73.298H65.8108C66.2612 73.298 66.6936 73.3341 67.0719 73.4064C67.4502 73.4786 67.7925 73.587 68.0988 73.7496C68.405 73.8942 68.6573 74.0749 68.8554 74.3097C69.0536 74.5265 69.2157 74.7795 69.3238 75.0866C69.4319 75.3757 69.486 75.7009 69.486 76.0622C69.486 76.4055 69.4319 76.7126 69.3418 76.9836C69.2337 77.2727 69.0896 77.5076 68.9095 77.7244C68.7113 77.9412 68.4771 78.1038 68.2069 78.2483C67.9186 78.3748 67.5943 78.4651 67.234 78.5193V78.682C67.4862 78.7181 67.7204 78.7904 67.9546 78.9168C68.1888 79.0252 68.405 79.224 68.5852 79.4769C68.7834 79.7298 68.9455 80.0912 69.0716 80.5609L69.7202 82.8012H68.8734L68.351 80.7597C68.2609 80.3622 68.0988 80.037 67.8646 79.784C67.6304 79.5311 67.3421 79.3324 66.9998 79.2059C66.6575 79.0794 66.2612 79.0072 65.8108 79.0072H63.721V82.8012H62.8923V82.7832ZM63.703 78.2303H65.7387C66.7296 78.2303 67.4502 78.0496 67.9366 77.7063C68.423 77.3631 68.6753 76.8391 68.6753 76.1345C68.6753 75.4299 68.4411 74.9059 67.9546 74.5627C67.4682 74.2194 66.7296 74.0568 65.7387 74.0568H63.703V78.2303Z" fill="#3A4A09"/>
<path d="M70.4768 82.7832L73.8638 73.298H75.0528L78.4397 82.7832H77.575L74.5303 74.0568H74.3862L71.3416 82.7832H70.4768ZM71.9001 80.4887V79.7479H77.1066V80.4887H71.9001Z" fill="#3A4A09"/>
<path d="M79.6828 82.7832V73.298H80.8178L86.2585 81.7172H86.3486L86.2765 73.298H87.0692V82.7832H86.0423L80.5295 74.2736H80.4214L80.4935 82.7832H79.6828Z" fill="#3A4A09"/>
<path d="M96.6895 81.4824C96.0049 82.2412 94.9059 82.9639 93.1764 82.9639C90.4201 82.9639 88.3843 80.9403 88.3843 78.0496C88.3843 75.1589 90.4921 73.1354 93.1764 73.1354C94.8339 73.1354 95.9328 73.8219 96.6174 74.5085L96.131 75.0686C95.6446 74.4543 94.5456 73.8039 93.1764 73.8039C90.8344 73.8039 89.195 75.5202 89.195 78.0135C89.195 80.4887 90.8524 82.2412 93.1764 82.2412C94.4916 82.2412 95.5185 81.7534 96.2031 80.9765L96.6895 81.4824Z" fill="#3A4A09"/>
<path d="M98.1667 82.7832V73.298H98.9774V82.7832H98.1667ZM98.3289 74.0749V73.316H104.364V74.0749H98.3289ZM98.3289 78.3025V77.5437H103.698V78.3025H98.3289ZM98.3289 82.7832V82.0244H104.364V82.7832H98.3289Z" fill="#3A4A09"/>
<path d="M108.67 82.9639C108.057 82.9639 107.499 82.8916 107.03 82.747C106.562 82.6025 106.184 82.4038 105.877 82.1147C105.589 81.8437 105.373 81.5004 105.247 81.1029C105.121 80.7055 105.085 80.2538 105.139 79.7298L105.895 79.6756C105.823 80.2357 105.895 80.6874 106.112 81.0668C106.31 81.4282 106.634 81.7172 107.084 81.8979C107.535 82.0786 108.057 82.1689 108.688 82.1689C109.282 82.1689 109.805 82.0966 110.219 81.9521C110.634 81.8076 110.958 81.5908 111.174 81.3197C111.39 81.0487 111.498 80.7235 111.498 80.3441C111.498 79.9286 111.372 79.6034 111.138 79.3866C110.886 79.1517 110.579 78.9891 110.183 78.8626C109.787 78.7362 109.372 78.6278 108.904 78.5374C108.472 78.4471 108.039 78.3568 107.625 78.2303C107.193 78.1219 106.814 77.9593 106.472 77.7786C106.13 77.5799 105.859 77.3269 105.643 77.0198C105.427 76.7126 105.337 76.3152 105.337 75.8274C105.337 75.2673 105.481 74.7975 105.751 74.4001C106.022 74.0026 106.4 73.6955 106.886 73.4787C107.373 73.2618 107.913 73.1534 108.544 73.1534C109.156 73.1534 109.733 73.2618 110.255 73.4606C110.778 73.6593 111.192 73.9845 111.516 74.4001C111.841 74.8337 112.003 75.3757 112.003 76.0261L111.192 76.1706C111.192 75.7912 111.12 75.466 110.994 75.177C110.868 74.8879 110.688 74.653 110.435 74.4723C110.201 74.2917 109.913 74.1471 109.589 74.0568C109.264 73.9665 108.904 73.9123 108.526 73.9123C108.075 73.9123 107.661 73.9845 107.301 74.1471C106.94 74.2917 106.652 74.5085 106.454 74.7975C106.238 75.0686 106.148 75.4118 106.148 75.7912C106.148 76.2429 106.292 76.5862 106.58 76.8391C106.868 77.0921 107.247 77.2727 107.715 77.4173C108.183 77.5437 108.67 77.6702 109.174 77.7967C109.589 77.887 109.985 77.9773 110.345 78.1038C110.724 78.2122 111.048 78.3748 111.354 78.5555C111.642 78.7362 111.877 78.9891 112.057 79.2782C112.237 79.5672 112.309 79.9467 112.309 80.4164C112.309 80.9403 112.183 81.392 111.913 81.7714C111.642 82.1508 111.246 82.458 110.706 82.6748C110.147 82.8554 109.481 82.9639 108.67 82.9639Z" fill="#3A4A09"/>
<path d="M113.876 82.7832V73.298H114.687V82.7832H113.876ZM114.056 74.0749V73.316H120.092V74.0749H114.056ZM114.056 78.3025V77.5437H119.425V78.3025H114.056ZM114.056 82.7832V82.0244H120.092V82.7832H114.056Z" fill="#3A4A09"/>
<path d="M124.379 82.9639C123.767 82.9639 123.208 82.8916 122.74 82.747C122.272 82.6025 121.893 82.4038 121.587 82.1147C121.299 81.8437 121.083 81.5004 120.956 81.1029C120.83 80.7055 120.794 80.2538 120.848 79.7298L121.605 79.6756C121.533 80.2357 121.605 80.6874 121.821 81.0668C122.019 81.4282 122.344 81.7172 122.794 81.8979C123.244 82.0786 123.767 82.1689 124.397 82.1689C124.992 82.1689 125.514 82.0966 125.929 81.9521C126.343 81.8076 126.667 81.5908 126.884 81.3197C127.1 81.0487 127.208 80.7235 127.208 80.3441C127.208 79.9286 127.082 79.6034 126.848 79.3866C126.595 79.1517 126.289 78.9891 125.893 78.8626C125.496 78.7362 125.082 78.6278 124.614 78.5374C124.181 78.4471 123.749 78.3568 123.335 78.2303C122.902 78.1219 122.524 77.9593 122.182 77.7786C121.839 77.5799 121.569 77.3269 121.353 77.0198C121.137 76.7126 121.047 76.3152 121.047 75.8274C121.047 75.2673 121.191 74.7975 121.461 74.4001C121.731 74.0026 122.109 73.6955 122.596 73.4787C123.082 73.2618 123.623 73.1534 124.253 73.1534C124.866 73.1534 125.442 73.2618 125.965 73.4606C126.487 73.6593 126.902 73.9845 127.226 74.4001C127.55 74.8337 127.712 75.3757 127.712 76.0261L126.902 76.1706C126.902 75.7912 126.83 75.466 126.703 75.177C126.577 74.8879 126.397 74.653 126.145 74.4723C125.911 74.2917 125.622 74.1471 125.298 74.0568C124.974 73.9665 124.614 73.9123 124.235 73.9123C123.785 73.9123 123.371 73.9845 123.01 74.1471C122.65 74.2917 122.362 74.5085 122.163 74.7975C121.947 75.0686 121.857 75.4118 121.857 75.7912C121.857 76.2429 122.001 76.5862 122.29 76.8391C122.578 77.0921 122.956 77.2727 123.425 77.4173C123.893 77.5437 124.379 77.6702 124.884 77.7967C125.298 77.887 125.695 77.9773 126.055 78.1038C126.433 78.2122 126.757 78.3748 127.064 78.5555C127.352 78.7362 127.586 78.9891 127.766 79.2782C127.946 79.5672 128.019 79.9467 128.019 80.4164C128.019 80.9403 127.892 81.392 127.622 81.7714C127.352 82.1508 126.956 82.458 126.415 82.6748C125.857 82.8554 125.19 82.9639 124.379 82.9639Z" fill="#3A4A09"/>
</svg>
