<svg width="12" height="12" viewBox="0 0 12 12" fill="none" xmlns="http://www.w3.org/2000/svg">
<path d="M11 4.5V7.5C11 8.60457 10.1046 9.5 9 9.5H3C1.89543 9.5 1 8.60457 1 7.5V4.5C1 3.39543 1.89543 2.5 3 2.5H9C10.1046 2.5 11 3.39543 11 4.5V4.5ZM11 4.5H3" stroke="#F8F6EC" stroke-linecap="round" stroke-linejoin="round"/>
<path d="M8.25 6.69097C8.38269 6.57221 8.55791 6.5 8.75 6.5C9.16421 6.5 9.5 6.83579 9.5 7.25C9.5 7.66421 9.16421 8 8.75 8C8.55791 8 8.38269 7.92779 8.25 7.80903" stroke="#F8F6EC" stroke-width="1.5" stroke-linecap="round" stroke-linejoin="round"/>
<path d="M8.25 6.69097C8.11731 6.57221 7.94209 6.5 7.75 6.5C7.33579 6.5 7 6.83579 7 7.25C7 7.66421 7.33579 8 7.75 8C7.94209 8 8.11731 7.92779 8.25 7.80903" stroke="#F8F6EC" stroke-width="1.5" stroke-linecap="round" stroke-linejoin="round"/>
</svg>
