<svg width="33" height="33" viewBox="0 0 33 33" fill="none" xmlns="http://www.w3.org/2000/svg">
<path d="M16.0283 1.9749C16.2686 1.66936 16.7314 1.66937 16.9717 1.9749L19.7289 5.48172C19.8792 5.67293 20.1301 5.75446 20.3642 5.68813L24.656 4.47171C25.03 4.36573 25.4045 4.6378 25.4192 5.02619L25.5886 9.48391C25.5978 9.72698 25.7529 9.94042 25.9812 10.0243L30.1684 11.5629C30.5333 11.697 30.6763 12.1372 30.4599 12.4601L27.9768 16.166C27.8414 16.3681 27.8414 16.6319 27.9768 16.834L30.4599 20.5399C30.6763 20.8628 30.5333 21.303 30.1684 21.4371L25.9812 22.9757C25.7529 23.0596 25.5978 23.273 25.5886 23.5161L25.4192 27.9738C25.4045 28.3622 25.03 28.6343 24.656 28.5283L20.3642 27.3119C20.1301 27.2455 19.8792 27.3271 19.7289 27.5183L16.9717 31.0251C16.7314 31.3306 16.2686 31.3306 16.0283 31.0251L13.2711 27.5183C13.1208 27.3271 12.8699 27.2455 12.6358 27.3119L8.34395 28.5283C7.97001 28.6343 7.59553 28.3622 7.58077 27.9738L7.4114 23.5161C7.40216 23.273 7.24709 23.0596 7.01877 22.9757L2.83157 21.4371C2.46675 21.303 2.32371 20.8628 2.54006 20.5399L5.02321 16.834C5.15861 16.6319 5.15861 16.3681 5.02321 16.166L2.54006 12.4601C2.32371 12.1372 2.46675 11.697 2.83157 11.5629L7.01877 10.0243C7.24709 9.94042 7.40216 9.72698 7.4114 9.48391L7.58077 5.02619C7.59553 4.6378 7.97001 4.36573 8.34395 4.47171L12.6358 5.68813C12.8699 5.75446 13.1208 5.67294 13.2711 5.48172L16.0283 1.9749Z" stroke="#BE9065" stroke-width="1.5"/>
<path d="M12.375 16.5L15.125 19.25L20.625 13.75" stroke="#BE9065" stroke-width="1.5" stroke-linecap="round" stroke-linejoin="round"/>
</svg>
