<svg width="24" height="25" viewBox="0 0 24 25" fill="none" xmlns="http://www.w3.org/2000/svg">
<path d="M12 21.0633V7.06329C12 5.95872 12.8954 5.06329 14 5.06329H21.4C21.7314 5.06329 22 5.33192 22 5.66329V18.7776" stroke="#F8F6EC" stroke-width="1.5" stroke-linecap="round"/>
<path d="M12 21.0633V7.06329C12 5.95872 11.1046 5.06329 10 5.06329H2.6C2.26863 5.06329 2 5.33192 2 5.66329V18.7776" stroke="#F8F6EC" stroke-width="1.5" stroke-linecap="round"/>
<path d="M14 19.0633L22 19.0633" stroke="#F8F6EC" stroke-width="1.5" stroke-linecap="round"/>
<path d="M10 19.0633L2 19.0633" stroke="#F8F6EC" stroke-width="1.5" stroke-linecap="round"/>
<path d="M12 21.0633C12 19.9587 12.8954 19.0633 14 19.0633" stroke="#F8F6EC" stroke-width="1.5" stroke-linecap="round" stroke-linejoin="round"/>
<path d="M12 21.0633C12 19.9587 11.1046 19.0633 10 19.0633" stroke="#F8F6EC" stroke-width="1.5" stroke-linecap="round" stroke-linejoin="round"/>
</svg>
