<svg width="104" height="58" viewBox="0 0 104 58" fill="none" xmlns="http://www.w3.org/2000/svg">
<path d="M103.008 57.9905C78.4463 57.4921 57.8512 38.0207 52 15.0271C52 14.9938 51.9669 14.9938 51.9669 15.0271C46.1157 37.9542 25.6529 57.3592 1.22315 57.9905C0.561997 58.0237 9.32613e-06 57.4589 9.26804e-06 56.7943L9.00369e-06 53.7706C8.93107e-06 52.9399 0.661166 52.2754 1.48761 52.2421C28.5289 51.4447 50.3141 29.1156 50.3471 1.76921C50.3471 0.905291 50.9752 0.107829 51.8347 0.00814602C52.8264 -0.0915372 53.6529 0.705928 53.6529 1.66953C53.6529 29.2818 75.7686 51.8102 103.14 52.2753C103.603 52.2753 104 52.6741 104 53.1393L104 57.0269C104 57.5586 103.57 58.0237 103.008 57.9905Z" fill="#D3DDA8"/>
</svg>
