<svg width="90" height="161" viewBox="0 0 90 161" fill="none" xmlns="http://www.w3.org/2000/svg">
<path d="M89.3187 1.53528C88.551 39.5591 58.5605 71.4418 23.1451 80.5C23.0939 80.5 23.0939 80.5512 23.1451 80.5512C58.4582 89.6093 88.3463 121.287 89.3187 159.106C89.3699 160.13 88.4998 161 87.4763 161L82.8191 161C81.5396 161 80.516 159.976 80.4649 158.697C79.2366 116.835 44.8447 83.11 2.72498 83.0588C1.39434 83.0588 0.166065 82.0865 0.0125316 80.7559C-0.141002 79.2206 1.08728 77.9412 2.57145 77.9412C45.1006 77.9412 79.7995 43.7044 80.516 1.33058C80.516 0.614113 81.1302 -3.58045e-07 81.8467 -3.26726e-07L87.8345 -6.4988e-08C88.6534 -2.91948e-08 89.3699 0.665289 89.3187 1.53528Z" fill="#F3EDC8"/>
</svg>
