<svg width="27" height="48" viewBox="0 0 27 48" fill="none" xmlns="http://www.w3.org/2000/svg">
<path d="M26.9992 0.457724C26.7672 11.794 17.7017 21.2994 6.9964 24C6.98093 24 6.98093 24.0153 6.9964 24.0153C17.6708 26.7158 26.7053 36.1602 26.9992 47.4355C27.0147 47.7406 26.7517 48 26.4423 48L25.0345 48C24.6478 48 24.3384 47.6948 24.3229 47.3134C23.9516 34.8328 13.5557 24.7781 0.82384 24.7629C0.421618 24.7629 0.0503377 24.473 0.00392809 24.0763C-0.0424834 23.6186 0.328799 23.2371 0.777432 23.2371C13.6331 23.2371 24.1218 13.0299 24.3384 0.396694C24.3384 0.183089 24.524 -1.08229e-07 24.7406 -9.87621e-08L26.5506 -1.96444e-08C26.7981 -8.82494e-09 27.0147 0.198347 26.9992 0.457724Z" fill="#D3DDA8"/>
</svg>
