<svg width="32" height="32" viewBox="0 0 32 32" fill="none" xmlns="http://www.w3.org/2000/svg">
<path d="M16 28.0001V8.66675C16 7.56218 16.8954 6.66675 18 6.66675H28.7333C29.0647 6.66675 29.3333 6.93538 29.3333 7.26675V24.9525" stroke="#F8F6EC" stroke-width="1.5" stroke-linecap="round"/>
<path d="M16 28.0001V8.66675C16 7.56218 15.1046 6.66675 14 6.66675H3.26667C2.9353 6.66675 2.66667 6.93538 2.66667 7.26675V24.9525" stroke="#F8F6EC" stroke-width="1.5" stroke-linecap="round"/>
<path d="M18.667 25.3333L29.3337 25.3333" stroke="#F8F6EC" stroke-width="1.5" stroke-linecap="round"/>
<path d="M13.333 25.3333L2.66634 25.3333" stroke="#F8F6EC" stroke-width="1.5" stroke-linecap="round"/>
<path d="M16.0003 27.9999C16.0003 26.5272 17.1942 25.3333 18.667 25.3333" stroke="#F8F6EC" stroke-width="1.5" stroke-linecap="round" stroke-linejoin="round"/>
<path d="M15.9997 27.9999C15.9997 26.5272 14.8058 25.3333 13.333 25.3333" stroke="#F8F6EC" stroke-width="1.5" stroke-linecap="round" stroke-linejoin="round"/>
</svg>
