<svg width="240" height="151" viewBox="0 0 240 151" fill="none" xmlns="http://www.w3.org/2000/svg">
<path d="M158.34 10.7741C157.884 8.1622 159.547 5.32175 162.611 5.12586C162.677 5.12586 162.937 5.12586 163.166 5.12586C163.296 5.12586 163.394 4.99526 163.329 4.89732L162.057 0.391785C161.992 0.163244 161.764 0 161.503 0H138.223H132.974H124.431C124.138 0 123.909 0.195893 123.844 0.489732L123.029 4.60348C122.964 4.89732 123.192 5.12586 123.486 5.12586H125.768C126.453 5.12586 127.105 5.25645 127.724 5.51764C129.941 6.43181 131.148 8.91312 130.659 11.2638L124.431 41.1048V41.0722C123.681 44.8594 121.366 46.2307 118.106 46.198H114.943C114.747 46.198 114.584 46.3939 114.65 46.5898L115.889 50.7036C115.986 51.0627 116.345 51.3239 116.736 51.3239H122.279H127.529H134.408C134.865 51.3239 135.256 50.9974 135.354 50.573L136.234 46.5245C136.267 46.3286 136.136 46.1654 135.941 46.1654H134.734C134.636 46.1654 134.539 46.1654 134.441 46.1654C131.409 45.9695 129.289 43.0311 129.909 40.0274L133.137 24.6172C133.169 24.4539 133.3 24.356 133.463 24.3233C143.179 23.05 148.754 29.9716 153.482 38.0358C153.743 38.4929 153.971 38.9826 154.134 39.505C155.047 42.3781 153.384 45.5124 150.417 46.0674C150.091 46.1327 149.765 46.1654 149.439 46.1654H148.656C148.493 46.1654 148.363 46.3286 148.428 46.4919L149.7 50.8342C149.798 51.128 150.026 51.3239 150.319 51.3239H157.558H169.719H175.36C175.751 51.3239 176.077 51.0627 176.175 50.7036L177.251 46.5245C177.284 46.3613 177.186 46.2307 177.023 46.2307H173.404C170.567 46.2307 168.448 45.088 167.241 42.4434C167.046 42.019 166.915 41.5946 166.785 41.1701L160.981 21.1564L158.34 10.7741ZM148.559 20.5361V20.5034L150.189 26.1843C150.254 26.3802 149.993 26.5435 149.83 26.4129C145.461 23.05 140.636 20.6014 134.05 21.5155C133.886 21.5482 133.756 21.4176 133.789 21.2544L136.788 6.95419C136.788 6.92154 136.788 6.92154 136.821 6.88889C137.277 5.87678 138.875 5.12586 140.734 5.12586C142.853 5.12586 144.222 6.04002 144.711 7.28068L145.2 8.94577L148.559 20.5361Z" fill="#F8F6EC"/>
<path d="M102.618 75.6473C102.162 73.0354 103.825 70.1949 106.89 69.999C106.955 69.999 107.216 69.999 107.444 69.999C107.574 69.999 107.672 69.8684 107.607 69.7705L106.335 65.265C106.27 65.0364 106.042 64.8732 105.781 64.8732H82.5013H77.2519H68.7094C68.416 64.8732 68.1877 65.0691 68.1225 65.3629L67.3074 69.4766C67.2422 69.7705 67.4704 69.999 67.7639 69.999H70.0462C70.7309 69.999 71.383 70.1296 72.0025 70.3908C74.2196 71.305 75.426 73.7863 74.9369 76.137L68.7094 105.978V105.945C67.9595 109.733 65.6445 111.104 62.3841 111.071H59.1888C58.9932 111.071 58.8301 111.267 58.8953 111.463L60.1343 115.577C60.2321 115.936 60.5908 116.197 60.9821 116.197H66.5249H71.7743H78.6539C79.1104 116.197 79.5016 115.871 79.5994 115.446L80.4798 111.398C80.5124 111.202 80.3819 111.039 80.1863 111.039H78.9799C78.8821 111.039 78.7843 111.039 78.6865 111.039C75.6542 110.843 73.5349 107.904 74.1544 104.901L77.3823 89.4904C77.4149 89.3271 77.5453 89.2292 77.7083 89.1965C87.4246 87.9232 93 94.8448 97.7277 102.909C97.9886 103.366 98.2168 103.856 98.3798 104.378C99.2928 107.251 97.6299 110.386 94.6629 110.941C94.3368 111.006 94.0108 111.039 93.6847 111.039H92.9022C92.7392 111.039 92.6088 111.202 92.674 111.365L93.9456 115.707C94.0434 116.001 94.2716 116.197 94.5651 116.197H101.803H113.965H119.606C119.997 116.197 120.323 115.936 120.421 115.577L121.497 111.398C121.529 111.234 121.431 111.104 121.268 111.104H117.649C114.813 111.104 112.693 109.961 111.487 107.317C111.291 106.892 111.161 106.468 111.031 106.043L105.227 86.0296L102.618 75.6473ZM92.8044 85.4093V85.3766L94.4346 91.0575C94.4999 91.2534 94.239 91.4166 94.076 91.286C89.7069 87.9232 84.8814 85.4746 78.2952 86.3887C78.1322 86.4214 78.0018 86.2908 78.0344 86.1275L81.034 71.8274C81.034 71.7947 81.034 71.7947 81.0666 71.7621C81.5231 70.75 83.1208 69.999 84.9792 69.999C87.0985 69.999 88.4679 70.9132 88.957 72.1538L89.4461 73.8189L92.8044 85.4093Z" fill="#F8F6EC"/>
<path d="M220.485 75.6473C220.028 73.0354 221.691 70.1949 224.756 69.999C224.821 69.999 225.082 69.999 225.31 69.999C225.441 69.999 225.539 69.8684 225.473 69.7705L224.202 65.265C224.137 65.0364 223.908 64.8732 223.648 64.8732H200.368H195.151H186.608C186.315 64.8732 186.087 65.0691 186.022 65.3629L185.206 69.4766C185.141 69.7705 185.369 69.999 185.663 69.999H187.945C188.63 69.999 189.282 70.1296 189.902 70.3908C192.119 71.305 193.325 73.7863 192.836 76.137L186.608 105.978V105.945C185.859 109.733 183.544 111.104 180.283 111.071H177.12C176.925 111.071 176.762 111.267 176.827 111.463L178.066 115.577C178.164 115.936 178.522 116.197 178.914 116.197H184.457H189.706H196.586C197.042 116.197 197.433 115.871 197.531 115.446L198.411 111.398C198.444 111.202 198.314 111.039 198.118 111.039H196.912C196.814 111.039 196.716 111.039 196.618 111.039C193.586 110.843 191.467 107.904 192.086 104.901L195.314 89.4904C195.347 89.3271 195.477 89.2292 195.64 89.1965C205.356 87.9232 210.932 94.8448 215.659 102.909C215.92 103.366 216.148 103.856 216.311 104.378C217.224 107.251 215.562 110.386 212.595 110.941C212.268 111.006 211.942 111.039 211.616 111.039H210.834C210.671 111.039 210.54 111.202 210.606 111.365L211.877 115.707C211.975 116.001 212.203 116.197 212.497 116.197H219.735H231.962H237.602C237.994 116.197 238.32 115.936 238.418 115.577L239.494 111.398C239.526 111.234 239.428 111.104 239.265 111.104H235.646C232.81 111.104 230.69 109.961 229.484 107.317C229.288 106.892 229.158 106.468 229.027 106.043L223.224 86.0296L220.485 75.6473ZM210.703 85.4093V85.3766L212.334 91.0575C212.399 91.2534 212.138 91.4166 211.975 91.286C207.606 87.9232 202.78 85.4746 196.194 86.3887C196.031 86.4214 195.901 86.2908 195.933 86.1275L198.933 71.8274C198.933 71.7947 198.933 71.7947 198.966 71.7621C199.422 70.75 201.02 69.999 202.878 69.999C204.998 69.999 206.367 70.9132 206.856 72.1538L207.345 73.8189L210.703 85.4093Z" fill="#F8F6EC"/>
<path d="M81.7186 10.2518C81.7186 7.44396 84.0336 5.15854 86.8376 5.15854H96.4234C96.7821 5.15854 97.0103 4.83206 96.9125 4.50557L95.7713 0.522416C95.6735 0.228577 95.4127 0.0326843 95.1192 0.0326843H81.686H69.9483H66.4269C66.1009 0.0326843 65.8074 0.261226 65.7422 0.587714L64.9271 4.63616C64.8619 4.89735 65.0575 5.15854 65.351 5.19119C67.9268 5.45238 69.9483 7.63985 69.9483 10.2844V10.5129V20.3402V41.1049C69.9483 43.7494 67.9594 45.9369 65.3836 46.1981C65.0901 46.2307 64.8945 46.4919 64.9923 46.7857L66.1335 50.8995C66.1987 51.1933 66.4595 51.3892 66.753 51.3892H69.9483H81.686H106.14C106.368 51.3892 106.564 51.226 106.596 51.0301L107.705 46.2634L109.4 38.95C109.433 38.7541 109.302 38.5583 109.107 38.5583H108.063C107.868 38.5583 107.672 38.7215 107.639 38.9174C106.955 42.8026 104.868 46.2634 102.586 46.2634H86.805C84.1966 46.2634 82.0447 44.3044 81.7186 41.7578C81.686 41.5293 81.686 41.3007 81.686 41.0722V20.5035" fill="#F8F6EC"/>
<path d="M1.47815 84.1033L1.34773 84.593C1.31512 84.6909 1.1847 85.148 1.1521 85.246C0.728234 86.9437 0.5 88.7067 0.5 90.5024C0.5 104.607 14.5853 116.034 31.9311 116.034C47.0271 116.034 59.6452 107.382 62.6775 95.8242C62.7101 95.6936 62.7101 95.563 62.6449 95.4324L60.2321 90.6983C60.1669 90.5677 60.0039 90.4698 59.8408 90.4698H57.8846C57.6889 90.4698 57.4933 90.633 57.4933 90.8616C57.2651 102.158 47.2554 111.267 34.8981 111.267C22.4105 111.267 12.303 101.962 12.303 90.4698C12.303 88.4129 12.629 86.4213 13.2159 84.5603C14.3245 80.0875 17.6502 76.3328 22.4757 73.1006C26.0296 70.9458 30.3008 69.6725 34.8981 69.6725C43.1798 69.6725 49.9616 71.7947 53.8742 77.9C53.9394 77.9979 54.0372 78.0632 54.1676 78.0632H58.8627C59.0257 78.0632 59.1235 77.9 59.0909 77.7367L56.6782 69.9663C56.6456 69.8031 56.5478 69.6725 56.4173 69.6072C51.0701 65.4934 40.604 64.5793 31.8985 64.5793C21.6606 64.5793 12.5964 68.693 6.85795 74.9289V74.8963C6.76013 75.0269 6.69492 75.1248 6.59711 75.2228C6.27106 75.6146 5.94501 75.9737 5.61896 76.3655C3.69528 78.8794 2.29327 81.4261 1.47815 84.1033Z" fill="#F8F6EC"/>
<path d="M146.439 85.2133C137.408 84.2339 128.507 83.4829 128.507 75.7452C128.507 59.1922 164.926 65.3629 170.436 68.3013C170.469 68.3339 170.502 68.3339 170.502 68.3992L173.404 77.7694C173.469 77.9326 173.338 78.1285 173.143 78.1285L170.241 78.2265C170.11 78.2265 170.013 78.1612 169.915 78.0959C157.362 62.5551 140.212 67.9748 140.212 75.3207C140.212 79.108 143.733 80.4466 148.624 81.1975L158.242 82.2423C158.242 82.2423 158.242 82.2423 158.275 82.2423C167.437 83.287 176.664 85.5725 176.664 96.6731C176.664 104.672 172.002 115.936 152.602 115.936C126.322 115.936 122.344 101.995 121.92 100.069C121.888 99.9379 121.888 99.7747 121.92 99.6441L123.909 90.1759C123.942 90.0127 124.105 89.8821 124.268 89.8821H129.257C129.452 89.8821 129.583 90.0453 129.583 90.2086C129.42 92.8205 129.191 110.059 152.113 110.059C160.72 110.255 165.252 102.55 164.926 96.6731C164.926 90.633 160.948 88.0211 155.634 86.6499H155.601L146.439 85.2133Z" fill="#F8F6EC"/>
<path d="M24.5624 147.54C23.3886 148.715 21.1388 150.021 18.0414 150.021H13.0854V132.097H18.0088C21.1062 132.097 23.3886 133.403 24.5298 134.578C25.7035 135.754 27.236 137.81 27.236 141.075C27.2686 144.275 25.7035 146.364 24.5624 147.54ZM23.3234 135.297C22.1822 134.219 20.3563 133.37 17.8784 133.37H14.4875V148.748H17.8784C20.3563 148.748 22.1822 147.932 23.3234 146.854C24.4645 145.777 25.8013 143.916 25.8013 141.075C25.8339 138.202 24.4645 136.341 23.3234 135.297Z" fill="#F8F6EC"/>
<path d="M29.6813 149.597V132.456H31.1485V149.597H29.6813ZM30.0073 133.86V132.489H40.93V133.86H30.0073ZM30.0073 141.5V140.129H39.7236V141.5H30.0073ZM30.0073 149.597V148.225H40.93V149.597H30.0073Z" fill="#F8F6EC"/>
<path d="M49.0487 149.597V132.456H50.5159V149.597H49.0487ZM49.8312 149.597V148.225H59.0584V149.597H49.8312Z" fill="#F8F6EC"/>
<path d="M68.3508 149.858C63.7209 149.858 59.6779 146.462 59.6779 141.01C59.6779 135.558 63.7209 132.162 68.3508 132.162C73.0132 132.162 77.0236 135.558 77.0236 141.01C77.0562 146.495 73.0132 149.858 68.3508 149.858ZM68.3508 133.37C64.4382 133.37 61.0799 136.178 61.0799 141.01C61.0799 145.777 64.4708 148.617 68.3508 148.617C72.2633 148.617 75.6542 145.777 75.6542 141.01C75.6542 136.211 72.2959 133.37 68.3508 133.37Z" fill="#F8F6EC"/>
<path d="M85.7943 149.923C84.6857 149.923 83.675 149.793 82.8273 149.531C81.9795 149.27 81.2948 148.911 80.7406 148.389C80.2189 147.899 79.8276 147.279 79.5994 146.56C79.3712 145.842 79.3059 145.026 79.4038 144.079L80.7732 143.981C80.6427 144.993 80.7732 145.809 81.1644 146.495C81.5231 147.148 82.11 147.67 82.9251 147.997C83.7402 148.323 84.6857 148.487 85.8269 148.487C86.9029 148.487 87.8484 148.356 88.5983 148.095C89.3482 147.834 89.9351 147.442 90.3264 146.952C90.7176 146.462 90.9133 145.875 90.9133 145.189C90.9133 144.438 90.685 143.851 90.2612 143.459C89.8047 143.034 89.2504 142.74 88.5331 142.512C87.8158 142.283 87.0659 142.087 86.2182 141.924C85.4357 141.761 84.6531 141.598 83.9032 141.369C83.1207 141.173 82.436 140.879 81.8165 140.553C81.197 140.194 80.708 139.737 80.3167 139.182C79.9254 138.627 79.7624 137.908 79.7624 137.027C79.7624 136.015 80.0232 135.166 80.5123 134.448C81.0014 133.729 81.6861 133.174 82.5664 132.783C83.4468 132.391 84.4249 132.195 85.5661 132.195C86.6746 132.195 87.718 132.391 88.6635 132.75C89.6091 133.109 90.359 133.697 90.9459 134.448C91.5328 135.231 91.8262 136.211 91.8262 137.386L90.359 137.647C90.359 136.962 90.2286 136.374 90.0003 135.852C89.7721 135.329 89.4461 134.905 88.9896 134.578C88.5657 134.252 88.044 133.991 87.4572 133.827C86.8703 133.664 86.2182 133.566 85.5335 133.566C84.7183 133.566 83.9684 133.697 83.3163 133.991C82.6642 134.252 82.1426 134.644 81.7839 135.166C81.3927 135.656 81.2296 136.276 81.2296 136.962C81.2296 137.778 81.4905 138.398 82.0121 138.855C82.5338 139.312 83.2185 139.639 84.0662 139.9C84.914 140.129 85.7943 140.357 86.7072 140.586C87.4572 140.749 88.1745 140.912 88.8266 141.141C89.5113 141.337 90.0982 141.63 90.6524 141.957C91.1741 142.283 91.598 142.74 91.924 143.263C92.2501 143.785 92.3805 144.471 92.3805 145.32C92.3805 146.267 92.1523 147.083 91.6632 147.768C91.1741 148.454 90.4568 149.009 89.4787 149.401C88.5005 149.727 87.2615 149.923 85.7943 149.923Z" fill="#F8F6EC"/>
<path d="M101.086 149.597V132.456H102.553V149.597H101.086ZM101.445 133.86V132.489H112.4V133.86H101.445ZM101.445 141.63V140.259H111.161V141.63H101.445Z" fill="#F8F6EC"/>
<path d="M114.324 149.597V132.456H119.606C120.421 132.456 121.203 132.521 121.888 132.652C122.573 132.783 123.192 132.978 123.746 133.272C124.301 133.533 124.757 133.86 125.116 134.284C125.474 134.676 125.768 135.133 125.964 135.688C126.159 136.211 126.257 136.798 126.257 137.451C126.257 138.072 126.159 138.627 125.996 139.116C125.801 139.639 125.54 140.063 125.214 140.455C124.855 140.847 124.431 141.141 123.942 141.402C123.42 141.63 122.833 141.794 122.181 141.892V142.185C122.638 142.251 123.062 142.381 123.486 142.61C123.909 142.806 124.301 143.165 124.627 143.622C124.985 144.079 125.279 144.732 125.507 145.581L126.681 149.629H125.148L124.203 145.94C124.04 145.222 123.746 144.634 123.323 144.177C122.899 143.72 122.377 143.361 121.758 143.132C121.138 142.904 120.421 142.773 119.606 142.773H115.823V149.629H114.324V149.597ZM115.791 141.369H119.475C121.268 141.369 122.573 141.043 123.453 140.422C124.333 139.802 124.79 138.855 124.79 137.582C124.79 136.309 124.366 135.362 123.486 134.742C122.605 134.121 121.268 133.827 119.475 133.827H115.791V141.369Z" fill="#F8F6EC"/>
<path d="M128.05 149.597L134.18 132.456H136.332L142.461 149.597H140.896L135.386 133.827H135.125L129.615 149.597H128.05ZM130.626 145.45V144.112H140.049V145.45H130.626Z" fill="#F8F6EC"/>
<path d="M144.711 149.597V132.456H146.765L156.612 147.67H156.775L156.644 132.456H158.079V149.597H156.221L146.243 134.219H146.048L146.178 149.597H144.711Z" fill="#F8F6EC"/>
<path d="M175.49 147.246C174.251 148.617 172.262 149.923 169.132 149.923C164.144 149.923 160.459 146.267 160.459 141.043C160.459 135.819 164.274 132.162 169.132 132.162C172.132 132.162 174.121 133.403 175.36 134.644L174.479 135.656C173.599 134.546 171.61 133.37 169.132 133.37C164.894 133.37 161.927 136.472 161.927 140.977C161.927 145.45 164.926 148.617 169.132 148.617C171.512 148.617 173.371 147.736 174.61 146.332L175.49 147.246Z" fill="#F8F6EC"/>
<path d="M178.164 149.597V132.456H179.631V149.597H178.164ZM178.457 133.86V132.489H189.38V133.86H178.457ZM178.457 141.5V140.129H188.173V141.5H178.457ZM178.457 149.597V148.225H189.38V149.597H178.457Z" fill="#F8F6EC"/>
<path d="M197.172 149.923C196.064 149.923 195.053 149.793 194.205 149.531C193.358 149.27 192.673 148.911 192.119 148.389C191.597 147.899 191.206 147.279 190.978 146.56C190.749 145.842 190.684 145.026 190.782 144.079L192.151 143.981C192.021 144.993 192.151 145.809 192.543 146.495C192.901 147.148 193.488 147.67 194.303 147.997C195.118 148.323 196.064 148.487 197.205 148.487C198.281 148.487 199.227 148.356 199.977 148.095C200.726 147.834 201.313 147.442 201.705 146.952C202.096 146.462 202.291 145.875 202.291 145.189C202.291 144.438 202.063 143.851 201.639 143.459C201.183 143.034 200.629 142.74 199.911 142.512C199.194 142.283 198.444 142.087 197.596 141.924C196.814 141.761 196.031 141.598 195.281 141.369C194.499 141.173 193.814 140.879 193.195 140.553C192.575 140.194 192.086 139.737 191.695 139.182C191.304 138.627 191.141 137.908 191.141 137.027C191.141 136.015 191.401 135.166 191.891 134.448C192.38 133.729 193.064 133.174 193.945 132.783C194.825 132.391 195.803 132.195 196.944 132.195C198.053 132.195 199.096 132.391 200.042 132.75C200.987 133.109 201.737 133.697 202.324 134.448C202.911 135.231 203.204 136.211 203.204 137.386L201.737 137.647C201.737 136.962 201.607 136.374 201.379 135.852C201.15 135.329 200.824 134.905 200.368 134.578C199.944 134.252 199.422 133.991 198.835 133.827C198.248 133.664 197.596 133.566 196.912 133.566C196.097 133.566 195.347 133.697 194.695 133.991C194.042 134.252 193.521 134.644 193.162 135.166C192.771 135.656 192.608 136.276 192.608 136.962C192.608 137.778 192.869 138.398 193.39 138.855C193.912 139.312 194.597 139.639 195.444 139.9C196.292 140.129 197.172 140.357 198.085 140.586C198.835 140.749 199.553 140.912 200.205 141.141C200.889 141.337 201.476 141.63 202.031 141.957C202.552 142.283 202.976 142.74 203.302 143.263C203.628 143.785 203.759 144.471 203.759 145.32C203.759 146.267 203.53 147.083 203.041 147.768C202.552 148.454 201.835 149.009 200.857 149.401C199.846 149.727 198.64 149.923 197.172 149.923Z" fill="#F8F6EC"/>
<path d="M206.595 149.597V132.456H208.063V149.597H206.595ZM206.921 133.86V132.489H217.844V133.86H206.921ZM206.921 141.5V140.129H216.638V141.5H206.921ZM206.921 149.597V148.225H217.844V149.597H206.921Z" fill="#F8F6EC"/>
<path d="M225.604 149.923C224.495 149.923 223.485 149.793 222.637 149.531C221.789 149.27 221.104 148.911 220.55 148.389C220.028 147.899 219.637 147.279 219.409 146.56C219.181 145.842 219.116 145.026 219.213 144.079L220.583 143.981C220.452 144.993 220.583 145.809 220.974 146.495C221.333 147.148 221.92 147.67 222.735 147.997C223.55 148.323 224.495 148.487 225.636 148.487C226.712 148.487 227.658 148.356 228.408 148.095C229.158 147.834 229.745 147.442 230.136 146.952C230.527 146.462 230.723 145.875 230.723 145.189C230.723 144.438 230.495 143.851 230.071 143.459C229.614 143.034 229.06 142.74 228.343 142.512C227.625 142.283 226.875 142.087 226.028 141.924C225.245 141.761 224.463 141.598 223.713 141.369C222.93 141.173 222.246 140.879 221.626 140.553C221.007 140.194 220.518 139.737 220.126 139.182C219.735 138.627 219.572 137.908 219.572 137.027C219.572 136.015 219.833 135.166 220.322 134.448C220.811 133.729 221.496 133.174 222.376 132.783C223.256 132.391 224.234 132.195 225.376 132.195C226.484 132.195 227.528 132.391 228.473 132.75C229.419 133.109 230.169 133.697 230.755 134.448C231.342 135.231 231.636 136.211 231.636 137.386L230.169 137.647C230.169 136.962 230.038 136.374 229.81 135.852C229.582 135.329 229.256 134.905 228.799 134.578C228.375 134.252 227.854 133.991 227.267 133.827C226.68 133.664 226.028 133.566 225.343 133.566C224.528 133.566 223.778 133.697 223.126 133.991C222.474 134.252 221.952 134.644 221.593 135.166C221.202 135.656 221.039 136.276 221.039 136.962C221.039 137.778 221.3 138.398 221.822 138.855C222.343 139.312 223.028 139.639 223.876 139.9C224.724 140.129 225.604 140.357 226.517 140.586C227.267 140.749 227.984 140.912 228.636 141.141C229.321 141.337 229.908 141.63 230.462 141.957C230.984 142.283 231.408 142.74 231.734 143.263C232.06 143.785 232.19 144.471 232.19 145.32C232.19 146.267 231.962 147.083 231.473 147.768C230.984 148.454 230.266 149.009 229.288 149.401C228.277 149.727 227.071 149.923 225.604 149.923Z" fill="#F8F6EC"/>
</svg>
