<svg width="280" height="119" viewBox="0 0 280 119" fill="none" xmlns="http://www.w3.org/2000/svg">
<path d="M94.4527 8.13838C95.1397 7.98745 95.5419 7.9036 96.0613 7.80299C95.9775 6.89744 95.8937 6.0422 95.81 5.10311C96.7483 5.2205 97.7872 4.53295 98.3568 5.82419C98.4071 5.94158 98.8093 5.94158 99.0438 5.94158C106.55 5.94158 114.04 5.94158 121.547 5.92481C121.631 5.92481 121.731 5.85773 121.983 5.77389C121.513 5.00249 121.044 4.26464 120.491 3.37586C122.887 3.1914 121.614 1.58153 121.832 0.441209C122.703 0.491517 123.692 -0.212799 124.312 1.09522C124.395 1.26291 124.948 1.22937 125.283 1.22937C134.683 1.22937 144.083 1.24614 153.484 1.2126C153.919 1.2126 154.321 0.743059 154.79 0.642442C155.494 0.474748 156.231 0.42444 157.053 0.307054C156.969 1.36353 156.902 2.16846 156.835 2.99016C157.321 3.15786 157.706 3.29201 158.225 3.47648C157.723 4.29818 157.287 5.01926 156.751 5.89127C157.404 5.92481 157.874 5.97512 158.326 5.97512C165.246 5.97512 172.149 5.99189 179.07 5.94158C179.623 5.94158 180.142 5.45527 180.712 5.32111C181.382 5.15342 182.086 5.13665 182.706 5.06957C183.342 6.15958 181.734 7.93714 184.23 8.15515C181.851 10.8886 182.974 14.058 182.84 17.0262C182.689 20.1788 182.672 23.365 182.84 26.5177C183.007 29.8045 183.476 33.0913 183.795 36.3613C183.879 37.2501 184.281 37.5687 185.219 37.5519C187.699 37.4849 190.179 37.5352 192.675 37.5184C193.446 37.5184 193.915 37.6693 193.58 38.6587C157.471 38.6587 121.346 38.6587 85.17 38.6587C84.7344 37.77 85.103 37.5184 86.0078 37.5184C88.4877 37.5352 90.9843 37.4681 93.4641 37.5519C94.5198 37.5855 94.8549 37.2166 95.0392 36.2104C95.6927 32.8062 96.1953 29.4188 96.0781 25.9307C95.9608 22.3756 96.1116 18.8205 96.0278 15.2654C95.9608 12.8003 96.7483 10.2178 94.4527 8.13838ZM96.4634 11.7438C96.4634 16.9088 96.4634 21.9061 96.4634 26.9537C98.3736 26.9537 100.2 26.9537 102.177 26.9537C102.177 25.6457 102.177 24.4383 102.177 23.2309C102.177 20.7322 102.646 20.2124 105.176 20.1621C105.981 20.1453 106.802 20.3633 107.606 20.531C108.427 20.6987 108.796 21.2185 108.762 22.1073C108.695 23.4153 108.729 24.7401 108.762 26.0481C108.779 26.3835 108.98 26.7021 109.097 27.0375C109.265 27.004 109.416 26.9872 109.583 26.9537C109.583 25.763 109.583 24.5724 109.583 23.3818C109.583 20.6987 110.17 20.1117 112.901 20.1621C113.621 20.1788 114.342 20.3633 115.046 20.5142C115.934 20.7154 116.286 21.2353 116.235 22.1912C116.152 23.7675 116.219 25.3606 116.219 26.9369C118.229 26.9369 120.022 26.9369 121.849 26.9369C121.849 21.8222 121.849 16.7914 121.849 11.7103C113.337 11.7438 104.959 11.7438 96.4634 11.7438ZM169.536 27.0711C169.703 27.0375 169.854 27.004 170.022 26.9872C170.022 25.7966 170.022 24.5892 170.022 23.3986C170.022 20.7825 170.658 20.1453 173.339 20.1788C174.06 20.1956 174.78 20.3801 175.484 20.531C176.372 20.7322 176.724 21.2856 176.674 22.2247C176.607 23.801 176.657 25.3941 176.657 26.9537C178.684 26.9537 180.46 26.9537 182.27 26.9537C182.27 21.8558 182.27 16.8585 182.27 11.7773C173.792 11.7773 165.397 11.7773 156.918 11.7773C156.918 16.8752 156.918 21.9061 156.918 26.9369C158.829 26.9369 160.655 26.9369 162.582 26.9369C162.582 25.6457 162.582 24.4886 162.582 23.3315C162.582 20.7658 163.068 20.2291 165.682 20.1956C166.536 20.1788 167.441 20.3465 168.229 20.6484C168.631 20.7993 169.05 21.4533 169.1 21.9061C169.217 23.2644 169.117 24.6395 169.167 25.9978C169.167 26.35 169.402 26.7021 169.536 27.0711ZM156.315 26.9872C156.366 26.6518 156.433 26.4674 156.433 26.2829C156.449 20.1956 156.433 14.1083 156.466 8.02099C156.466 6.93098 155.896 6.88067 155.092 6.89744C150.317 6.91421 145.558 6.89744 140.783 6.91421C140.414 6.91421 140.045 6.99805 139.693 7.03159C139.693 13.7394 139.693 20.3465 139.693 26.9537C140.699 26.9537 141.587 26.9537 142.609 26.9537C142.609 23.1638 142.609 19.4745 142.609 15.7852C142.609 13.9406 142.575 12.0792 142.626 10.2346C142.642 9.37931 142.777 8.69177 144.033 9.14454C144.77 9.41285 145.692 9.22839 146.513 9.19485C147.418 9.16131 148.339 9.02716 149.244 9.04393C150.099 9.06069 151.121 9.61409 151.758 9.29547C153.651 8.35638 153.349 9.66439 153.349 10.6538C153.366 15.5672 153.349 20.4974 153.366 25.4109C153.366 25.9307 153.416 26.4338 153.433 26.9872C154.472 26.9872 155.343 26.9872 156.315 26.9872ZM125.35 27.004C125.35 23.5495 125.35 20.2459 125.35 16.9423C125.35 14.6952 125.3 12.4649 125.401 10.2178C125.418 9.78178 126.071 9.01039 126.356 9.04393C127.462 9.17808 128.534 9.14454 129.64 9.01039C130.511 8.893 131.433 9.22839 132.338 9.2787C133.108 9.32901 133.98 9.51347 134.633 9.21162C136.091 8.55761 136.108 9.39608 136.108 10.3855C136.108 14.0412 136.108 17.6969 136.108 21.3527C136.108 23.1973 136.108 25.0252 136.108 26.9369C137.197 26.9369 138.135 26.9369 139.09 26.9369C139.141 26.6351 139.191 26.4506 139.191 26.2661C139.191 20.1788 139.191 14.0915 139.224 8.00422C139.224 7.03159 138.789 6.89744 137.984 6.89744C133.159 6.91421 128.35 6.91421 123.524 6.91421C123.155 6.91421 122.787 6.99805 122.435 7.03159C122.435 13.7561 122.435 20.3465 122.435 27.004C123.407 27.004 124.261 27.004 125.35 27.004ZM127.512 27.0543C127.512 25.696 127.512 24.4886 127.512 23.2812C127.512 20.6987 127.981 20.1788 130.612 20.1621C131.416 20.1621 132.304 20.2627 133.008 20.5981C133.477 20.8161 133.963 21.5204 134.013 22.057C134.147 23.6501 134.064 25.2432 134.064 26.9034C134.7 26.9034 135.186 26.9034 135.622 26.9034C135.622 21.0173 135.622 15.2654 135.622 9.68116C132.304 9.68116 129.154 9.68116 125.903 9.68116C125.903 15.3492 125.903 21.1011 125.903 26.9537C126.356 27.004 126.775 27.0208 127.512 27.0543ZM144.653 26.9704C144.653 25.6792 144.653 24.5221 144.653 23.365C144.653 20.749 145.189 20.1788 147.837 20.1788C148.641 20.1788 149.529 20.2794 150.233 20.6148C150.702 20.8328 151.188 21.5539 151.221 22.0738C151.356 23.7004 151.272 25.3438 151.272 27.0543C151.959 27.004 152.428 26.9872 152.847 26.9537C152.847 21.0508 152.847 15.2822 152.847 9.68116C149.512 9.68116 146.379 9.68116 143.128 9.68116C143.128 15.3492 143.128 21.1011 143.128 26.9201C143.363 26.9537 143.531 27.004 143.715 27.004C143.949 27.0375 144.184 27.004 144.653 26.9704ZM156.567 30.4249C156.717 27.4735 156.717 27.4735 154.053 27.4735C144.067 27.4735 134.097 27.4735 124.111 27.4735C123.541 27.4735 122.971 27.4735 122.334 27.4735C122.217 28.5468 122.117 29.4355 121.999 30.4249C133.645 30.4249 145.106 30.4249 156.567 30.4249ZM121.865 27.6077C113.303 27.6077 104.892 27.6077 96.4969 27.6077C96.4969 28.6306 96.4969 29.5362 96.4969 30.4249C104.925 30.4249 113.219 30.4249 121.647 30.4249C121.714 29.4523 121.781 28.5635 121.865 27.6077ZM182.27 27.5909C173.708 27.5909 165.313 27.5909 156.818 27.5909C156.952 28.6138 157.053 29.5026 157.17 30.3914C165.615 30.3914 173.942 30.3914 182.27 30.3914C182.27 29.402 182.27 28.53 182.27 27.5909ZM144.536 37.401C144.536 35.221 144.536 33.1248 144.536 30.8945C141.269 30.8945 138.118 30.8777 134.952 30.928C134.65 30.928 134.131 31.364 134.114 31.6156C134.047 33.5441 134.08 35.4725 134.08 37.4178C137.7 37.401 141.084 37.401 144.536 37.401ZM102.093 30.8945C100.351 30.8945 98.6585 30.8609 96.9829 30.928C96.7148 30.9448 96.2959 31.4143 96.2289 31.733C95.8435 33.5776 95.5419 35.439 95.19 37.3843C97.5358 37.3843 99.7811 37.3843 102.093 37.3843C102.093 35.221 102.093 33.1584 102.093 30.8945ZM176.774 30.8945C176.774 33.1751 176.774 35.2881 176.774 37.3843C179.07 37.3843 181.231 37.3843 183.56 37.3843C183.208 35.3552 182.907 33.4434 182.505 31.5485C182.454 31.2802 181.985 30.928 181.717 30.928C180.075 30.8609 178.433 30.8945 176.774 30.8945ZM127.495 37.4178C127.495 35.4055 127.529 33.5273 127.445 31.6323C127.428 31.364 126.842 30.9448 126.49 30.9113C125.283 30.8274 124.06 30.8274 122.837 30.8945C122.485 30.9113 121.916 31.2131 121.865 31.4646C121.446 33.3931 121.145 35.3384 120.776 37.3843C123.088 37.4178 125.166 37.4178 127.495 37.4178ZM157.974 37.3843C157.572 35.1875 157.203 33.0913 156.801 30.9616C154.941 30.9616 153.165 30.9616 151.372 30.9616C151.372 33.1584 151.372 35.2713 151.372 37.3843C153.601 37.3843 155.712 37.3843 157.974 37.3843ZM122.468 6.4782C122.77 6.49497 123.005 6.52851 123.239 6.52851C133.896 6.52851 144.569 6.52851 155.226 6.52851C155.477 6.52851 155.746 6.59559 155.947 6.49497C156.148 6.37759 156.399 6.10928 156.399 5.90804C156.399 5.70681 156.164 5.37142 155.963 5.32111C155.595 5.2205 155.193 5.2708 154.807 5.2708C149.01 5.2708 143.212 5.2708 137.431 5.2708C132.807 5.2708 128.182 5.2708 123.558 5.2708C122.787 5.25403 122.083 5.23727 122.468 6.4782ZM162.565 37.4178C162.565 35.3887 162.582 33.4602 162.532 31.5317C162.532 31.3137 162.146 30.928 161.928 30.928C160.404 30.8777 158.879 30.8945 157.203 30.8945C157.639 33.2422 158.008 35.3048 158.393 37.4178C159.784 37.4178 161.04 37.4178 162.565 37.4178ZM120.374 37.401C120.759 35.2545 121.145 33.1416 121.53 30.9951C119.637 30.9951 117.961 30.9951 116.286 30.9951C116.286 33.1919 116.286 35.2545 116.286 37.401C117.609 37.401 118.866 37.401 120.374 37.401ZM96.4969 10.0501C96.1283 11.2743 96.8656 11.2575 97.6363 11.2575C105.277 11.2575 112.934 11.2575 120.575 11.224C121.027 11.224 121.48 10.8383 121.932 10.6203C121.48 10.4022 121.044 10.0166 120.592 10.0166C112.951 9.98301 105.294 9.98301 97.6531 9.99978C97.2845 9.99978 96.8991 10.0333 96.4969 10.0501ZM156.952 10.0669C156.684 10.8718 156.818 11.2743 157.739 11.2743C165.615 11.2575 173.507 11.2575 181.382 11.2743C182.253 11.2743 182.505 10.9389 182.186 10.0669C173.775 10.0669 165.38 10.0669 156.952 10.0669ZM154.589 3.07401C154.589 3.00693 154.606 2.93985 154.606 2.87278C144.469 2.87278 134.332 2.87278 124.194 2.87278C124.194 2.93985 124.194 3.00693 124.194 3.07401C134.315 3.07401 144.452 3.07401 154.589 3.07401ZM95.9943 9.19485C96.011 9.2787 96.011 9.36254 96.0278 9.44639C104.607 9.44639 113.186 9.44639 121.748 9.44639C121.748 9.36254 121.748 9.2787 121.748 9.19485C113.169 9.19485 104.573 9.19485 95.9943 9.19485ZM156.969 9.17808C156.969 9.26193 156.969 9.34577 156.985 9.42962C165.564 9.42962 174.143 9.42962 182.739 9.42962C182.739 9.34577 182.739 9.26193 182.739 9.17808C174.143 9.17808 165.564 9.17808 156.969 9.17808ZM156.969 7.51791C156.969 7.60175 156.969 7.70237 156.969 7.78622C164.877 7.78622 172.786 7.78622 180.678 7.78622C180.678 7.70237 180.678 7.60175 180.678 7.51791C172.786 7.51791 164.877 7.51791 156.969 7.51791ZM98.206 7.50114C98.206 7.58498 98.206 7.6856 98.206 7.76945C106.031 7.76945 113.839 7.76945 121.664 7.76945C121.664 7.6856 121.664 7.58498 121.664 7.50114C113.839 7.50114 106.031 7.50114 98.206 7.50114ZM122.016 4.46587C121.999 4.53295 121.999 4.6168 121.983 4.68387C133.594 4.68387 145.206 4.68387 156.835 4.68387C156.835 4.6168 156.835 4.53295 156.835 4.46587C145.223 4.46587 133.611 4.46587 122.016 4.46587ZM154.372 2.33615C154.355 2.30262 154.338 2.25231 154.338 2.21877C144.335 2.21877 134.348 2.21877 124.345 2.21877C124.345 2.25231 124.345 2.30262 124.345 2.33615C134.348 2.33615 144.352 2.33615 154.372 2.33615ZM180.36 7.01482C180.36 6.96452 180.343 6.93098 180.343 6.88067C172.669 6.88067 164.995 6.88067 157.321 6.88067C157.321 6.93098 157.321 6.96452 157.321 7.01482C165.012 7.01482 172.686 7.01482 180.36 7.01482ZM98.5076 6.8639C98.5244 6.89744 98.5412 6.94775 98.5579 6.98129C106.165 6.98129 113.755 6.98129 121.363 6.98129C121.363 6.94775 121.363 6.89744 121.363 6.8639C113.739 6.8639 106.132 6.8639 98.5076 6.8639ZM169.904 37.6023C169.904 35.2545 169.904 33.1248 169.904 30.9113C168.882 31.582 168.832 36.6129 169.904 37.6023ZM109.449 30.6933C108.427 31.9174 108.511 36.7302 109.449 37.4849C109.449 35.2545 109.449 33.1248 109.449 30.6933ZM97.8039 7.11544C97.4688 6.6459 97.251 6.34405 97.0331 6.0422C96.8153 6.32728 96.4299 6.61236 96.4132 6.91421C96.3964 7.23283 96.7315 7.58498 96.8991 7.9036C97.1672 7.6856 97.4185 7.45083 97.8039 7.11544ZM122.837 1.12876C122.703 1.24614 122.586 1.34676 122.452 1.46414C122.452 2.01754 122.452 2.55416 122.452 3.10755C122.619 3.15786 122.77 3.22493 122.938 3.27524C123.122 2.88955 123.457 2.48708 123.457 2.10138C123.457 1.78276 123.055 1.44737 122.837 1.12876ZM180.645 6.37759C180.796 6.61236 180.93 6.83036 181.08 7.06513C181.315 7.35021 181.55 7.63529 181.767 7.92037C181.968 7.61852 182.304 7.33344 182.304 7.01482C182.304 6.69621 182.052 6.15958 181.818 6.09251C181.466 6.02543 181.03 6.27697 180.645 6.37759ZM156.717 2.18523C156.332 1.78276 156.064 1.53122 155.813 1.27968C155.645 1.61507 155.36 1.95046 155.343 2.28585C155.327 2.57093 155.662 2.85601 155.829 3.14109C156.081 2.87278 156.332 2.60447 156.717 2.18523Z" fill="#9E958F"/>
<path d="M59.3154 79.7775C63.0687 83.5338 65.0626 88.5311 69.9553 91.1639C69.5364 91.231 69.2181 91.3316 68.8829 91.3316C66.7885 91.3484 64.694 91.2813 62.5995 91.3651C61.6109 91.3987 60.9909 91.0633 60.4212 90.2751C58.1927 87.1896 55.9474 84.1375 53.6184 81.1358C53.2665 80.683 52.546 80.3141 51.9763 80.2806C50.3845 80.1632 48.7759 80.247 47.1674 80.247C47.1674 83.2152 47.0166 86.066 47.2679 88.9C47.3349 89.7385 48.5749 90.4596 49.2619 91.231C45.9107 91.231 42.3585 91.231 38.6387 91.231C41.152 89.336 41.152 89.336 41.152 85.9989C41.152 80.0961 41.152 74.21 41.152 68.3072C41.152 64.9868 41.152 64.9868 38.6889 63.0584C38.8733 62.9577 39.0073 62.79 39.1581 62.79C45.6761 62.8571 52.2109 62.7062 58.7122 63.0751C64.3421 63.3937 67.9111 68.9612 66.1517 74.0926C65.2302 76.7757 63.2697 78.4191 60.6558 79.3415C60.3207 79.4253 59.9521 79.5595 59.3154 79.7775ZM47.0333 67.6867C47.0333 70.2524 47.0333 72.8517 47.0333 75.5516C49.7478 75.5516 52.3785 75.5851 54.9924 75.5348C55.8637 75.518 56.7517 75.4174 57.5728 75.1826C59.5332 74.6125 60.5218 73.2039 60.4548 71.3089C60.3877 69.5649 59.2316 67.8879 57.3549 67.7538C53.9367 67.519 50.485 67.6867 47.0333 67.6867Z" fill="#9E958F"/>
<path d="M233.961 73.7069C233.961 71.2586 233.995 68.827 233.945 66.3954C233.911 65.0874 233.358 64.0477 232.034 63.5614C231.8 63.4776 231.599 63.2763 231.029 62.8906C235.017 62.8906 238.586 62.8906 242.155 62.8906C242.138 63.0583 242.155 63.1422 242.138 63.1422C239.675 64.0813 239.725 66.1439 239.742 68.2904C239.792 74.4783 239.792 80.6662 239.742 86.8541C239.725 88.7659 240.027 90.3589 242.138 91.1639C238.586 91.1639 235.051 91.1639 231.498 91.1639C234.514 90.1577 233.961 87.6423 233.978 85.3617C233.995 83.1649 233.978 80.9848 233.978 78.6707C233.459 78.6203 233.04 78.5533 232.621 78.5533C228.147 78.5533 223.657 78.5868 219.183 78.5197C218.01 78.503 217.675 78.8887 217.725 80.029C217.809 82.2258 217.759 84.4226 217.742 86.6026C217.725 88.5478 217.909 90.3589 220.205 91.1639C216.653 91.1639 213.1 91.1639 209.548 91.1639C212.397 90.1577 212.062 87.7932 212.062 85.5797C212.062 80.0793 212.078 74.5621 212.062 69.0618C212.062 66.7141 212.514 64.1483 209.515 62.8906C213.067 62.8906 216.636 62.8906 220.188 62.8906C220.188 63.0248 220.205 63.1086 220.188 63.1086C217.608 64.1316 217.708 66.3619 217.725 68.5587C217.742 70.0176 217.675 71.4933 217.775 72.9355C217.792 73.2877 218.328 73.8914 218.613 73.8914C223.573 73.9417 228.549 73.8914 233.509 73.8746C233.61 73.9081 233.693 73.8243 233.961 73.7069Z" fill="#9E958F"/>
<path d="M251.957 90.8952C254.789 90.4425 254.789 88.4637 254.772 86.4346C254.756 80.582 254.772 74.7463 254.772 68.8937C254.772 65.1709 254.772 65.1709 251.924 62.8232C252.678 62.7897 253.164 62.7394 253.633 62.7394C260.402 62.7394 267.172 62.7561 273.941 62.7226C275.55 62.7058 277.175 62.5046 278.884 62.3872C278.884 64.3492 278.884 66.5293 278.884 68.9105C278.499 68.726 278.281 68.6087 278.046 68.508C277.175 68.1559 276.304 67.5187 275.432 67.5019C270.757 67.4013 266.082 67.4516 261.408 67.4683C261.173 67.4683 260.938 67.5354 260.62 67.5857C260.62 69.6484 260.62 71.6775 260.62 73.891C264.926 73.891 269.233 73.891 273.656 73.891C273.656 75.5009 273.656 76.9263 273.656 78.5362C269.333 78.5362 265.044 78.5362 260.637 78.5362C260.637 81.3199 260.637 83.9191 260.637 86.7364C261.173 86.7364 261.692 86.7364 262.212 86.7364C266.2 86.7364 270.204 86.7532 274.192 86.7364C276.153 86.7364 278.247 87.1892 279.856 85.2942C279.856 87.5246 279.856 89.7549 279.856 91.6834C277.393 91.5828 274.963 91.3983 272.517 91.3815C266.284 91.3312 260.05 91.3648 253.817 91.3648C253.298 91.3648 252.778 91.3648 252.276 91.3648C252.158 91.1971 252.058 91.0462 251.957 90.8952Z" fill="#9E958F"/>
<path d="M86.7112 62.874C90.2467 62.874 93.7822 62.874 97.7533 62.874C96.0609 63.7628 96.5804 64.7019 97.0495 65.6913C100.518 72.986 103.953 80.2807 107.388 87.5754C108.041 88.984 108.611 90.4597 110.287 91.164C106.734 91.164 103.182 91.164 99.6299 91.164C99.6467 91.0467 99.6299 90.9125 99.6802 90.8957C101.892 90.074 101.892 89.7051 101.104 87.4748C100.149 84.7749 98.6916 83.601 95.6756 83.97C92.7936 84.3054 89.8445 84.1544 86.929 84.0035C85.287 83.9197 84.3654 84.4227 83.9297 85.9655C83.7957 86.4351 83.5443 86.8543 83.3265 87.2903C82.1871 89.638 82.2877 89.9566 84.9518 91.1976C81.0812 91.1976 77.5793 91.1976 74.0605 91.1976C76.3561 90.1914 76.8085 87.8772 77.7636 85.9488C80.8802 79.6267 83.9297 73.2711 86.996 66.9322C87.6495 65.5571 88.7554 64.1653 86.7112 62.874ZM97.1501 79.3081C95.441 75.7697 93.8324 72.4494 92.1233 68.8943C90.3975 72.5164 88.7889 75.8536 87.1301 79.3081C90.565 79.3081 93.7151 79.3081 97.1501 79.3081Z" fill="#9E958F"/>
<path d="M116.42 62.9408C116.705 62.8402 116.839 62.7563 116.956 62.7563C122.938 62.8234 128.92 62.7228 134.902 63.0079C140.079 63.2594 143.397 66.8481 143.38 71.6106C143.363 76.0042 140.163 79.509 135.555 79.8779C132.271 80.1462 128.953 80.0792 125.652 80.1462C125.418 80.1462 125.183 80.1965 124.915 80.2301C124.915 83.0641 124.748 85.8814 125.016 88.6483C125.099 89.5707 126.339 90.3924 127.01 91.2308C123.692 91.2308 120.156 91.2308 116.621 91.2308C116.621 91.0631 116.604 90.9122 116.621 90.8954C118.598 90.275 119 88.816 118.967 86.9211C118.883 80.9344 118.933 74.9477 118.933 68.9443C118.933 65.2885 118.933 65.2885 116.42 62.9408ZM124.781 75.2496C127.948 75.2496 130.964 75.4173 133.947 75.1993C136.142 75.0316 137.314 73.4049 137.281 71.3088C137.247 69.2293 135.991 67.7536 133.745 67.6027C130.897 67.4182 128.015 67.5189 125.15 67.5021C125.032 67.5021 124.915 67.6363 124.781 67.7033C124.781 70.2523 124.781 72.7677 124.781 75.2496Z" fill="#9E958F"/>
<path d="M198.841 62.5886C198.841 65.3388 198.841 67.8374 198.841 70.5708C198.422 70.3193 198.087 70.1684 197.836 69.9504C193.496 66.3449 186.693 65.5568 181.8 68.2231C178.248 70.1348 176.321 73.1533 176.371 77.2283C176.422 81.2026 178.365 84.1205 181.901 85.831C186.71 88.162 191.602 87.9104 196.411 85.7472C197.467 85.2608 198.338 84.3385 199.444 83.5C199.444 86.1329 199.444 88.6818 199.444 91.4991C197.635 90.0401 195.942 91.0128 194.25 91.4488C190.061 92.5388 185.872 92.4885 181.717 91.3146C175.266 89.4867 170.54 83.8857 170.323 77.8488C170.088 71.2751 173.975 65.7077 180.527 63.2258C184.867 61.5824 189.273 61.616 193.697 62.8569C195.373 63.3264 197.065 63.8966 198.841 62.5886Z" fill="#9E958F"/>
<path d="M30.1437 62.4209C30.1437 64.3829 30.1437 66.5462 30.1437 68.961C29.7248 68.7094 29.4903 68.5585 29.2222 68.4244C28.6357 68.1225 28.0493 67.6026 27.446 67.5859C24.3462 67.502 21.2464 67.5523 18.046 67.5523C18.0125 68.0387 17.9622 68.4579 17.9622 68.8771C17.9622 74.8638 17.979 80.8505 17.9455 86.854C17.9287 88.7489 18.2303 90.3755 20.3248 91.1972C16.7726 91.1972 13.2371 91.1972 9.68487 91.1972C9.70162 91.1134 9.68487 90.9457 9.71838 90.9457C11.7961 90.3588 12.2318 88.8495 12.215 86.9043C12.1647 80.9176 12.1982 74.9309 12.1982 68.9274C12.1982 68.4914 12.1647 68.0722 12.1312 67.5859C8.86383 67.5859 5.66347 67.502 2.46311 67.6362C1.67558 67.6697 0.904815 68.4244 0 68.9274C0 66.5797 0 64.3829 0 62.5215C1.94368 62.5886 3.83708 62.7227 5.73049 62.7395C12.3993 62.7731 19.0681 62.7731 25.737 62.7395C27.1612 62.706 28.5687 62.5383 30.1437 62.4209Z" fill="#9E958F"/>
<path d="M151.205 62.8403C154.757 62.8403 158.309 62.8403 161.878 62.8403C161.878 63.0248 161.895 63.1757 161.878 63.1925C159.683 63.9807 159.399 65.7079 159.415 67.7538C159.482 74.0926 159.449 80.4147 159.432 86.7535C159.432 88.682 159.633 90.426 161.895 91.1639C158.343 91.1639 154.774 91.1639 150.903 91.1639C151.356 90.8788 151.557 90.7111 151.775 90.6273C153.115 90.141 153.618 89.1516 153.618 87.7932C153.618 80.683 153.601 73.5728 153.635 66.4458C153.651 64.6514 152.562 63.7626 150.954 63.2093C151.071 63.1086 151.138 62.9745 151.205 62.8403Z" fill="#9E958F"/>
<path d="M112.164 113.568C110.438 113.568 108.863 113.568 107.221 113.568C107.221 112.863 107.221 112.293 107.221 111.673C109.801 111.673 112.315 111.673 114.794 111.673C115.163 113.92 114.091 116.167 111.929 117.324C109.181 118.8 106.316 118.8 103.518 117.408C101.373 116.351 100.25 114.524 100.234 112.126C100.217 109.728 101.373 107.95 103.451 106.776C106.902 104.814 111.594 105.636 113.957 108.738C113.37 109.074 112.8 109.392 112.18 109.744C110.388 108 108.31 107.346 105.88 107.984C103.702 108.554 102.378 110.197 102.445 112.276C102.512 114.255 103.953 115.765 106.098 116.217C108.377 116.687 111.46 116.066 112.164 113.568Z" fill="#9E958F"/>
<path d="M83.293 106.239C86.6274 106.239 89.8612 106.156 93.1119 106.273C94.5361 106.323 95.4577 107.346 95.7761 108.788C96.1279 110.365 95.9269 111.79 94.5529 112.847C94.2178 113.115 93.7989 113.266 93.2794 113.568C94.1675 114.993 95.0556 116.419 95.9604 117.861C94.4356 118.313 93.3297 118.062 92.7265 116.62C91.6374 114.037 89.7272 113.031 86.9793 113.551C86.5101 113.635 86.0074 113.568 85.3372 113.568C85.3372 115.027 85.3372 116.402 85.3372 117.911C84.5497 117.911 83.9632 117.911 83.293 117.911C83.293 114.02 83.293 110.164 83.293 106.239ZM85.3372 111.572C87.5992 111.572 89.6769 111.572 91.7714 111.572C92.8438 111.572 93.7318 111.287 93.7821 109.996C93.8324 108.688 93.0449 108.151 91.872 108.118C89.9283 108.084 87.9846 108.101 86.0409 108.118C85.7896 108.118 85.5382 108.285 85.3539 108.369C85.3372 109.459 85.3372 110.415 85.3372 111.572Z" fill="#9E958F"/>
<path d="M184.817 109.191C184.817 112.058 184.817 114.909 184.817 117.911C184.08 117.911 183.443 117.911 182.723 117.911C182.723 114.02 182.723 110.197 182.723 106.323C184.164 105.971 185.32 106.038 186.359 107.313C188.336 109.711 190.497 111.958 192.558 114.289C192.843 114.607 193.027 114.993 193.262 115.345C193.396 115.261 193.547 115.177 193.681 115.094C193.681 112.159 193.681 109.224 193.681 106.239C194.418 106.239 194.971 106.239 195.625 106.239C195.625 110.18 195.625 114.037 195.625 117.911C194.167 118.313 193.095 118.045 192.106 116.854C189.861 114.188 187.465 111.656 185.135 109.073C185.035 109.107 184.918 109.14 184.817 109.191Z" fill="#9E958F"/>
<path d="M140.414 108.721C140.414 112.042 140.414 114.926 140.414 117.777C138.353 118.313 138.219 118.213 138.202 116.368C138.202 113.014 138.202 109.677 138.202 106.323C139.777 105.938 140.9 106.088 141.939 107.346C144.184 110.029 146.597 112.561 149.177 115.429C149.177 112.193 149.177 109.275 149.177 106.239C149.914 106.239 150.467 106.239 151.154 106.239C151.154 110.08 151.154 113.937 151.154 117.894C149.831 118.23 148.742 118.095 147.736 116.888C145.508 114.222 143.095 111.689 140.414 108.721Z" fill="#9E958F"/>
<path d="M122.921 108.034C122.921 109.124 122.921 109.896 122.921 110.868C125.082 110.868 127.194 110.868 129.372 110.868C129.372 111.623 129.372 112.176 129.372 112.881C127.21 112.881 125.133 112.881 122.971 112.881C122.971 113.987 122.971 114.926 122.971 116.067C126.239 116.067 129.472 116.067 132.79 116.067C132.79 116.771 132.79 117.291 132.79 118.046C131.969 118.046 131.165 118.046 130.361 118.046C127.579 118.046 124.814 118.046 122.033 118.046C121.363 118.046 120.793 118.046 120.793 117.09C120.826 113.535 120.81 109.979 120.81 106.273C124.664 106.273 128.417 106.273 132.321 106.273C132.354 106.793 132.371 107.296 132.405 108.034C129.221 108.034 126.138 108.034 122.921 108.034Z" fill="#9E958F"/>
<path d="M200.601 117.744C201.874 115.245 203.147 112.746 204.421 110.248C204.89 109.342 205.359 108.437 205.812 107.514C206.197 106.709 206.566 106.055 207.705 106.072C208.811 106.089 209.33 106.508 209.783 107.447C211.308 110.533 212.916 113.602 214.474 116.67C214.659 117.039 214.826 117.442 214.994 117.844C213.519 118.347 212.531 118.029 212.095 116.536C211.81 115.58 211.157 115.329 210.202 115.396C209.096 115.463 207.956 115.48 206.851 115.396C205.091 115.245 203.65 115.379 202.946 117.425C202.796 117.878 201.623 117.978 200.919 118.247C200.818 118.079 200.718 117.911 200.601 117.744ZM205.208 113.283C207.068 113.283 208.66 113.283 210.419 113.283C209.531 111.539 208.727 109.979 207.806 108.185C206.901 109.979 206.096 111.556 205.208 113.283Z" fill="#9E958F"/>
<path d="M78.1159 117.878C76.6749 118.331 75.6528 118.045 75.2339 116.536C74.9658 115.58 74.2955 115.329 73.3405 115.379C71.7319 115.463 70.1233 115.446 68.5148 115.379C67.5597 115.346 66.8727 115.547 66.6214 116.519C66.2025 118.062 65.1469 118.247 63.6221 117.878C65.0463 115.061 66.4538 112.31 67.8445 109.56C68.1964 108.873 68.5818 108.185 68.9002 107.481C69.2855 106.659 69.6709 106.055 70.8103 106.072C71.9162 106.089 72.4356 106.525 72.888 107.447C74.4296 110.583 76.0549 113.685 77.6467 116.805C77.8478 117.173 77.9651 117.526 78.1159 117.878ZM70.9444 108.185C69.9893 110.063 69.185 111.623 68.3137 113.333C70.1401 113.333 71.7319 113.333 73.5583 113.333C72.6702 111.623 71.8994 110.097 70.9444 108.185Z" fill="#9E958F"/>
<path d="M168.765 106.24C168.765 106.877 168.765 107.363 168.765 108.101C167.844 108.101 166.939 108.101 166.034 108.101C163.37 108.101 163.37 108.101 163.37 110.835C163.37 113.166 163.37 115.496 163.37 117.928C162.616 117.928 162.013 117.928 161.275 117.928C161.275 114.708 161.275 111.522 161.275 108.151C159.466 108.151 157.79 108.151 155.98 108.151C155.98 107.43 155.98 106.894 155.98 106.24C160.236 106.24 164.442 106.24 168.765 106.24Z" fill="#9E958F"/>
<path d="M175.97 117.944C175.266 117.944 174.663 117.944 173.959 117.944C173.959 114.004 173.959 110.147 173.959 106.223C174.663 106.223 175.266 106.223 175.97 106.223C175.97 110.163 175.97 114.02 175.97 117.944Z" fill="#9E958F"/>
<path d="M95.0391 49.4915C95.0391 47.7475 95.0391 46.1712 95.0391 44.2427C96.5303 44.3601 98.0216 44.3098 99.4291 44.6451C100.636 44.9302 101.155 46.037 100.971 47.2779C100.786 48.4686 100.133 49.3909 98.8259 49.4915C97.6195 49.5586 96.413 49.4915 95.0391 49.4915ZM96.2455 48.3176C97.4351 48.3009 98.7086 48.9046 99.4794 47.6469C99.7139 47.2779 99.5799 46.1879 99.3286 46.1041C98.3735 45.7184 97.3346 45.601 96.2287 45.3495C96.2455 46.6072 96.2455 47.4121 96.2455 48.3176Z" fill="#9E958F"/>
<path d="M126.607 44.4273C127.981 44.4273 129.205 44.3099 130.394 44.4608C131.869 44.6453 132.656 45.7353 132.556 47.0769C132.455 48.519 131.483 49.4581 130.009 49.5084C128.903 49.542 127.797 49.5084 126.607 49.5084C126.607 47.7476 126.607 46.121 126.607 44.4273ZM127.579 48.4184C129.037 48.2172 130.411 48.9886 131.131 47.5296C131.333 47.1272 131.115 46.1042 130.863 46.0036C129.992 45.7018 128.819 45.3161 128.182 45.685C127.663 45.9701 127.78 47.3284 127.579 48.4184Z" fill="#9E958F"/>
<path d="M107.287 46.3055C107.957 46.3055 108.628 46.2552 109.298 46.3223C109.549 46.3559 109.767 46.6409 110.002 46.8086C109.75 47.0099 109.532 47.3452 109.248 47.3956C108.778 47.4962 108.276 47.3788 107.807 47.4459C107.589 47.4794 107.421 47.7477 107.22 47.8986C107.421 48.0496 107.606 48.3346 107.823 48.3514C108.695 48.4017 109.583 48.3179 110.437 48.4185C110.772 48.452 111.074 48.8377 111.376 49.0557C111.292 49.1731 111.225 49.3073 111.141 49.4247C109.499 49.4247 107.857 49.4247 106.114 49.4247C106.114 47.7813 106.114 46.1546 106.114 44.2932C107.555 44.2932 109.047 44.2764 110.521 44.3268C110.739 44.3268 110.94 44.7124 111.141 44.9137C110.906 45.0981 110.705 45.4168 110.454 45.4503C109.734 45.5174 108.996 45.4503 108.276 45.5006C107.907 45.5174 107.538 45.6515 107.187 45.7354C107.22 45.9366 107.254 46.1211 107.287 46.3055Z" fill="#9E958F"/>
<path d="M121.262 45.4338C120.005 45.4338 118.732 45.4338 117.475 45.4338C117.459 45.6183 117.459 45.8027 117.442 45.9872C118.229 46.0878 119.034 46.1717 119.804 46.3058C120.692 46.4567 121.564 46.6747 121.564 47.8486C121.58 48.9554 120.86 49.3411 119.922 49.5423C118.481 49.8442 117.157 49.5926 115.951 48.838C115.934 48.6703 115.934 48.5026 115.917 48.3349C116.336 48.2846 116.772 48.1337 117.157 48.2175C118.229 48.4858 119.268 48.9554 120.458 47.7648C119.905 47.6138 119.536 47.4797 119.168 47.4126C118.548 47.312 117.861 47.3958 117.308 47.1611C116.805 46.9431 116.085 46.3729 116.118 46.004C116.152 45.4673 116.671 44.7295 117.174 44.5283C118.514 43.9749 119.905 44.0923 121.178 44.8972C121.212 45.0649 121.229 45.2493 121.262 45.4338Z" fill="#9E958F"/>
<path d="M137.633 49.3574C137.633 47.714 137.633 46.1209 137.633 44.3098C139.141 44.3098 140.632 44.293 142.107 44.3433C142.324 44.3433 142.526 44.729 142.727 44.947C142.492 45.1315 142.274 45.4501 142.04 45.4669C141.369 45.5507 140.682 45.4669 140.012 45.5172C139.593 45.5507 139.191 45.6681 138.789 45.752C138.806 45.9029 138.806 46.0538 138.822 46.2048C139.509 46.2383 140.196 46.2215 140.867 46.3221C141.118 46.3557 141.336 46.6408 141.587 46.7917C141.353 46.9929 141.135 47.3283 140.85 47.3954C140.381 47.496 139.878 47.3786 139.409 47.4457C139.191 47.4792 139.007 47.7308 138.806 47.8985C139.007 48.0662 139.191 48.3512 139.392 48.368C140.213 48.4183 141.051 48.3512 141.855 48.4183C142.241 48.4519 142.626 48.7034 143.011 48.8711C142.961 49.0388 142.928 49.2065 142.877 49.3574C141.152 49.3574 139.476 49.3574 137.633 49.3574Z" fill="#9E958F"/>
<path d="M172.116 49.928C171.195 49.4752 170.374 49.1231 169.636 48.6535C169.452 48.5361 169.402 48.0163 169.452 47.7144C169.67 46.658 169.77 45.4841 170.306 44.6121C170.843 43.7401 173.323 43.891 174.06 44.6289C174.278 44.8636 174.596 45.3667 174.512 45.4841C173.658 46.6076 175.451 47.6977 174.629 48.6032C174.093 49.2404 173.054 49.4584 172.116 49.928ZM170.374 47.9157C171.68 48.8212 172.703 48.8044 173.976 47.8821C172.703 47.0436 171.664 46.9766 170.374 47.9157ZM170.759 45.3164C171.848 46.5573 172.585 46.5406 173.44 45.3164C172.535 45.3164 171.731 45.3164 170.759 45.3164Z" fill="#9E958F"/>
<path d="M162.515 49.8776C161.627 49.4919 160.823 49.2068 160.102 48.7876C159.868 48.6535 159.751 48.0665 159.818 47.7479C160.086 46.6244 160.186 45.2493 160.907 44.5114C161.744 43.6394 163.169 43.8742 164.291 44.5449C164.576 44.7126 164.861 45.1486 164.895 45.484C164.995 46.5741 165.28 47.7814 164.895 48.7038C164.66 49.3075 163.403 49.4752 162.515 49.8776ZM164.392 47.8821C162.968 47.0268 161.946 47.0436 160.689 47.8821C161.996 48.8212 163.035 48.7708 164.392 47.8821ZM164.09 45.3499C162.917 45.3499 162.113 45.3499 160.923 45.3499C162.13 46.5237 162.934 46.5237 164.09 45.3499Z" fill="#9E958F"/>
<path d="M182.706 45.2826C181.516 45.2826 180.343 45.2826 179.153 45.2826C180.896 43.8236 182.773 43.7398 183.577 44.7627C184.063 45.3832 184.113 48.6029 183.644 49.0389C182.639 49.978 180.159 49.7265 178.835 48.1502C179.254 48.1502 179.706 48.016 180.058 48.1669C181.08 48.6197 182.019 48.9383 183.158 47.7477C182.253 47.4458 181.516 47.2111 180.309 46.8086C181.365 46.3894 182.069 46.1043 182.773 45.8192C182.756 45.6515 182.722 45.467 182.706 45.2826Z" fill="#9E958F"/>
<path d="M155.176 43.9746C155.176 45.8192 155.193 47.362 155.159 48.888C155.159 49.0893 154.858 49.2905 154.707 49.4917C154.523 49.2737 154.188 49.0725 154.154 48.8545C154.07 48.1334 154.137 47.4123 154.104 46.6913C154.087 46.3559 154.054 46.0205 153.953 45.7186C153.819 45.3497 153.618 45.0143 153.434 44.6622C153.936 44.4442 154.439 44.2597 155.176 43.9746Z" fill="#9E958F"/>
<path d="M112.431 17.848C111.828 17.848 111.392 17.848 110.756 17.848C110.756 16.8251 110.672 15.8357 110.789 14.8463C110.823 14.5109 111.359 14.2258 111.66 13.9072C111.912 14.2426 112.364 14.578 112.398 14.9469C112.515 15.8525 112.431 16.7748 112.431 17.848ZM111.308 14.2762C111.308 15.5003 111.308 16.4729 111.308 17.4959C112.347 16.909 112.414 15.3997 111.308 14.2762Z" fill="#9E958F"/>
<path d="M110.002 17.8143C109.365 17.8143 108.913 17.8143 108.327 17.8143C108.327 16.7578 108.26 15.7348 108.36 14.7454C108.394 14.4436 108.88 13.9573 109.148 13.9741C109.449 13.9908 109.935 14.4436 109.952 14.7454C110.069 15.7516 110.002 16.7578 110.002 17.8143ZM108.812 14.3933C108.812 15.4162 108.812 16.3721 108.846 17.3279C108.846 17.3447 109.265 17.3447 109.483 17.3615C109.432 16.4224 109.382 15.4665 109.332 14.5274C109.315 14.5107 109.231 14.4939 108.812 14.3933Z" fill="#9E958F"/>
<path d="M107.539 17.8311C106.936 17.8311 106.517 17.8311 105.913 17.8311C105.913 16.7746 105.846 15.7685 105.947 14.7791C105.981 14.4604 106.45 14.2089 106.718 13.9238C106.986 14.2089 107.455 14.4772 107.489 14.7791C107.606 15.7182 107.539 16.7076 107.539 17.8311ZM107.153 14.4772C106.869 14.4772 106.584 14.494 106.299 14.494C106.299 15.366 106.282 16.238 106.316 17.11C106.316 17.2274 106.584 17.4622 106.667 17.4454C106.852 17.3951 107.137 17.2106 107.137 17.0765C107.187 16.2045 107.153 15.3492 107.153 14.4772Z" fill="#9E958F"/>
<path d="M167.977 17.8983C167.323 17.8648 166.871 17.848 166.301 17.8145C166.301 16.758 166.217 15.7854 166.352 14.8463C166.402 14.4942 166.921 14.2258 167.223 13.9072C167.474 14.2426 167.91 14.578 167.943 14.9469C168.044 15.8525 167.977 16.7748 167.977 17.8983ZM167.374 14.4942C167.223 14.4942 167.055 14.5109 166.904 14.5109C166.904 15.4836 166.904 16.4729 166.904 17.4456C167.055 17.4456 167.223 17.4456 167.374 17.4623C167.374 16.4562 167.374 15.4836 167.374 14.4942Z" fill="#9E958F"/>
<path d="M170.491 17.8145C169.888 17.8145 169.419 17.8145 168.765 17.8145C168.765 16.8083 168.698 15.8022 168.799 14.796C168.832 14.4774 169.284 14.2091 169.553 13.9072C169.854 14.2091 170.39 14.4942 170.441 14.8463C170.575 15.8022 170.491 16.7748 170.491 17.8145ZM170.022 14.4942C169.737 14.4774 169.435 14.4606 169.15 14.4438C169.15 15.3494 169.134 16.2717 169.167 17.1773C169.167 17.2779 169.452 17.4288 169.603 17.4288C169.754 17.412 169.988 17.2276 170.005 17.1102C170.038 16.2549 170.022 15.3829 170.022 14.4942Z" fill="#9E958F"/>
<path d="M172.903 17.8143C172.25 17.8143 171.797 17.8143 171.194 17.8143C171.194 16.8249 171.11 15.9026 171.228 15.0138C171.278 14.6114 171.78 14.2928 172.082 13.9238C172.35 14.2592 172.819 14.5778 172.87 14.9468C172.97 15.8523 172.903 16.7746 172.903 17.8143ZM172.233 14.4604C172.099 14.4604 171.965 14.4772 171.831 14.4772C171.831 15.4666 171.831 16.456 171.831 17.4454C171.965 17.4454 172.099 17.4286 172.233 17.4286C172.233 16.456 172.233 15.4666 172.233 14.4604Z" fill="#9E958F"/>
<path d="M132.84 17.8479C132.203 17.8479 131.785 17.8479 131.148 17.8479C131.148 16.8249 131.081 15.8188 131.181 14.8294C131.215 14.5108 131.667 14.2257 131.919 13.9238C132.22 14.2257 132.756 14.5108 132.807 14.8461C132.924 15.7852 132.84 16.7579 132.84 17.8479ZM132.438 14.494C132.153 14.4772 131.868 14.4772 131.584 14.4604C131.55 15.3492 131.5 16.238 131.5 17.1268C131.5 17.2442 131.785 17.4454 131.902 17.4286C132.103 17.3951 132.421 17.2106 132.421 17.0933C132.472 16.2212 132.438 15.366 132.438 14.494Z" fill="#9E958F"/>
<path d="M130.31 17.8145C129.69 17.8145 129.288 17.8145 128.718 17.8145C128.718 16.7413 128.651 15.7351 128.752 14.7457C128.785 14.4438 129.271 14.1755 129.539 13.9072C129.791 14.1923 130.243 14.4774 130.276 14.7792C130.377 15.7351 130.31 16.7077 130.31 17.8145ZM129.941 14.4438C129.673 14.4438 129.388 14.4438 129.12 14.4606C129.12 15.3662 129.104 16.2885 129.154 17.194C129.154 17.2276 129.673 17.2443 129.941 17.2779C129.941 16.3388 129.941 15.3829 129.941 14.4438Z" fill="#9E958F"/>
<path d="M150.082 17.8479C149.479 17.8479 149.044 17.8479 148.39 17.8479C148.39 16.8417 148.323 15.8355 148.424 14.8629C148.457 14.5275 148.876 14.2424 149.127 13.9238C149.446 14.2257 149.999 14.494 150.049 14.8126C150.166 15.7685 150.082 16.7411 150.082 17.8479ZM149.663 14.4772C149.345 14.4772 149.027 14.4772 148.708 14.4604C148.708 15.3325 148.692 16.1877 148.725 17.0597C148.725 17.1939 149.027 17.3951 149.211 17.4286C149.328 17.4622 149.63 17.2609 149.63 17.1436C149.68 16.2715 149.663 15.366 149.663 14.4772Z" fill="#9E958F"/>
<path d="M147.552 17.8983C146.898 17.8648 146.496 17.8313 145.943 17.7977C145.943 16.758 145.859 15.7854 145.977 14.8463C146.027 14.5109 146.53 14.2258 146.814 13.9072C147.049 14.2091 147.468 14.4942 147.501 14.8295C147.619 15.7854 147.552 16.758 147.552 17.8983ZM147.233 14.4774C146.932 14.4774 146.63 14.4774 146.328 14.4774C146.328 15.3494 146.312 16.2214 146.345 17.0766C146.345 17.194 146.597 17.4288 146.697 17.412C146.881 17.3785 147.2 17.194 147.2 17.0766C147.267 16.2214 147.233 15.3494 147.233 14.4774Z" fill="#9E958F"/>
</svg>
