<svg width="20" height="36" viewBox="0 0 20 36" fill="none" xmlns="http://www.w3.org/2000/svg">
<path d="M19.9995 0.343293C19.8276 8.84552 13.1124 15.9746 5.18255 18C5.17109 18 5.17109 18.0114 5.18255 18.0114C13.0895 20.0254 19.7818 27.1087 19.9995 35.5766C20.011 35.8055 19.8162 36 19.587 36L18.5442 36C18.2577 36 18.0285 35.7711 18.017 35.4851C17.742 26.1246 10.0413 18.5836 0.610259 18.5722C0.312314 18.5722 0.0372898 18.3547 0.00291173 18.0572C-0.0314663 17.7139 0.243558 17.4278 0.575879 17.4278C10.0986 17.4278 17.8681 9.77241 18.0285 0.297521C18.0285 0.137317 18.166 -8.01659e-08 18.3265 -7.31532e-08L19.6672 -1.45473e-08C19.8505 -6.5328e-09 19.9995 0.14876 19.9995 0.343293Z" fill="#BE9065"/>
</svg>
