<svg width="60" height="57" viewBox="0 0 60 57" fill="none" xmlns="http://www.w3.org/2000/svg">
<path d="M29.5292 56.5968C21.6559 56.5968 14.2546 53.6732 8.68671 48.354C3.11884 43.0348 0.0585327 35.9639 0.0585327 28.4423C0.0585327 20.9207 3.11884 13.837 8.68671 8.51782C14.2546 3.1986 21.6559 0.274963 29.5292 0.274963C37.4024 0.274963 44.8172 3.1986 50.3851 8.51782C55.953 13.837 59.0133 20.9079 59.0133 28.4295C59.0133 35.9511 55.953 43.0219 50.3851 48.3411C44.8172 53.6603 37.4159 56.5968 29.5292 56.5968ZM29.5292 2.07809C14.322 2.07809 1.94595 13.9014 1.94595 28.4423C1.94595 42.9704 14.322 54.7937 29.5292 54.7937C44.7363 54.7937 57.1259 42.9704 57.1259 28.4423C57.1259 13.9014 44.7498 2.07809 29.5292 2.07809Z" fill="#BE9065"/>
<path d="M20.7528 48.3153C20.955 38.7459 28.8552 30.722 38.1844 28.4423C38.1979 28.4423 38.1979 28.4294 38.1844 28.4294C28.8821 26.1498 21.0089 18.1774 20.7528 8.65946C20.7393 8.40187 20.9685 8.18292 21.2381 8.18292H22.4649C22.802 8.18292 23.0716 8.44051 23.0851 8.7625C23.4086 19.2979 32.4682 27.7855 43.5635 27.7983C43.914 27.7983 44.2376 28.043 44.278 28.3779C44.3185 28.7643 43.9949 29.0863 43.604 29.0863C32.4008 29.0863 23.2603 37.7026 23.0716 48.3668C23.0716 48.5471 22.9098 48.7017 22.7211 48.7017H21.1437C20.928 48.7017 20.7528 48.5214 20.7528 48.3153Z" fill="#BE9065"/>
</svg>
