<svg width="33" height="32" viewBox="0 0 33 32" fill="none" xmlns="http://www.w3.org/2000/svg">
<path d="M26.5 29.333C27.6046 29.333 28.5 28.4376 28.5 27.333C28.5 26.2284 27.6046 25.333 26.5 25.333C25.3954 25.333 24.5 26.2284 24.5 27.333C24.5 28.4376 25.3954 29.333 26.5 29.333Z" fill="#F8F6EC" stroke="#F8F6EC" stroke-width="1.5" stroke-linecap="round" stroke-linejoin="round"/>
<path d="M13.166 29.333C14.2706 29.333 15.166 28.4376 15.166 27.333C15.166 26.2284 14.2706 25.333 13.166 25.333C12.0614 25.333 11.166 26.2284 11.166 27.333C11.166 28.4376 12.0614 29.333 13.166 29.333Z" fill="#F8F6EC" stroke="#F8F6EC" stroke-width="1.5" stroke-linecap="round" stroke-linejoin="round"/>
<path d="M22.4993 5.33301H29.8327L27.166 19.9997H21.166M22.4993 5.33301L21.166 19.9997M22.4993 5.33301H14.8327M21.166 19.9997H15.8327M14.8327 5.33301H7.16602L9.83268 19.9997H15.8327M14.8327 5.33301L15.8327 19.9997" stroke="#F8F6EC" stroke-width="1.5" stroke-linecap="round" stroke-linejoin="round"/>
<path d="M7.16602 5.33317C6.94379 4.44428 5.83268 2.6665 3.16602 2.6665" stroke="#F8F6EC" stroke-width="1.5" stroke-linecap="round" stroke-linejoin="round"/>
<path d="M27.1654 20H9.83203H7.47306C5.09398 20 3.83203 21.0417 3.83203 22.6667C3.83203 24.2917 5.09398 25.3333 7.47306 25.3333H26.4987" stroke="#F8F6EC" stroke-width="1.5" stroke-linecap="round" stroke-linejoin="round"/>
</svg>
