<svg width="50" height="50" viewBox="0 0 50 50" fill="#ffffff" xmlns="http://www.w3.org/2000/svg">
<path d="M25.3093 4.26829C30.7652 4.26829 35.8941 6.38898 39.7524 10.2473C43.6108 14.1057 45.7314 19.2346 45.7314 24.6904C45.7314 30.1463 43.6108 35.2846 39.7524 39.1429C35.8941 43.0013 30.7652 45.1219 25.3093 45.1219C19.8534 45.1219 14.7152 43.0013 10.8568 39.1429C6.99848 35.2846 4.87779 30.1557 4.87779 24.6998C4.87779 19.2439 6.99848 14.115 10.8568 10.2567C14.7152 6.39832 19.8441 4.26829 25.3093 4.26829ZM25.3093 43.814C35.8473 43.814 44.4235 35.2378 44.4235 24.6904C44.4235 14.1524 35.8473 5.5762 25.3093 5.5762C14.7712 5.5762 6.1857 14.1524 6.1857 24.6904C6.1857 35.2378 14.7619 43.814 25.3093 43.814Z" fill="#3A4A09"/>
<path d="M31.3912 10.2754C31.2511 17.2167 25.7765 23.0369 19.3117 24.6905C19.3023 24.6905 19.3023 24.6998 19.3117 24.6998C25.7578 26.3534 31.2137 32.1363 31.3912 39.0402C31.4006 39.227 31.2417 39.3859 31.0549 39.3859L30.2047 39.3859C29.9712 39.3859 29.7843 39.199 29.775 38.9655C29.5508 31.3235 23.2728 25.167 15.5841 25.1576C15.3412 25.1576 15.117 24.9801 15.089 24.7372C15.061 24.4569 15.2852 24.2234 15.5561 24.2234C23.3195 24.2234 29.6536 17.9734 29.7843 10.238C29.7843 10.1073 29.8965 9.99515 30.0272 9.99515L31.1203 9.99515C31.2698 9.99515 31.3912 10.1259 31.3912 10.2754Z" fill="#3A4A09"/>
</svg>
