<svg width="27" height="19" viewBox="0 0 27 19" fill="none" xmlns="http://www.w3.org/2000/svg">
<path d="M1.83848 9.02875C2.8279 9.4431 3.72398 10.0269 4.50805 10.6673C5.29212 11.3265 5.98285 12.0421 6.61757 12.7955C7.86835 14.3022 8.87644 15.9219 9.84719 17.5228L8.20438 17.6734C9.75385 13.8879 11.9567 10.3094 14.7943 7.27722C16.2131 5.75169 17.7812 4.37682 19.4801 3.17147C21.1789 1.96611 23.0084 0.949087 24.9312 0.120403C25.6779 -0.199771 26.5367 0.139237 26.8727 0.892585C27.2087 1.64593 26.854 2.51229 26.1073 2.85129C26.0886 2.85129 26.07 2.87013 26.0513 2.87013C24.2778 3.54814 22.579 4.39566 20.9922 5.41268C19.3867 6.4297 17.8932 7.63506 16.5305 8.97225C13.7675 11.6466 11.546 14.886 9.92187 18.4268L9.9032 18.4644C9.67918 18.9353 9.1378 19.1236 8.67109 18.9165C8.50307 18.8411 8.3724 18.7093 8.27905 18.5586C7.21496 17.0519 6.15086 15.5829 4.93742 14.321C4.34003 13.6807 3.68664 13.1157 3.01458 12.626C2.34252 12.1363 1.63313 11.7596 0.90506 11.5148C0.214332 11.2888 -0.159035 10.5355 0.0649851 9.81977C0.289005 9.12292 1.03574 8.74625 1.74514 8.97225C1.7638 9.00992 1.78247 9.00992 1.83848 9.02875Z" fill="#9E958F"/>
</svg>
