<svg width="60" height="57" viewBox="0 0 60 57" fill="none" xmlns="http://www.w3.org/2000/svg">
<path d="M30.0318 0.434422C37.905 0.434423 45.3064 3.35806 50.8742 8.67728C56.4421 13.9965 59.5024 21.0673 59.5024 28.5889C59.5024 36.1105 56.4421 43.1942 50.8742 48.5134C45.3064 53.8326 37.905 56.7563 30.0318 56.7563C22.1585 56.7563 14.7437 53.8326 9.17583 48.5134C3.60795 43.1942 0.547642 36.1234 0.547643 28.6018C0.547644 21.0802 3.60795 14.0094 9.17583 8.69015C14.7437 3.37093 22.1451 0.434421 30.0318 0.434422ZM30.0318 54.9532C45.2389 54.9532 57.615 43.1298 57.615 28.5889C57.615 14.0609 45.2389 2.23755 30.0318 2.23755C14.8246 2.23754 2.43506 14.0609 2.43506 28.5889C2.43506 43.1298 14.8111 54.9532 30.0318 54.9532Z" fill="#BE9065"/>
<path d="M38.8082 8.71594C38.606 18.2854 30.7058 26.3093 21.3766 28.5889C21.3631 28.5889 21.3631 28.6018 21.3766 28.6018C30.6789 30.8815 38.5521 38.8539 38.8082 48.3718C38.8217 48.6294 38.5925 48.8483 38.3229 48.8483L37.0961 48.8483C36.759 48.8483 36.4894 48.5907 36.4759 48.2688C36.1524 37.7334 27.0928 29.2458 15.9975 29.2329C15.647 29.2329 15.3234 28.9882 15.283 28.6533C15.2425 28.267 15.5661 27.945 15.957 27.945C27.1602 27.945 36.3007 19.3286 36.4894 8.66442C36.4894 8.48411 36.6512 8.32956 36.8399 8.32956L38.4173 8.32956C38.633 8.32956 38.8082 8.50987 38.8082 8.71594Z" fill="#BE9065"/>
</svg>
