<svg width="31" height="31" viewBox="0 0 31 31" fill="none" xmlns="http://www.w3.org/2000/svg">
<path d="M23.0288 25.509C23.8572 25.509 24.5288 24.8375 24.5288 24.009C24.5288 23.1806 23.8572 22.509 23.0288 22.509C22.2004 22.509 21.5288 23.1806 21.5288 24.009C21.5288 24.8375 22.2004 25.509 23.0288 25.509Z" fill="#3A4A09" stroke="#3A4A09" stroke-width="1.5" stroke-linecap="round" stroke-linejoin="round"/>
<path d="M13.0288 25.509C13.8572 25.509 14.5288 24.8375 14.5288 24.009C14.5288 23.1806 13.8572 22.509 13.0288 22.509C12.2004 22.509 11.5288 23.1806 11.5288 24.009C11.5288 24.8375 12.2004 25.509 13.0288 25.509Z" fill="#3A4A09" stroke="#3A4A09" stroke-width="1.5" stroke-linecap="round" stroke-linejoin="round"/>
<path d="M20.0288 7.50903H25.5288L23.5288 18.509H19.0288M20.0288 7.50903L19.0288 18.509M20.0288 7.50903H14.2788M19.0288 18.509H15.0288M14.2788 7.50903H8.52881L10.5288 18.509H15.0288M14.2788 7.50903L15.0288 18.509" stroke="#3A4A09" stroke-width="1.5" stroke-linecap="round" stroke-linejoin="round"/>
<path d="M8.52881 7.50903C8.36214 6.84237 7.52881 5.50903 5.52881 5.50903" stroke="#3A4A09" stroke-width="1.5" stroke-linecap="round" stroke-linejoin="round"/>
<path d="M23.5288 18.509H10.5288H8.75958C6.97527 18.509 6.02881 19.2903 6.02881 20.509C6.02881 21.7278 6.97527 22.509 8.75958 22.509H23.0288" stroke="#3A4A09" stroke-width="1.5" stroke-linecap="round" stroke-linejoin="round"/>
</svg>
