<svg width="31" height="31" viewBox="0 0 31 31" fill="none" xmlns="http://www.w3.org/2000/svg">
<path d="M5.52881 15.509C5.52881 21.0319 10.006 25.509 15.5288 25.509C21.0517 25.509 25.5288 21.0319 25.5288 15.509C25.5288 9.98619 21.0517 5.50903 15.5288 5.50903C10.006 5.50903 5.52881 9.98619 5.52881 15.509Z" stroke="#3A4A09" stroke-width="1.5" stroke-linecap="round" stroke-linejoin="round"/>
<path d="M16.5288 5.55835C16.5288 5.55835 19.5288 9.50897 19.5288 15.509C19.5288 21.509 16.5288 25.4596 16.5288 25.4596" stroke="#3A4A09" stroke-width="1.5" stroke-linecap="round" stroke-linejoin="round"/>
<path d="M14.5288 25.4596C14.5288 25.4596 11.5288 21.509 11.5288 15.509C11.5288 9.50897 14.5288 5.55835 14.5288 5.55835" stroke="#3A4A09" stroke-width="1.5" stroke-linecap="round" stroke-linejoin="round"/>
<path d="M6.15771 19.009H24.8985" stroke="#3A4A09" stroke-width="1.5" stroke-linecap="round" stroke-linejoin="round"/>
<path d="M6.15771 12.009H24.8985" stroke="#3A4A09" stroke-width="1.5" stroke-linecap="round" stroke-linejoin="round"/>
</svg>
