<svg width="21" height="12" viewBox="0 0 21 12" fill="none" xmlns="http://www.w3.org/2000/svg">
<path d="M0.200254 0.500265C5.15989 0.594805 9.3185 4.28816 10.5 8.6496C10.5 8.6559 10.5067 8.6559 10.5067 8.6496C11.6815 4.30077 15.8134 0.620015 20.753 0.500265C20.8865 0.493962 21 0.601107 21 0.72716V1.3007C21 1.45827 20.8665 1.58432 20.6996 1.59062C15.2394 1.74189 10.8404 5.97727 10.8338 11.1644C10.8338 11.3282 10.7069 11.4795 10.5334 11.4984C10.3331 11.5173 10.1662 11.366 10.1662 11.1833C10.1662 5.94576 5.70057 1.67256 0.173554 1.58432C0.0801017 1.58432 0 1.50869 0 1.42045L0 0.683042C0 0.582199 0.0867769 0.500265 0.200254 0.500265Z" fill="#F8F6EC"/>
</svg>
