<svg width="24" height="25" viewBox="0 0 24 25" fill="none" xmlns="http://www.w3.org/2000/svg">
<path d="M20 11.5C20 7.08172 16.4183 3.5 12 3.5C7.58172 3.5 4 7.08172 4 11.5" stroke="#F3EDC8" stroke-width="1.5" stroke-linecap="round" stroke-linejoin="round"/>
<path d="M2 15.9384V14.0616C2 13.1438 2.62459 12.3439 3.51493 12.1213L5.25448 11.6864C5.63317 11.5917 6 11.8781 6 12.2685V17.7315C6 18.1219 5.63317 18.4083 5.25448 18.3136L3.51493 17.8787C2.62459 17.6561 2 16.8562 2 15.9384Z" stroke="#F3EDC8" stroke-width="1.5"/>
<path d="M22 15.9384V14.0616C22 13.1438 21.3754 12.3439 20.4851 12.1213L18.7455 11.6864C18.3668 11.5917 18 11.8781 18 12.2685V17.7315C18 18.1219 18.3668 18.4083 18.7455 18.3136L20.4851 17.8787C21.3754 17.6561 22 16.8562 22 15.9384Z" stroke="#F3EDC8" stroke-width="1.5"/>
<path d="M20 18.5V19C20 20.1046 19.1046 21 18 21H14.5" stroke="#F3EDC8" stroke-width="1.5"/>
<path d="M13.5 22.5H10.5C9.67157 22.5 9 21.8284 9 21C9 20.1716 9.67157 19.5 10.5 19.5H13.5C14.3284 19.5 15 20.1716 15 21C15 21.8284 14.3284 22.5 13.5 22.5Z" stroke="#F3EDC8" stroke-width="1.5"/>
</svg>
