<svg width="248" height="156" viewBox="0 0 248 156" fill="none" xmlns="http://www.w3.org/2000/svg">
<path d="M163.784 11.1967C163.31 8.48234 165.035 5.53049 168.216 5.32691C168.283 5.32691 168.554 5.32691 168.791 5.32691C168.926 5.32691 169.028 5.19119 168.96 5.08941L167.64 0.407152C167.573 0.169647 167.336 0 167.065 0H142.909H137.462H128.598C128.293 0 128.056 0.203576 127.989 0.50894L127.143 4.78404C127.075 5.08941 127.312 5.32691 127.616 5.32691H129.985C130.695 5.32691 131.372 5.46263 132.015 5.73406C134.315 6.68408 135.567 9.26272 135.06 11.7056L128.598 42.7171V42.6831C127.819 46.6189 125.417 48.044 122.034 48.0101H118.752C118.549 48.0101 118.38 48.2136 118.448 48.4172L119.733 52.6923C119.835 53.0655 120.207 53.337 120.613 53.337H126.365H131.812H138.95C139.424 53.337 139.83 52.9977 139.932 52.5566L140.845 48.3493C140.879 48.1458 140.743 47.9761 140.541 47.9761H139.289C139.187 47.9761 139.086 47.9761 138.984 47.9761C135.838 47.7725 133.639 44.7189 134.281 41.5974L137.631 25.5827C137.665 25.4131 137.8 25.3113 137.969 25.2774C148.051 23.9541 153.837 31.1472 158.742 39.5277C159.013 40.0027 159.25 40.5117 159.419 41.0545C160.366 44.0403 158.641 47.2975 155.562 47.8743C155.224 47.9422 154.886 47.9761 154.547 47.9761H153.735C153.566 47.9761 153.431 48.1458 153.498 48.3154L154.818 52.828C154.919 53.1334 155.156 53.337 155.461 53.337H162.972H175.591H181.444C181.85 53.337 182.189 53.0655 182.29 52.6923L183.406 48.3493C183.44 48.1797 183.339 48.044 183.17 48.044H179.414C176.471 48.044 174.272 46.8565 173.02 44.1082C172.817 43.6671 172.682 43.226 172.546 42.7849L166.524 21.9862L163.784 11.1967ZM153.634 21.3416V21.3076L155.325 27.2113C155.393 27.4149 155.122 27.5846 154.953 27.4489C150.42 23.9541 145.412 21.4094 138.578 22.3595C138.409 22.3934 138.274 22.2577 138.308 22.088L141.42 7.22695C141.42 7.19303 141.42 7.19303 141.454 7.1591C141.928 6.10729 143.585 5.32691 145.514 5.32691C147.713 5.32691 149.134 6.27693 149.641 7.56625L150.149 9.29665L153.634 21.3416Z" fill="#F8F6EC"/>
<path d="M105.964 78.6147C105.49 75.9003 107.216 72.9485 110.396 72.7449C110.464 72.7449 110.734 72.7449 110.971 72.7449C111.106 72.7449 111.208 72.6092 111.14 72.5074L109.821 67.8251C109.753 67.5876 109.516 67.418 109.246 67.418H85.0891H79.642H70.7779C70.4734 67.418 70.2366 67.6215 70.1689 67.9269L69.3231 72.202C69.2554 72.5074 69.4922 72.7449 69.7967 72.7449H72.165C72.8755 72.7449 73.5522 72.8806 74.195 73.152C76.4956 74.1021 77.7474 76.6807 77.2399 79.1236L70.7779 110.135V110.101C69.9997 114.037 67.5976 115.462 64.2144 115.428H60.8987C60.6958 115.428 60.5266 115.632 60.5943 115.835L61.8799 120.11C61.9814 120.483 62.3536 120.755 62.7595 120.755H68.5111H73.9582H81.0969C81.5705 120.755 81.9765 120.416 82.078 119.975L82.9915 115.767C83.0253 115.564 82.89 115.394 82.687 115.394H81.4352C81.3337 115.394 81.2322 115.394 81.1307 115.394C77.9842 115.191 75.7851 112.137 76.4279 109.015L79.7774 93.0007C79.8112 92.8311 79.9465 92.7293 80.1157 92.6954C90.1978 91.3721 95.9832 98.5651 100.889 106.946C101.16 107.421 101.396 107.93 101.566 108.473C102.513 111.458 100.787 114.715 97.7087 115.292C97.3704 115.36 97.032 115.394 96.6937 115.394H95.8817C95.7126 115.394 95.5772 115.564 95.6449 115.733L96.9644 120.246C97.0659 120.551 97.3027 120.755 97.6072 120.755H105.118H117.738H123.591C123.997 120.755 124.335 120.483 124.437 120.11L125.553 115.767C125.587 115.598 125.485 115.462 125.316 115.462H121.561C118.617 115.462 116.418 114.274 115.166 111.526C114.963 111.085 114.828 110.644 114.693 110.203L108.67 89.4042L105.964 78.6147ZM95.7802 88.7595V88.7256L97.4719 94.6293C97.5395 94.8329 97.2689 95.0025 97.0997 94.8668C92.5661 91.3721 87.5589 88.8274 80.7247 89.7774C80.5555 89.8114 80.4202 89.6756 80.454 89.506L83.5666 74.6449C83.5666 74.611 83.5666 74.611 83.6005 74.5771C84.0741 73.5253 85.7319 72.7449 87.6604 72.7449C89.8595 72.7449 91.2805 73.6949 91.788 74.9842L92.2955 76.7146L95.7802 88.7595Z" fill="#F8F6EC"/>
<path d="M228.269 78.6147C227.796 75.9003 229.521 72.9485 232.701 72.7449C232.769 72.7449 233.04 72.7449 233.276 72.7449C233.412 72.7449 233.513 72.6092 233.446 72.5074L232.126 67.8251C232.059 67.5876 231.822 67.418 231.551 67.418H207.394H201.981H193.117C192.813 67.418 192.576 67.6215 192.508 67.9269L191.662 72.202C191.595 72.5074 191.831 72.7449 192.136 72.7449H194.504C195.215 72.7449 195.891 72.8806 196.534 73.152C198.835 74.1021 200.087 76.6807 199.579 79.1236L193.117 110.135V110.101C192.339 114.037 189.937 115.462 186.554 115.428H183.272C183.069 115.428 182.9 115.632 182.967 115.835L184.253 120.11C184.354 120.483 184.727 120.755 185.133 120.755H190.884H196.331H203.47C203.944 120.755 204.35 120.416 204.451 119.975L205.365 115.767C205.398 115.564 205.263 115.394 205.06 115.394H203.808C203.707 115.394 203.605 115.394 203.504 115.394C200.357 115.191 198.158 112.137 198.801 109.015L202.15 93.0007C202.184 92.8311 202.32 92.7293 202.489 92.6954C212.571 91.3721 218.356 98.5651 223.262 106.946C223.533 107.421 223.77 107.93 223.939 108.473C224.886 111.458 223.161 114.715 220.082 115.292C219.743 115.36 219.405 115.394 219.067 115.394H218.255C218.086 115.394 217.95 115.564 218.018 115.733L219.337 120.246C219.439 120.551 219.676 120.755 219.98 120.755H227.491H240.178H246.031C246.437 120.755 246.776 120.483 246.877 120.11L247.994 115.767C248.028 115.598 247.926 115.462 247.757 115.462H244.001C241.058 115.462 238.859 114.274 237.607 111.526C237.404 111.085 237.269 110.644 237.133 110.203L231.111 89.4042L228.269 78.6147ZM218.119 88.7595V88.7256L219.811 94.6293C219.879 94.8329 219.608 95.0025 219.439 94.8668C214.905 91.3721 209.898 88.8274 203.064 89.7774C202.895 89.8114 202.759 89.6756 202.793 89.506L205.906 74.6449C205.906 74.611 205.906 74.611 205.94 74.5771C206.413 73.5253 208.071 72.7449 210 72.7449C212.199 72.7449 213.62 73.6949 214.127 74.9842L214.635 76.7146L218.119 88.7595Z" fill="#F8F6EC"/>
<path d="M84.2767 10.6531C84.2767 7.73517 86.6788 5.36011 89.5884 5.36011H99.5352C99.9074 5.36011 100.144 5.02082 100.043 4.68153L98.8586 0.542144C98.7571 0.236779 98.4864 0.0332031 98.1819 0.0332031H84.2429H72.0631H68.4092C68.0709 0.0332031 67.7664 0.270709 67.6987 0.610002L66.8529 4.81724C66.7852 5.08868 66.9882 5.36011 67.2927 5.39404C69.9655 5.66548 72.0631 7.93874 72.0631 10.687V10.9245V21.1373V42.7163C72.0631 45.4646 69.9993 47.7379 67.3265 48.0093C67.022 48.0433 66.819 48.3147 66.9205 48.62L68.1047 52.8951C68.1724 53.2005 68.443 53.4041 68.7475 53.4041H72.0631H84.2429H109.617C109.854 53.4041 110.057 53.2344 110.091 53.0309L111.241 48.0772L113.001 40.477C113.034 40.2734 112.899 40.0699 112.696 40.0699H111.614C111.411 40.0699 111.208 40.2395 111.174 40.4431C110.463 44.4807 108.298 48.0772 105.93 48.0772H89.5546C86.848 48.0772 84.615 46.0414 84.2767 43.3949C84.2429 43.1574 84.2429 42.9199 84.2429 42.6824V21.3069" fill="#F8F6EC"/>
<path d="M1.01498 87.4021L0.879649 87.911C0.845817 88.0128 0.710486 88.4878 0.676653 88.5896C0.236829 90.3539 0 92.1861 0 94.0522C0 108.71 14.6157 120.585 32.6147 120.585C48.2792 120.585 61.3725 111.594 64.5189 99.5827C64.5527 99.447 64.5527 99.3113 64.4851 99.1755L61.9815 94.2558C61.9138 94.1201 61.7446 94.0183 61.5755 94.0183H59.5455C59.3425 94.0183 59.1395 94.1879 59.1395 94.4254C58.9027 106.165 48.5161 115.631 35.6935 115.631C22.7356 115.631 12.2474 105.961 12.2474 94.0183C12.2474 91.8807 12.5858 89.811 13.1947 87.8771C14.3451 83.2288 17.796 79.3269 22.8032 75.9679C26.491 73.7285 30.9231 72.4053 35.6935 72.4053C44.287 72.4053 51.3242 74.6107 55.3841 80.9555C55.4517 81.0573 55.5532 81.1251 55.6886 81.1251H60.5605C60.7296 81.1251 60.8311 80.9555 60.7973 80.7858L58.2937 72.7106C58.2599 72.541 58.1584 72.4053 58.023 72.3374C52.4745 68.0623 41.6142 67.1123 32.5809 67.1123C21.9574 67.1123 12.5519 71.3874 6.59737 77.8679V77.834C6.49587 77.9697 6.42821 78.0715 6.32671 78.1733C5.98838 78.5804 5.65006 78.9536 5.31173 79.3608C3.3156 81.9734 1.8608 84.6199 1.01498 87.4021Z" fill="#F8F6EC"/>
<path d="M151.435 88.5558C142.064 87.5379 132.827 86.7575 132.827 78.7163C132.827 61.5141 170.618 67.9267 176.336 70.9804C176.37 71.0143 176.404 71.0143 176.404 71.0821L179.415 80.8199C179.483 80.9895 179.347 81.1931 179.144 81.1931L176.133 81.2949C175.998 81.2949 175.896 81.227 175.795 81.1592C162.769 65.0088 144.973 70.6411 144.973 78.2752C144.973 82.211 148.627 83.6021 153.702 84.3825L163.683 85.4682C163.683 85.4682 163.683 85.4682 163.717 85.4682C173.224 86.5539 182.798 88.929 182.798 100.465C182.798 108.778 177.96 120.483 157.83 120.483C130.561 120.483 126.433 105.995 125.993 103.994C125.959 103.858 125.959 103.688 125.993 103.553L128.057 93.713C128.091 93.5434 128.26 93.4077 128.429 93.4077H133.605C133.808 93.4077 133.944 93.5773 133.944 93.747C133.775 96.4613 133.538 114.376 157.322 114.376C166.254 114.58 170.957 106.572 170.618 100.465C170.618 94.188 166.491 91.4737 160.976 90.0487H160.942L151.435 88.5558Z" fill="#F8F6EC"/>
<path d="M24.9687 153.326C23.7507 154.547 21.4162 155.905 18.2021 155.905H13.0596V137.277H18.1683C21.3824 137.277 23.7507 138.635 24.9348 139.856C26.1528 141.077 27.743 143.215 27.743 146.608C27.7768 149.933 26.1528 152.104 24.9687 153.326ZM23.683 140.602C22.4989 139.483 20.6043 138.601 18.033 138.601H14.5144V154.581H18.033C20.6043 154.581 22.4989 153.733 23.683 152.613C24.8672 151.494 26.2543 149.56 26.2543 146.608C26.2881 143.622 24.8672 141.688 23.683 140.602Z" fill="#F8F6EC"/>
<path d="M30.2803 155.463V137.65H31.8027V155.463H30.2803ZM30.6186 139.109V137.684H41.9525V139.109H30.6186ZM30.6186 147.049V145.624H40.7007V147.049H30.6186ZM30.6186 155.463V154.038H41.9525V155.463H30.6186Z" fill="#F8F6EC"/>
<path d="M50.377 155.463V137.65H51.8994V155.463H50.377ZM51.1889 155.463V154.038H60.7636V155.463H51.1889Z" fill="#F8F6EC"/>
<path d="M70.4057 155.735C65.6015 155.735 61.4062 152.207 61.4062 146.541C61.4062 140.874 65.6015 137.346 70.4057 137.346C75.2438 137.346 79.4052 140.874 79.4052 146.541C79.4391 152.241 75.2438 155.735 70.4057 155.735ZM70.4057 138.601C66.3458 138.601 62.8611 141.519 62.8611 146.541C62.8611 151.494 66.3797 154.446 70.4057 154.446C74.4657 154.446 77.9843 151.494 77.9843 146.541C77.9843 141.553 74.4995 138.601 70.4057 138.601Z" fill="#F8F6EC"/>
<path d="M88.506 155.803C87.3557 155.803 86.3069 155.667 85.4272 155.395C84.5476 155.124 83.8371 154.751 83.2619 154.208C82.7206 153.699 82.3146 153.054 82.0778 152.308C81.8409 151.561 81.7733 150.713 81.8748 149.729L83.2957 149.627C83.1604 150.679 83.2957 151.527 83.7017 152.24C84.0739 152.919 84.6829 153.461 85.5287 153.801C86.3745 154.14 87.3557 154.31 88.5398 154.31C89.6563 154.31 90.6374 154.174 91.4156 153.903C92.1937 153.631 92.8027 153.224 93.2087 152.715C93.6147 152.206 93.8177 151.595 93.8177 150.883C93.8177 150.102 93.5809 149.492 93.1411 149.085C92.6674 148.643 92.0922 148.338 91.3479 148.101C90.6036 147.863 89.8255 147.66 88.9458 147.49C88.1338 147.32 87.3218 147.151 86.5437 146.913C85.7317 146.709 85.0212 146.404 84.3784 146.065C83.7356 145.692 83.2281 145.217 82.8221 144.64C82.4161 144.063 82.2469 143.317 82.2469 142.4C82.2469 141.349 82.5176 140.466 83.0251 139.72C83.5326 138.974 84.2431 138.397 85.1565 137.99C86.07 137.582 87.085 137.379 88.2691 137.379C89.4195 137.379 90.5021 137.582 91.4833 137.956C92.4644 138.329 93.2426 138.94 93.8515 139.72C94.4605 140.534 94.765 141.552 94.765 142.774L93.2426 143.045C93.2426 142.333 93.1072 141.722 92.8704 141.179C92.6336 140.636 92.2952 140.195 91.8216 139.856C91.3818 139.516 90.8404 139.245 90.2314 139.075C89.6225 138.906 88.9458 138.804 88.2353 138.804C87.3895 138.804 86.6113 138.94 85.9347 139.245C85.258 139.516 84.7167 139.924 84.3446 140.466C83.9386 140.975 83.7694 141.62 83.7694 142.333C83.7694 143.181 84.0401 143.825 84.5814 144.3C85.1227 144.776 85.8332 145.115 86.7128 145.386C87.5925 145.624 88.506 145.861 89.4533 146.099C90.2314 146.268 90.9758 146.438 91.6524 146.676C92.3629 146.879 92.9719 147.184 93.547 147.524C94.0884 147.863 94.5282 148.338 94.8665 148.881C95.2048 149.424 95.3402 150.136 95.3402 151.019C95.3402 152.002 95.1034 152.851 94.5959 153.563C94.0884 154.276 93.344 154.853 92.3291 155.26C91.3141 155.599 90.0285 155.803 88.506 155.803Z" fill="#F8F6EC"/>
<path d="M104.374 155.463V137.65H105.896V155.463H104.374ZM104.746 139.109V137.684H116.114V139.109H104.746ZM104.746 147.185V145.76H114.828V147.185H104.746Z" fill="#F8F6EC"/>
<path d="M118.11 155.463V137.65H123.591C124.437 137.65 125.249 137.718 125.96 137.854C126.67 137.99 127.313 138.193 127.888 138.499C128.463 138.77 128.937 139.109 129.309 139.55C129.681 139.958 129.986 140.433 130.189 141.009C130.392 141.552 130.493 142.163 130.493 142.842C130.493 143.486 130.392 144.063 130.222 144.572C130.019 145.115 129.749 145.556 129.41 145.963C129.038 146.37 128.598 146.676 128.091 146.947C127.55 147.185 126.941 147.354 126.264 147.456V147.761C126.738 147.829 127.178 147.965 127.617 148.202C128.057 148.406 128.463 148.779 128.801 149.254C129.174 149.729 129.478 150.408 129.715 151.29L130.933 155.497H129.343L128.362 151.663C128.192 150.917 127.888 150.306 127.448 149.831C127.008 149.356 126.467 148.983 125.824 148.745C125.181 148.508 124.437 148.372 123.591 148.372H119.667V155.497H118.11V155.463ZM119.633 146.913H123.456C125.317 146.913 126.67 146.574 127.584 145.929C128.497 145.284 128.971 144.301 128.971 142.977C128.971 141.654 128.531 140.67 127.617 140.025C126.704 139.381 125.317 139.075 123.456 139.075H119.633V146.913Z" fill="#F8F6EC"/>
<path d="M132.354 155.463L138.714 137.65H140.947L147.308 155.463H145.684L139.966 139.075H139.695L133.977 155.463H132.354ZM135.026 151.154V149.763H144.804V151.154H135.026Z" fill="#F8F6EC"/>
<path d="M149.642 155.463V137.65H151.773L161.991 153.461H162.16L162.024 137.65H163.513V155.463H161.585L151.232 139.483H151.029L151.164 155.463H149.642Z" fill="#F8F6EC"/>
<path d="M181.58 153.021C180.295 154.446 178.231 155.803 174.983 155.803C169.806 155.803 165.983 152.003 165.983 146.574C165.983 141.146 169.942 137.346 174.983 137.346C178.095 137.346 180.159 138.635 181.445 139.924L180.531 140.976C179.618 139.823 177.554 138.601 174.983 138.601C170.585 138.601 167.506 141.824 167.506 146.507C167.506 151.155 170.618 154.446 174.983 154.446C177.453 154.446 179.381 153.53 180.667 152.071L181.58 153.021Z" fill="#F8F6EC"/>
<path d="M184.354 155.463V137.65H185.877V155.463H184.354ZM184.659 139.109V137.684H195.993V139.109H184.659ZM184.659 147.049V145.624H194.741V147.049H184.659ZM184.659 155.463V154.038H195.993V155.463H184.659Z" fill="#F8F6EC"/>
<path d="M204.079 155.803C202.929 155.803 201.88 155.667 201 155.395C200.121 155.124 199.41 154.751 198.835 154.208C198.294 153.699 197.888 153.054 197.651 152.308C197.414 151.561 197.347 150.713 197.448 149.729L198.869 149.627C198.734 150.679 198.869 151.527 199.275 152.24C199.647 152.919 200.256 153.461 201.102 153.801C201.948 154.14 202.929 154.31 204.113 154.31C205.23 154.31 206.211 154.174 206.989 153.903C207.767 153.631 208.376 153.224 208.782 152.715C209.188 152.206 209.391 151.595 209.391 150.883C209.391 150.102 209.154 149.492 208.714 149.085C208.241 148.643 207.665 148.338 206.921 148.101C206.177 147.863 205.399 147.66 204.519 147.49C203.707 147.32 202.895 147.151 202.117 146.913C201.305 146.709 200.594 146.404 199.952 146.065C199.309 145.692 198.801 145.217 198.395 144.64C197.989 144.063 197.82 143.317 197.82 142.4C197.82 141.349 198.091 140.466 198.598 139.72C199.106 138.974 199.816 138.397 200.73 137.99C201.643 137.582 202.658 137.379 203.842 137.379C204.993 137.379 206.075 137.582 207.057 137.956C208.038 138.329 208.816 138.94 209.425 139.72C210.034 140.534 210.338 141.552 210.338 142.774L208.816 143.045C208.816 142.333 208.68 141.722 208.444 141.179C208.207 140.636 207.868 140.195 207.395 139.856C206.955 139.516 206.414 139.245 205.805 139.075C205.196 138.906 204.519 138.804 203.809 138.804C202.963 138.804 202.185 138.94 201.508 139.245C200.831 139.516 200.29 139.924 199.918 140.466C199.512 140.975 199.343 141.62 199.343 142.333C199.343 143.181 199.613 143.825 200.155 144.3C200.696 144.776 201.406 145.115 202.286 145.386C203.166 145.624 204.079 145.861 205.027 146.099C205.805 146.268 206.549 146.438 207.226 146.676C207.936 146.879 208.545 147.184 209.12 147.524C209.662 147.863 210.101 148.338 210.44 148.881C210.778 149.424 210.913 150.136 210.913 151.019C210.913 152.002 210.677 152.851 210.169 153.563C209.662 154.276 208.917 154.853 207.902 155.26C206.854 155.599 205.602 155.803 204.079 155.803Z" fill="#F8F6EC"/>
<path d="M213.856 155.463V137.65H215.379V155.463H213.856ZM214.195 139.109V137.684H225.529V139.109H214.195ZM214.195 147.049V145.624H224.277V147.049H214.195ZM214.195 155.463V154.038H225.529V155.463H214.195Z" fill="#F8F6EC"/>
<path d="M233.581 155.803C232.431 155.803 231.382 155.667 230.502 155.395C229.623 155.124 228.912 154.751 228.337 154.208C227.796 153.699 227.39 153.054 227.153 152.308C226.916 151.561 226.848 150.713 226.95 149.729L228.371 149.627C228.236 150.679 228.371 151.527 228.777 152.24C229.149 152.919 229.758 153.461 230.604 153.801C231.45 154.14 232.431 154.31 233.615 154.31C234.731 154.31 235.713 154.174 236.491 153.903C237.269 153.631 237.878 153.224 238.284 152.715C238.69 152.206 238.893 151.595 238.893 150.883C238.893 150.102 238.656 149.492 238.216 149.085C237.743 148.643 237.167 148.338 236.423 148.101C235.679 147.863 234.901 147.66 234.021 147.49C233.209 147.32 232.397 147.151 231.619 146.913C230.807 146.709 230.096 146.404 229.454 146.065C228.811 145.692 228.303 145.217 227.897 144.64C227.491 144.063 227.322 143.317 227.322 142.4C227.322 141.349 227.593 140.466 228.1 139.72C228.608 138.974 229.318 138.397 230.232 137.99C231.145 137.582 232.16 137.379 233.344 137.379C234.495 137.379 235.577 137.582 236.558 137.956C237.54 138.329 238.318 138.94 238.927 139.72C239.536 140.534 239.84 141.552 239.84 142.774L238.318 143.045C238.318 142.333 238.182 141.722 237.946 141.179C237.709 140.636 237.37 140.195 236.897 139.856C236.457 139.516 235.916 139.245 235.307 139.075C234.698 138.906 234.021 138.804 233.311 138.804C232.465 138.804 231.687 138.94 231.01 139.245C230.333 139.516 229.792 139.924 229.42 140.466C229.014 140.975 228.845 141.62 228.845 142.333C228.845 143.181 229.115 143.825 229.657 144.3C230.198 144.776 230.908 145.115 231.788 145.386C232.668 145.624 233.581 145.861 234.528 146.099C235.307 146.268 236.051 146.438 236.728 146.676C237.438 146.879 238.047 147.184 238.622 147.524C239.164 147.863 239.603 148.338 239.942 148.881C240.28 149.424 240.415 150.136 240.415 151.019C240.415 152.002 240.179 152.851 239.671 153.563C239.164 154.276 238.419 154.853 237.404 155.26C236.355 155.599 235.104 155.803 233.581 155.803Z" fill="#F8F6EC"/>
</svg>
