<svg width="24" height="25" viewBox="0 0 24 25" fill="none" xmlns="http://www.w3.org/2000/svg">
<path d="M14 12.4053L10.5 14.4053V10.4053L14 12.4053Z" stroke="#F3EDC8" stroke-width="1.5" stroke-linecap="round" stroke-linejoin="round"/>
<path d="M2 13.1133V11.6981C2 8.80282 2 7.35515 2.90549 6.42368C3.81099 5.49221 5.23656 5.45189 8.08769 5.37125C9.43873 5.33304 10.8188 5.30566 12 5.30566C13.1812 5.30566 14.5613 5.33304 15.9123 5.37125C18.7634 5.45189 20.189 5.49221 21.0945 6.42368C22 7.35515 22 8.80281 22 11.6981V13.1133C22 16.0086 22 17.4562 21.0945 18.3877C20.189 19.3191 18.7635 19.3595 15.9124 19.4401C14.5613 19.4784 13.1812 19.5058 12 19.5058C10.8188 19.5058 9.43867 19.4784 8.0876 19.4401C5.23651 19.3595 3.81097 19.3191 2.90548 18.3877C2 17.4562 2 16.0086 2 13.1133Z" stroke="#F3EDC8" stroke-width="1.5"/>
</svg>
