<svg width="266" height="146" viewBox="0 0 266 146" fill="none" xmlns="http://www.w3.org/2000/svg">
<g clip-path="url(#clip0_166_593)">
<path d="M125.195 69.8027C125.066 69.3066 124.808 68.7945 124.825 68.2984C124.841 67.6423 125.066 67.0022 125.195 66.3461C125.275 65.962 125.372 65.562 125.404 65.1619C125.436 64.6978 125.388 64.2177 124.825 64.0737C124.664 64.0257 124.31 64.0897 124.293 64.1857C124.149 64.6498 123.907 65.2099 124.036 65.61C124.213 66.09 124.277 66.4741 123.827 66.6821C123.376 66.8902 123.006 66.6341 122.845 66.138C122.781 65.93 122.748 65.722 122.684 65.5139C122.523 65.0339 122.233 64.8258 121.702 64.9539C120.141 65.3219 118.58 65.69 116.987 65.994C116.247 66.1381 116.456 66.6501 116.44 67.1782C115.828 67.0822 115.249 67.0662 114.75 66.8582C114.444 66.7301 114.267 66.3141 114.042 66.026C114.283 65.866 114.508 65.658 114.766 65.578C115.442 65.3699 116.118 65.2419 116.81 65.0819C116.794 64.9859 116.778 64.8898 116.745 64.7778C116.391 64.8258 116.053 64.8578 115.699 64.9219C115.2 65.0019 114.605 65.1299 114.508 64.5058C114.412 63.9297 114.959 63.7377 115.474 63.6576C116.198 63.5616 116.922 63.5296 117.615 63.3696C118.242 63.2256 118.822 62.9535 119.433 62.7295C119.417 62.6015 119.401 62.4734 119.385 62.3454C118.934 62.3294 118.5 62.2654 118.049 62.2974C117.486 62.3294 116.939 62.4734 116.375 62.4734C116.118 62.4734 115.828 62.3134 115.619 62.1374C115.49 62.0254 115.49 61.7533 115.442 61.5453C115.667 61.4973 115.909 61.4013 116.134 61.4333C116.327 61.4653 116.504 61.6413 116.874 61.8653C116.681 61.5773 116.649 61.4333 116.536 61.3693C114.444 60.0891 112.336 58.8248 110.211 57.5766C110.083 57.4966 109.745 57.5126 109.664 57.6086C109.149 58.1847 108.731 57.8967 108.28 57.5446C107.974 57.3046 107.636 57.1126 107.105 56.7605C106.912 57.9767 106.719 58.9849 106.59 59.993C106.445 61.0172 106.365 62.0414 106.252 63.0975C105.496 63.0655 105.126 62.6655 104.9 62.1374C104.659 61.5773 104.514 60.9692 104.305 60.3931C103.79 59.0169 102.631 58.6328 101.376 59.3849C101.231 59.4649 101.006 59.561 100.877 59.513C99.7503 59.1449 98.3662 59.609 97.6581 60.5851C97.5132 60.7772 97.1913 60.9212 96.9338 60.9532C96.3223 61.0492 95.7107 61.0492 95.0991 61.0972C94.8256 61.1132 94.5359 61.2572 94.3105 61.1612C93.3127 60.7772 92.5724 61.2572 91.7677 61.7213C90.1422 62.6495 88.4685 63.4976 86.843 64.4418C86.167 64.8418 85.5555 65.3699 84.7991 65.914C85.1048 66.026 85.2658 66.074 85.4267 66.138C85.4106 66.1861 85.4106 66.2501 85.3784 66.2661C84.6542 66.6021 83.93 66.9062 82.9643 66.4421C85.5233 64.3298 88.3236 62.8415 91.0435 61.2092C90.8665 61.2252 90.6894 61.2252 90.5285 61.2732C87.5511 62.1054 84.5898 63.0335 81.5803 63.7697C73.0505 65.866 64.5046 67.8823 55.9427 69.8987C55.3472 70.0427 54.6713 69.8987 54.0597 69.7707C53.8344 69.7226 53.6734 69.3546 53.3516 68.9865C54.8966 68.9225 56.1519 68.9065 57.3911 68.7945C63.0723 68.3304 68.4316 66.6501 73.5816 64.2977C78.796 61.9133 83.93 59.3689 89.0961 56.9045C89.8525 56.5525 90.6411 56.2644 91.3654 55.8804C91.9126 55.5923 92.3793 55.1762 92.8943 54.8242C92.8782 54.7282 92.8621 54.6321 92.846 54.5361C92.5724 54.4401 92.2988 54.2161 92.0413 54.2481C87.9696 54.5521 83.93 54.9362 79.9387 55.8804C79.8904 55.8964 79.8582 55.9284 79.6973 56.0244C80.1157 56.0884 80.4215 56.1204 80.7273 56.1684C80.7273 56.2324 80.7434 56.2964 80.7434 56.3604C80.0031 56.4244 79.2627 56.5685 78.5385 56.5365C77.5246 56.4885 76.5107 56.3124 75.7221 56.2164C79.0374 55.5763 82.6103 54.9042 86.3763 54.1681C86.0705 53.976 85.9739 53.88 85.8612 53.848C83.7529 53.2079 81.6607 52.5518 79.5524 51.9597C79.2949 51.8797 78.8604 52.0557 78.6673 52.2478C78.4259 52.5038 78.2971 52.8879 78.2005 53.2399C78.0879 53.656 78.2006 54.2161 77.4441 54.0401C76.7521 53.88 76.1405 53.1119 76.3015 52.5358C76.398 52.1837 76.559 51.8317 76.7199 51.3836C75.8347 51.0316 75.0622 50.4235 74.0322 51.0155C73.8874 51.0956 73.5816 50.9515 73.3563 50.8875C71.4733 50.4074 69.6064 49.7353 67.6751 49.5273C66.2267 49.3673 64.7139 49.7353 63.2332 49.9594C62.7665 50.0234 62.4446 50.0394 62.2193 49.6233C61.9618 49.1272 62.2998 48.8072 62.686 48.6952C63.4907 48.4711 64.3276 48.2951 65.1806 48.1991C65.8082 48.1351 66.452 48.2471 67.1279 48.2791C67.144 47.895 67.1601 47.591 67.1923 47.1429C67.9165 47.1429 68.6086 47.2069 69.3006 47.1269C69.8961 47.0629 70.4594 46.8229 71.0549 46.7108C71.3445 46.6468 71.6825 46.6468 71.9722 46.7108C73.7586 47.1749 75.5451 47.655 77.3315 48.1351C78.796 48.5191 79.0535 48.3751 79.4881 46.7588C77.2188 46.8549 74.9496 46.9029 74.0322 43.9424C74.9496 44.0544 75.7382 44.0864 76.4946 44.2784C77.6051 44.5505 78.7156 44.8865 79.7938 45.2866C80.3732 45.5106 80.6307 45.3986 80.9365 44.9025C84.0104 40.1498 87.1005 35.397 90.2388 30.6922C91.0274 29.508 91.5907 28.3558 91.2849 26.9156C91.1722 26.3555 91.4297 26.1634 91.9447 26.0674C93.361 25.7954 94.5037 26.3555 95.5659 27.2036C95.7107 27.3156 95.8556 27.4436 96.1453 27.4917C96.097 27.2676 96.0326 27.0276 95.9843 26.7875C96.1613 26.6755 96.4027 26.5155 96.7407 26.3075C97.127 26.8676 97.7225 27.0596 98.2857 26.6275C99.9273 25.3953 101.875 25.5393 103.742 25.3473C104.353 25.2833 104.707 25.1233 104.965 24.5632C105.866 22.7229 106.59 20.8506 106.381 18.7382C106.349 18.4822 106.687 18.1301 106.928 17.9381C107.347 17.602 107.829 17.362 108.28 17.0739C108.248 16.9939 108.2 16.9139 108.167 16.8339C108.296 16.8499 108.473 16.8339 108.538 16.8979C109.181 17.666 109.986 17.378 110.759 17.234C112.738 16.8819 114.718 16.5618 116.697 16.1618C117.019 16.0978 117.405 15.7937 117.566 15.5057C118.307 14.1134 118.966 12.6892 119.658 11.265C119.884 10.7849 120.254 10.3688 119.9 9.72872C119.771 9.50468 120.061 9.0406 120.125 8.80056C120.914 8.94459 121.622 9.15262 122.33 9.18463C123.505 9.24864 124.583 9.13662 125.082 7.72839C125.388 6.89625 126.112 6.24014 126.531 5.44001C126.869 4.8159 127.046 4.11179 127.271 3.43968C127.448 2.94359 127.593 2.43151 127.77 1.91943C127.786 1.87142 127.834 1.82341 127.882 1.82341C128.816 1.51936 129.749 1.08729 130.715 0.975269C131.745 0.847248 132.662 1.39134 133.354 2.12746C133.998 2.79957 134.545 3.5677 135.092 4.30382C135.318 4.60787 135.559 4.92792 135.221 5.376C135.125 5.50402 135.302 5.95209 135.463 6.12812C135.591 6.27215 135.913 6.28815 136.155 6.25614C136.557 6.20813 136.943 6.06411 137.33 6.0161C138.456 5.87208 139.084 6.17613 139.502 7.2163C140.307 9.13662 141.096 11.0569 141.771 13.0093C142.351 14.6575 143.22 16.0818 144.507 17.25C144.62 17.346 144.861 17.474 144.91 17.426C145.473 16.8979 145.891 17.426 146.31 17.634C147.63 18.3061 149.014 18.1621 150.414 18.0021C151.428 17.8901 152.442 17.73 153.456 17.7941C154.115 17.8261 154.775 18.1781 155.371 18.4822C155.886 18.7382 155.966 19.2343 155.95 19.8424C155.918 20.5625 156.047 21.3306 156.304 22.0188C156.964 23.763 157.688 25.4753 158.445 27.1876C158.638 27.6357 159.04 27.9877 159.346 28.3878C159.443 28.3398 159.555 28.3078 159.652 28.2598C159.652 28.0197 159.62 27.7797 159.652 27.5557C159.684 27.3476 159.716 27.0276 159.861 26.9636C160.022 26.8836 160.344 26.9476 160.521 27.0756C160.746 27.2356 160.859 27.5557 161.068 27.7477C161.277 27.9237 161.551 28.0357 161.792 28.1478C161.873 28.1798 162.018 28.1638 162.034 28.2118C162.5 29.1239 163.048 28.6919 163.595 28.3078C164.448 27.7157 164.818 27.7477 165.365 28.6278C165.8 29.332 166.105 30.1161 166.54 30.8202C166.942 31.4763 167.457 32.0684 167.924 32.6925C168.021 32.6605 168.133 32.6285 168.23 32.5965C168.407 32.0524 168.568 31.5083 168.745 30.9642C169.115 29.812 169.533 29.636 170.74 29.86C172.897 30.2921 175.07 30.6282 177.226 31.0602C177.613 31.1403 178.369 31.0122 178.208 31.7804C178.031 32.5965 177.419 32.0524 177.033 31.9884C174.812 31.6683 172.591 31.3003 170.354 30.9962C170.161 30.9642 169.775 31.1883 169.71 31.3643C169.405 32.2284 169.195 33.1246 168.874 34.2608C170.821 33.9247 172.559 33.6847 174.265 33.2846C174.941 33.1246 175.199 33.2526 175.311 33.9407C173.267 34.4208 171.239 34.9009 169.163 35.397C169.26 37.6053 170.419 39.3816 171.095 41.382C171.4 41.3179 171.642 41.2699 171.899 41.2219C172.141 42.3261 172.881 42.7422 174.072 42.5822C174.362 42.5502 174.796 42.8222 175.038 43.0782C175.762 43.8784 175.955 43.8304 176.518 42.9022C176.711 42.5822 177.226 42.2941 177.613 42.2781C177.854 42.2621 178.289 42.7262 178.369 43.0302C178.546 43.6863 178.546 44.3905 178.627 45.3026C178.948 45.0626 179.222 44.9345 179.383 44.7265C179.544 44.5185 179.592 44.2464 179.689 43.9904C180.188 42.5822 180.783 42.3581 182.103 43.1262C182.441 43.3343 182.763 43.5903 183.068 43.8304C184.356 44.8385 184.855 44.7105 185.981 43.5743C187.06 42.4861 188.267 41.494 189.522 40.6138C190.52 39.9097 191.759 39.7497 192.998 39.8457C194.093 39.9257 194.656 40.5178 194.624 41.606C194.624 41.798 194.592 41.9741 194.576 42.1661C194.447 43.3983 194.592 43.6063 195.847 43.8784C195.831 44.1184 195.799 44.3584 195.767 44.6945C197.81 44.3905 199.146 42.6942 201.142 42.4061C200.225 43.0782 199.307 43.7503 198.374 44.3905C197.81 44.7905 197.199 45.1426 196.603 45.5106C195.477 46.2148 195.412 46.4548 196.185 47.447C196.265 47.543 196.748 47.527 196.829 47.399C197.263 46.7428 197.955 46.6628 198.615 46.4388C200.305 45.8947 201.963 45.2866 203.636 44.7425C204.393 44.5025 205.181 44.3905 205.954 44.2144C206.051 44.3424 206.147 44.4865 206.244 44.6145C205.841 44.7905 205.439 44.9665 205.037 45.1426C205.101 45.2226 205.181 45.3186 205.246 45.3986C214.049 43.7343 222.885 44.0864 231.72 44.8865C231.736 44.9986 231.752 45.1106 231.769 45.2066C231.463 45.2706 231.141 45.4306 230.835 45.3986C228.035 45.1906 225.218 44.9185 222.418 44.7265C216.351 44.3264 210.283 44.2624 204.393 46.0707C202.429 46.6788 200.917 48.0551 199.677 49.6713C199.726 49.7673 199.774 49.8794 199.806 49.9754C201.753 49.4473 203.717 48.9512 205.648 48.3751C209.06 47.3509 212.456 46.2788 215.852 45.1906C217.461 44.6785 219.022 45.0786 220.583 45.3666C220.583 45.4466 220.583 45.5266 220.583 45.6227C219.972 45.6547 219.296 45.8467 218.749 45.6707C217.863 45.3826 217.059 45.5426 216.222 45.6707C212.794 46.2308 209.559 47.479 206.276 48.5671C204.168 49.2713 202.027 49.8474 199.887 50.4555C199.645 50.5195 199.227 50.4715 199.114 50.3274C198.985 50.1514 199.017 49.7033 199.162 49.5433C199.661 48.9672 200.241 48.4391 200.804 47.911C201.238 47.495 201.705 47.0949 202.156 46.6948C202.124 46.5988 202.091 46.5188 202.075 46.4228C201.448 46.5028 200.788 46.4868 200.176 46.6788C199.05 47.0149 197.955 47.447 196.861 47.911C196.652 48.007 196.442 48.3911 196.442 48.6312C196.475 49.2713 196.619 49.8954 196.716 50.5355C196.764 50.8395 196.78 51.1276 196.619 51.4636C196.33 50.5995 196.024 49.7353 195.718 48.8232C193.224 49.5593 191.083 51.1596 188.476 51.4156C188.428 51.3356 188.363 51.2716 188.315 51.1916C188.75 50.7915 189.2 50.3914 189.635 49.9914C189.683 50.0234 189.715 50.0714 189.763 50.1034C189.538 50.2314 189.313 50.3594 189.088 50.4715C190.568 50.7915 194.093 49.1272 195.268 47.767C193.497 47.607 191.856 47.591 190.262 48.3591C189.731 48.6152 189.12 48.7592 188.573 48.9832C187.993 49.2233 187.414 49.4953 186.85 49.7513C187.044 50.6795 188.235 51.1436 187.784 51.9917C187.028 51.9917 186.432 51.9117 185.869 52.0077C185.032 52.1517 184.694 51.7197 184.501 50.9995C184.42 50.9835 184.356 50.9835 184.275 50.9675C184.179 51.2876 183.97 51.6236 184.002 51.9437C184.05 52.6798 184.243 53.4159 184.308 54.1681C184.436 55.9444 184.549 57.7207 184.613 59.513C184.646 60.6811 184.131 61.0492 183.02 60.7452C182.94 60.7292 182.859 60.6972 182.795 60.6812C180.091 59.897 179.496 58.7128 180.493 56.0884C180.944 54.9202 181.427 53.784 181.894 52.6158C181.829 52.5358 181.765 52.4558 181.7 52.3598C181.266 52.5358 180.783 52.6478 180.413 52.9039C179.544 53.512 178.787 54.0881 177.564 53.576C176.969 53.3199 176.261 53.88 175.971 54.5361C175.601 55.3523 175.376 56.2484 175.038 57.0806C174.925 57.3526 174.7 57.5766 174.539 57.8327C174.265 57.6086 173.863 57.4326 173.734 57.1446C173.525 56.6645 173.476 56.1204 173.412 55.6083C173.364 55.2563 173.396 54.8882 173.396 54.3121C172.784 54.8722 172.269 55.2723 171.835 55.7523C171.4 56.2484 170.966 56.2804 170.419 56.0084C170.113 55.8484 169.775 55.7203 169.453 55.5923C168.31 55.1282 167.844 55.2723 166.991 56.1364C166.781 56.3604 166.331 56.3764 165.993 56.4404C165.381 56.5365 164.737 56.5045 164.142 56.6805C162.822 57.0966 161.535 57.6086 160.07 58.1367C160.585 58.4568 161.004 58.6328 161.309 58.9369C161.583 59.2089 161.728 59.625 161.937 59.977C161.647 60.1211 161.358 60.3771 161.052 60.4091C159.941 60.5371 158.783 60.7932 157.704 60.6491C153.343 60.073 149.239 61.0812 145.119 62.2654C143.751 62.6495 142.383 63.0015 140.999 63.3376C140.774 63.3856 140.355 63.3376 140.259 63.1776C139.776 62.4094 139.132 62.4894 138.424 62.7135C137.796 62.9055 137.185 63.0975 136.509 63.1616C137.555 62.1214 139.068 62.0734 140.243 61.4813C140.13 61.0172 140.049 60.6171 139.937 60.1211C137.732 61.3693 135.221 62.0254 133.403 63.9137C132.566 64.7938 132.083 65.834 132.019 67.0662C131.97 68.2344 131.858 69.3866 131.761 70.8588C131.198 70.3147 130.667 69.9467 130.361 69.4506C129.942 68.7785 129.637 68.0264 129.379 67.2742C129.283 66.9862 129.363 66.5861 129.508 66.2981C129.878 65.594 130.345 64.9379 130.731 64.2337C131.021 63.7056 131.246 63.1616 131.552 62.4734C130.168 62.3614 129.267 62.8895 128.414 63.6256C127.931 64.0577 127.335 64.3618 126.869 64.8258C126.514 65.1779 126.257 65.642 126.048 66.09C125.887 66.4741 125.855 66.9222 125.806 67.3382C125.774 67.5463 125.71 67.8503 125.822 67.9624C126.724 68.8425 125.887 69.2266 125.195 69.8027ZM121.429 57.9767C122.056 55.2242 122.668 52.6638 123.231 50.1034C123.746 47.783 123.956 45.4306 123.714 43.0462C123.65 42.3421 123.408 42.0061 122.7 41.798C121.928 41.558 121.187 41.1259 120.495 40.6938C119.594 40.1337 118.741 39.4616 117.856 38.8695C117.47 38.6135 117.051 38.4375 116.456 38.1334C116.665 38.6295 116.794 38.9015 116.906 39.1736C116.44 39.7497 115.86 39.6537 115.281 39.4776C114.718 39.3016 114.187 39.0616 113.623 38.8535C113.189 38.6775 112.947 38.8375 112.77 39.2856C112.384 40.3098 111.982 41.3179 111.531 42.3261C110.839 43.8464 110.244 45.3506 110.115 47.0789C110.018 48.4871 109.374 49.8474 108.972 51.2236C108.586 52.5358 108.344 53.88 108.715 55.2402C108.779 55.4963 108.956 55.8003 109.165 55.9284C111.048 57.0005 112.947 58.0407 114.846 59.0809C116.407 59.929 118.033 60.6491 119.852 60.6011C120.19 60.5851 120.705 60.3611 120.785 60.1211C120.898 59.801 120.737 59.3209 120.544 59.0009C120.334 58.6488 119.9 58.4248 119.691 58.0567C119.578 57.8487 119.707 57.4966 119.739 57.2086C119.98 57.2406 120.254 57.2086 120.447 57.3046C120.785 57.4166 121.026 57.6726 121.429 57.9767ZM163.144 34.7729C163.273 34.7889 163.225 34.7729 163.176 34.7729C158.734 35.877 154.293 36.9492 149.883 38.1014C149.4 38.2294 148.837 38.6615 148.644 39.1096C148.177 40.2138 148.193 41.382 148.724 42.5181C148.998 43.1262 149.271 43.7343 149.448 44.3745C149.963 46.1667 150.414 47.975 150.929 49.7673C151.219 50.8075 151.589 51.8317 151.959 53.0159C152.506 52.3758 152.989 52.0717 153.681 52.4878C153.874 52.5998 154.309 52.5038 154.518 52.3438C155.145 51.8637 155.87 52.0077 156.546 51.8637C157.576 51.6397 158.606 51.3036 159.571 50.8875C161.985 49.8474 164.287 48.5671 166.975 48.2951C167.57 48.2311 168.133 47.959 168.89 47.735C166.958 43.3663 165.092 39.1416 163.144 34.7729ZM126.547 45.1586C125.275 49.7513 126.885 54.3441 126.772 59.0489C128.108 58.3448 128.236 58.3928 128.542 59.673C129.009 59.769 129.427 59.849 129.83 59.913C129.942 59.929 130.087 59.961 130.2 59.929C131.504 59.561 132.823 59.2089 134.111 58.7928C134.819 58.5688 135.527 58.2968 136.155 57.9287C137.12 57.3686 138.022 56.7125 138.923 56.0884C139.534 55.6563 140.13 55.2242 140.677 54.7282C140.854 54.5681 140.967 54.1361 140.87 53.944C140.033 52.2958 140.693 50.3114 139.647 48.7272C139.615 48.6632 139.583 48.5511 139.615 48.5031C140.178 47.559 139.631 46.7588 139.309 45.9267C139.213 45.6707 139.164 45.2226 139.003 45.1746C137.877 44.8705 138.038 44.0544 138.134 43.2383C138.247 42.2141 138.166 42.1021 137.136 42.1981C135.624 42.3261 134.095 42.5021 132.582 42.6942C132.357 42.7262 132.115 42.9182 131.97 43.1102C131.455 43.7503 130.972 44.4385 130.474 45.0946C129.798 45.9587 129.411 46.0227 128.526 45.3986C128.381 45.3026 128.22 45.1746 128.059 45.1746C127.609 45.1266 127.158 45.1586 126.547 45.1586ZM87.712 46.9669C90.2388 47.431 92.2988 48.3271 93.9565 49.5593C94.3749 48.8872 94.729 48.2791 95.1635 47.719C95.244 47.623 95.759 47.671 95.8556 47.815C96.2096 48.3111 96.4832 48.8872 96.8051 49.4633C97.465 49.4953 97.4328 49.4633 97.7385 48.8072C98.1731 47.895 98.7686 47.0469 99.1226 46.1187C99.879 44.0864 100.281 41.91 101.762 40.1978C101.826 40.1177 101.907 40.0057 101.907 39.9257C101.826 38.8375 102.599 38.1974 103.162 37.4293C103.516 36.9492 103.758 36.3731 103.951 35.813C104.08 35.413 103.838 35.1249 103.371 35.2209C102.631 35.381 102.116 35.0129 101.585 34.5808C99.5411 32.9486 97.1753 31.9244 94.7451 30.8362C94.4393 32.1644 93.699 33.4126 95.2279 34.4048C95.421 34.5328 95.4049 34.9969 95.4854 35.3009C95.4049 35.333 95.3245 35.365 95.244 35.397C94.7773 35.0769 94.2945 34.7569 93.8116 34.4208C93.7312 34.5168 93.6507 34.5648 93.6185 34.6288C92.4597 37.3013 91.301 39.9577 90.1583 42.6302C90.0939 42.7902 90.0296 43.0142 90.0779 43.1743C90.3354 44.1024 89.8686 44.7585 89.2571 45.3826C88.7742 45.8307 88.3397 46.3108 87.712 46.9669ZM145.811 33.7807C145.859 33.7807 146.004 33.7967 146.133 33.7807C148.676 33.3646 151.219 32.9966 153.729 32.5165C154.357 32.3885 154.92 31.9084 155.516 31.5883C156.401 31.1083 155.773 30.3561 155.821 29.732C155.838 29.396 155.741 29.0439 155.709 28.7079C155.548 27.0756 155.194 25.5073 154.212 24.1311C153.826 23.603 153.375 23.2029 152.747 23.475C150.865 24.3071 148.837 24.3231 146.873 24.6592C144.137 25.1233 144.186 24.7552 144.604 27.7637C144.878 29.764 145.393 31.7164 145.811 33.7807ZM136.992 26.4035C135.704 26.5475 134.433 26.7075 133.177 26.8515C131.986 26.9796 130.86 27.1876 129.991 28.1478C129.765 28.3878 129.331 28.4198 129.009 28.5798C128.751 28.6919 128.397 28.8039 128.317 29.0119C128.011 29.748 127.705 30.5002 127.593 31.2843C127.351 33.0446 127.223 34.8369 127.062 36.5011C127.866 36.5011 128.558 36.3571 129.17 36.5332C131.31 37.1413 133.419 36.8532 135.527 36.4531C136.316 36.3091 137.04 35.797 137.925 35.397C137.265 35.0129 136.702 34.8689 136.46 34.5008C136.026 33.8447 135.752 33.0766 135.463 32.3405C135.366 32.0684 135.286 31.5723 135.414 31.4603C136.01 30.9322 135.72 30.4521 135.447 29.9881C134.964 29.1399 135.125 28.4038 135.752 27.7317C136.171 27.2516 136.589 26.8195 136.992 26.4035ZM137.668 21.7147C139.035 21.2826 140.484 20.8346 141.916 20.3385C142.818 20.0344 142.962 19.5863 142.544 18.7062C142.126 17.8101 141.739 16.8979 141.305 16.0338C140.806 15.0576 140.259 14.1294 139.728 13.1693C139.502 12.7692 139.196 12.6572 138.73 12.8172C137.941 13.0733 137.136 13.2493 136.316 13.4253C134.722 13.7934 133.113 14.0654 131.552 14.5295C130.924 14.7215 130.039 15.1856 129.91 15.6977C129.379 17.778 129.089 19.9224 128.751 22.0508C128.655 22.6749 128.639 23.299 128.574 23.9711C130.297 24.1471 131.697 23.699 132.968 22.7229C133.483 22.3228 133.676 21.9227 133.419 21.2346C132.904 19.8424 132.662 18.3862 133.065 16.9299C133.161 16.5618 133.354 16.1138 133.644 15.9377C134.207 15.5697 134.867 15.3296 135.511 15.1056C135.768 15.0096 136.251 14.9936 136.38 15.1536C136.927 15.8417 137.41 16.5779 137.861 17.33C137.989 17.57 138.038 18.0181 137.893 18.1941C137.748 18.3862 137.346 18.4182 137.04 18.4822C136.911 18.5142 136.766 18.4502 136.702 18.4502C136.992 19.4903 137.297 20.4825 137.668 21.7147ZM118.226 28.3558C118.435 28.3078 118.548 28.3078 118.628 28.2598C118.999 28.0517 119.32 27.8597 119.61 28.4198C119.9 28.9799 119.401 29.0279 119.143 29.2519C118.339 29.9401 117.454 30.5642 116.713 31.3323C116.214 31.8604 115.925 32.5965 115.587 33.1566C117.18 33.6367 118.612 34.0367 120.013 34.5328C121.413 35.0289 122.748 35.701 124.326 35.813C124.551 34.8049 125.018 33.8607 124.937 32.9646C124.808 31.4763 125.146 30.1161 125.436 28.7079C125.549 28.1478 125.613 27.5717 125.694 27.0116C124.052 26.8035 124.052 26.8035 123.006 25.1393C122.266 25.9394 122.073 25.9394 121.22 25.1393C120.994 24.9152 120.785 24.6592 120.528 24.4832C120.27 24.2911 119.964 24.1471 119.61 23.9391C119.127 25.4433 118.693 26.8515 118.226 28.3558ZM120.334 15.7937C121.831 16.8979 122.169 17.394 122.748 19.1383C123.103 20.1944 123.441 21.2666 123.891 22.2908C124.293 23.2029 125.098 23.603 126.112 23.539C126.514 23.507 126.724 23.363 126.788 22.9309C127.19 20.6265 127.625 18.3221 128.011 16.0018C128.043 15.8097 127.866 15.4417 127.721 15.4097C125.983 14.9136 124.728 13.6974 123.505 12.4812C122.926 11.9051 122.33 11.345 121.606 10.6569C121.01 13.5053 119.53 15.7777 118.307 18.1621C118.178 18.4022 117.92 18.6422 117.663 18.7542C117.212 18.9462 116.729 19.0583 116.134 19.2343C116.922 19.6344 117.566 19.9704 118.21 20.2905C118.854 20.5945 119.337 20.4985 119.514 19.6984C119.771 18.4022 120.061 17.1219 120.334 15.7937ZM92.0574 56.1684C84.4611 59.817 77.0579 63.4976 69.3006 66.3621C69.5581 66.4101 69.7995 66.3941 70.0248 66.3301C71.8596 65.93 73.6943 65.5299 75.5129 65.0979C80.6951 63.8337 85.7808 62.2814 90.5929 59.929C90.8665 59.801 91.2044 59.577 91.2849 59.3369C91.5585 58.3608 91.7677 57.3526 92.0574 56.1684ZM110.839 26.6595C110.791 26.5955 110.742 26.5155 110.694 26.4515C110.308 26.5315 109.922 26.6755 109.535 26.6755C109.213 26.6755 108.908 26.4995 108.602 26.3875C108.715 26.1154 108.763 25.7634 108.956 25.5713C109.246 25.2673 109.632 25.0432 109.986 24.8352C110.485 24.5312 111.08 24.3551 111.531 23.9871C111.982 23.619 112.432 23.1389 112.674 22.6108C113.012 21.8587 112.802 21.6347 111.949 21.5867C111.66 21.5707 111.354 21.5867 111.064 21.5227C110.099 21.2666 109.487 21.6027 109.213 22.5628C109.165 22.7549 109.004 22.9149 108.908 23.0749C108.618 22.9629 108.377 22.8829 108.023 22.7549C107.347 25.0593 106.703 27.2996 106.043 29.556C106.107 29.604 106.172 29.668 106.22 29.716C107.588 28.4358 109.761 28.3878 110.839 26.6595ZM188.009 45.4146C188.878 45.0786 189.78 44.8545 190.536 44.3905C191.502 43.7984 192.274 42.9342 193.433 42.5982C194.125 42.3901 194.109 41.766 193.481 41.3339C192.757 40.8379 191.936 40.7579 191.18 41.1099C190.134 41.606 189.136 42.2301 188.058 42.8382C188.428 43.1583 188.621 43.3343 188.991 43.6543C187.864 43.8304 187.349 44.2944 188.009 45.4146ZM123.698 39.1256C122.523 38.9656 121.348 38.4695 120.898 37.5253C120.35 36.3731 119.433 36.1651 118.371 35.9891C117.389 35.829 116.44 35.589 115.458 35.397C115.217 35.349 114.975 35.3169 114.734 35.2689C114.702 35.333 114.653 35.397 114.621 35.461C114.734 35.605 114.83 35.797 114.975 35.877C117.164 37.1573 119.337 38.4535 121.558 39.7017C122.378 40.1497 122.974 39.9577 123.698 39.1256ZM182.827 53.0799C182.602 53.464 182.264 53.832 182.151 54.2641C181.861 55.3683 181.668 56.4885 181.459 57.6086C181.266 58.6808 181.604 59.2729 182.553 59.673C183.294 59.977 183.487 59.881 183.616 59.0969C183.97 57.0645 183.439 55.1122 182.827 53.0799ZM128.945 4.73589C128.14 6.06411 127.351 7.40833 126.547 8.73655C127.528 9.42467 128.397 10.0168 129.218 10.5929C129.46 9.36066 129.717 8.17646 129.926 6.99226C130.136 5.87208 129.846 5.21597 128.945 4.73589ZM148.273 58.8728C148.322 58.9689 148.354 59.0809 148.402 59.1769C149.303 59.0809 150.205 58.9529 151.106 58.8728C152.538 58.7608 153.745 58.0727 154.952 57.4006C155.226 57.2406 155.483 56.9205 155.596 56.6325C155.677 56.4084 155.596 56.0564 155.467 55.8323C155.403 55.7363 155.001 55.7203 154.824 55.8163C152.635 56.8085 150.446 57.8487 148.273 58.8728ZM95.8073 29.0279C97.0787 29.86 98.2214 30.6442 99.4123 31.3483C100.04 31.7324 100.748 32.0204 101.44 32.3085C101.585 32.3725 101.907 32.2284 102.003 32.0844C102.1 31.9404 102.084 31.6363 102.003 31.4603C101.923 31.3003 101.649 31.2203 101.488 31.0923C100.571 30.3241 99.4767 29.684 98.8168 28.7399C98.2696 27.9557 97.8512 27.9397 97.1592 28.2758C96.7246 28.4838 96.3223 28.7399 95.8073 29.0279ZM147.372 21.2986C148.644 21.1066 149.738 19.9224 151.347 20.4505C150.156 19.3303 147.227 18.5462 144.91 18.7062C145.731 19.5863 146.519 20.4025 147.372 21.2986ZM85.475 51.4956C86.2636 52.2478 87.02 52.9679 87.7925 53.688C87.8569 53.752 87.9856 53.784 88.0822 53.784C89.6594 53.672 91.2527 53.544 92.8943 53.4159C92.0735 52.2478 90.3997 51.2876 89.1766 51.3516C90.1583 51.8317 91.0435 52.2478 92.1218 52.7758C89.5468 53.4479 87.6155 51.9437 85.475 51.4956ZM102.631 47.0629C103.629 46.7748 104.434 46.5988 105.206 46.3268C106.075 46.0227 106.96 45.7027 107.781 45.2706C108.457 44.9025 108.827 44.2464 108.892 43.4623C108.779 43.4463 108.731 43.4143 108.698 43.4303C106.832 44.4065 104.965 45.3666 103.098 46.3588C102.921 46.4388 102.84 46.7108 102.631 47.0629ZM83.769 48.9192C84.0748 49.0632 84.3162 49.2393 84.5898 49.2873C85.6681 49.4793 86.7464 49.7033 87.8247 49.7994C89.9491 49.9754 92.0735 50.1354 93.6024 52.1037C93.7633 51.7677 93.8599 51.5436 94.0691 51.0956C90.7216 50.0554 87.4706 49.0472 84.2036 48.0231C84.0265 48.3911 83.9139 48.6152 83.769 48.9192ZM111.048 38.0694C110.855 38.0374 110.791 38.0214 110.759 38.0374C108.538 39.2536 106.3 40.4698 104.096 41.702C103.903 41.814 103.822 42.1021 103.645 42.4061C103.919 42.4061 104.015 42.4381 104.063 42.4061C106.268 41.2059 108.473 40.0217 110.662 38.7895C110.839 38.6775 110.903 38.3414 111.048 38.0694ZM164.882 53.608C164.818 53.48 164.754 53.3519 164.689 53.2399C163.949 53.56 163.16 53.8 162.484 54.2161C161.728 54.6642 161.084 55.2723 160.36 55.7843C160.199 55.8964 159.893 55.9924 159.732 55.9284C158.767 55.5603 158.219 55.8483 158.026 56.9525C160.424 55.9924 163.225 55.9444 164.882 53.608ZM92.9426 58.3768C94.0048 57.2886 95.1152 56.2644 95.5659 54.7762C94.8899 54.2641 94.3749 54.4401 93.9082 54.9682C93.0552 55.9444 92.8943 57.1126 92.9426 58.3768ZM87.7764 42.5501C86.7947 43.8464 85.8612 45.1106 84.9278 46.3588C84.8795 46.4068 84.8795 46.4868 84.8473 46.5828C85.3784 46.4868 85.8612 46.3908 86.3602 46.2788C86.4889 46.2468 86.6338 46.1507 86.7303 46.0387C87.1166 45.5426 87.4545 45.0146 87.8569 44.5345C88.4524 43.8144 88.4685 43.3823 87.7764 42.5501ZM135.849 11.8411C135.881 11.9371 135.929 12.0171 135.962 12.1131C136.477 11.8891 136.992 11.633 137.523 11.457C138.472 11.153 139.035 10.8489 138.73 9.58469C138.424 8.30448 138.311 8.00043 136.879 8.30448C137.104 8.88058 137.281 9.45667 137.539 10.0008C137.861 10.6409 137.651 10.9929 137.056 11.265C136.67 11.441 136.267 11.649 135.849 11.8411ZM128.542 12.6092C128.059 12.0811 127.625 11.521 127.11 11.0409C126.466 10.4488 126.128 10.5289 125.661 11.265C125.501 11.521 125.307 11.7611 125.13 12.0011C126.144 12.9613 127.689 13.2493 128.542 12.6092ZM194.254 45.5266C194.221 45.4306 194.173 45.3346 194.141 45.2226C192.29 45.4306 190.439 45.7027 189.055 47.2549C189.425 47.431 189.828 47.527 190.134 47.415C191.518 46.8229 192.87 46.1667 194.254 45.5266ZM164.432 29.2519C163.997 29.636 163.369 29.9721 163.402 30.2441C163.498 31.0442 163.804 31.8604 164.705 32.1804C165.011 32.2924 165.349 32.2444 165.687 32.2764C165.687 31.9404 165.784 31.5723 165.655 31.3003C165.333 30.6602 164.931 30.0681 164.432 29.2519ZM145.441 45.0786C146.262 45.6707 146.744 45.2226 147.195 44.6465C147.823 43.8784 148.032 43.0622 147.63 42.5501C147.533 42.4221 147.179 42.3261 147.115 42.3901C146.664 42.8542 145.892 43.3983 145.924 43.8624C145.972 44.4385 145.65 44.6625 145.441 45.0786ZM149.175 47.447C146.793 48.9032 146.326 49.9114 147.42 50.8235C148.016 50.0394 148.627 49.2873 149.159 48.4711C149.303 48.2311 149.175 47.799 149.175 47.447ZM103.114 50.3754C103.178 50.4715 103.227 50.5675 103.291 50.6635C103.919 50.3434 104.546 49.9914 105.19 49.7033C106.204 49.2553 106.397 48.9832 106.365 47.783C105.093 48.5031 103.758 49.0152 103.114 50.3754ZM148.418 52.8719C148.821 52.4238 149.223 52.0877 149.48 51.6717C149.738 51.2716 149.883 50.7915 149.995 50.3274C150.028 50.1834 149.867 49.8634 149.722 49.8314C149.577 49.7833 149.32 49.9274 149.191 50.0714C148.676 50.6315 148.193 51.2236 147.71 51.7837C147.952 52.1357 148.145 52.4558 148.418 52.8719ZM146.39 48.1191C148.402 46.3748 148.869 45.6387 148.145 44.8385C146.728 45.7507 145.827 47.431 146.39 48.1191ZM149.062 56.2644C149.03 56.1684 148.982 56.0564 148.949 55.9604C148.048 56.2964 147.147 56.6485 146.229 56.9845C145.827 57.1286 145.409 57.2246 145.006 57.3686C144.33 57.6246 143.671 57.8967 143.011 58.1527C143.059 58.2647 143.107 58.3768 143.156 58.4888C145.039 57.5286 147.453 57.9447 149.062 56.2644ZM114.653 26.8836C115.49 26.5635 116.343 26.2755 117.164 25.9394C117.824 25.6514 118.097 25.1393 117.888 24.4031C114.943 25.7314 114.734 25.8914 114.653 26.8836ZM109.857 40.5978C108.039 41.67 106.349 42.6942 104.659 43.7023C104.514 43.7984 104.385 43.9264 104.24 44.0224C105.85 43.4303 107.379 42.6942 108.924 42.0221C109.503 41.766 109.825 41.414 109.857 40.5978ZM113.285 30.3241C115.925 29.764 116.826 29.0919 116.568 27.9717C113.977 29.0599 113.672 29.268 113.285 30.3241ZM160.537 32.4685C159.7 32.3405 158.944 32.2284 158.139 32.1164C157.994 32.7405 158.139 33.2686 158.702 33.5407C159.169 33.7807 160.135 33.1726 160.537 32.4685ZM145.312 42.9342C146.728 42.2621 147.227 41.446 146.68 40.7418C146.342 40.8379 145.988 40.8539 145.763 41.0459C145.505 41.2539 145.248 41.59 145.183 41.926C145.103 42.2461 145.264 42.6142 145.312 42.9342ZM144.234 52.5358C144.282 52.6318 144.33 52.7438 144.379 52.8399C144.894 52.7758 145.682 52.8719 145.859 52.5998C146.149 52.1517 146.02 51.4476 146.085 50.8555C145.972 50.8075 145.859 50.7755 145.763 50.7275C145.232 51.3356 144.733 51.9437 144.234 52.5358ZM74.9174 49.4633C74.9335 49.3673 74.9496 49.2713 74.9657 49.1752C73.4368 48.5511 71.8756 48.1671 70.218 48.2151C70.2019 48.2951 70.1858 48.3911 70.1697 48.4711C71.7469 48.8072 73.3241 49.1272 74.9174 49.4633ZM121.284 19.4423C121.187 19.4423 121.091 19.4583 120.978 19.4583C120.946 19.8744 120.721 20.4985 120.898 20.6585C121.413 21.0906 122.105 21.3306 122.716 21.6507C122.765 21.5707 122.797 21.5067 122.845 21.4267C122.491 20.9626 122.137 20.4985 121.767 20.0344C121.622 19.8424 121.445 19.6344 121.284 19.4423ZM142.045 30.6442C140.468 31.4923 139.052 32.6925 138.923 33.3166C140.259 32.6765 141.176 31.7004 142.045 30.6442ZM174.732 46.1988C174.265 46.6148 173.847 46.9829 173.364 47.415C174.233 47.927 174.828 47.719 175.472 47.2549C175.215 46.8869 174.989 46.5668 174.732 46.1988ZM145.94 59.0329C145.908 58.9049 145.859 58.7928 145.827 58.6648C144.524 59.0169 143.236 59.3849 141.932 59.737C141.965 59.849 141.997 59.977 142.029 60.0891C143.333 59.753 144.636 59.3849 145.94 59.0329ZM137.426 23.667C137.41 23.587 137.41 23.507 137.394 23.427C136.203 23.2189 135.076 23.379 134.014 23.9551C134.03 24.0351 134.046 24.0991 134.046 24.1791C135.173 24.0191 136.3 23.8431 137.426 23.667ZM102.712 58.0887C103.339 58.4568 103.87 58.7608 104.401 59.0809C104.466 59.0329 104.53 59.0009 104.578 58.9529C104.369 58.4088 104.144 57.8487 103.903 57.2246C103.452 57.5606 103.13 57.7847 102.712 58.0887ZM181.137 45.5266C181.717 45.2066 182.087 44.9986 182.602 44.7105C182.006 44.3905 181.556 44.1344 181.121 43.8944C181.041 43.9264 180.96 43.9744 180.88 44.0064C180.944 44.4385 181.024 44.8705 181.137 45.5266ZM133.708 63.0015C134.497 62.4894 135.237 62.0094 136.09 61.4493C134.32 61.5293 133.692 61.9134 133.708 63.0015ZM181.443 51.0155C180.332 51.0636 179.801 51.7517 179.19 52.3118C180.059 52.1837 180.976 52.1357 181.443 51.0155ZM104.659 37.9254C104.788 38.0534 104.916 38.1814 105.045 38.3094C105.383 38.0374 105.737 37.7814 106.027 37.4453C106.059 37.3973 105.721 37.0292 105.56 36.8052C105.254 37.1733 104.965 37.5573 104.659 37.9254ZM122.813 23.683C122.845 23.587 122.893 23.491 122.925 23.395C122.282 23.0109 121.831 22.2268 120.914 22.4988C120.865 22.6108 120.817 22.7229 120.769 22.8349C121.461 23.1229 122.137 23.411 122.813 23.683ZM102.068 28.6278C101.714 27.7477 101.038 27.6197 100.153 28.2598C100.796 28.3878 101.44 28.4998 102.068 28.6278ZM154.389 54.8722C153.391 54.4561 153.037 54.6642 152.941 55.6723C153.488 55.3843 153.938 55.1282 154.389 54.8722ZM105.464 33.5247C105.496 33.4286 105.528 33.3326 105.56 33.2526C105.27 33.1086 104.981 32.8525 104.707 32.8685C104.466 32.8685 104.224 33.1726 103.983 33.3486C104.031 33.4286 104.063 33.5247 104.112 33.6047C104.562 33.5567 105.013 33.5407 105.464 33.5247ZM192.467 47.2069C193.272 47.1909 194.109 47.1589 194.704 46.1988C193.819 46.5828 193.143 46.8869 192.467 47.2069ZM129.186 44.0224C129.315 44.1024 129.444 44.1664 129.572 44.2464C129.846 43.7663 130.136 43.2703 130.409 42.7902C130.313 42.7262 130.216 42.6782 130.119 42.6142C129.814 43.0942 129.492 43.5583 129.186 44.0224ZM110.308 30.0041C110.276 29.9081 110.227 29.812 110.195 29.732C109.6 29.9561 109.02 30.1801 108.425 30.4041C108.473 30.5322 108.538 30.6602 108.586 30.7722C109.149 30.5162 109.729 30.2601 110.308 30.0041ZM171.255 51.0476C170.386 51.1116 170 51.4956 169.871 52.3598C170.306 51.9597 170.74 51.5276 171.255 51.0476ZM113.108 32.8845C113.945 33.2366 114.219 33.0286 114.396 32.0044C113.945 32.3085 113.559 32.5805 113.108 32.8845ZM167.409 52.3438C168.278 52.7918 168.536 52.6478 168.697 51.7677C168.214 51.9917 167.811 52.1677 167.409 52.3438ZM102.567 53.3039C102.856 53.672 103.017 53.992 103.146 53.992C103.452 53.976 103.742 53.8 104.047 53.688C104.031 53.608 103.999 53.528 103.983 53.4319C103.597 53.3999 103.227 53.3679 102.567 53.3039ZM78.3615 46.0867C78.3776 46.0067 78.4098 45.9107 78.4259 45.8307C77.7338 45.6547 77.0418 45.4786 76.3497 45.3026C76.3337 45.3826 76.3015 45.4786 76.2854 45.5586C76.9774 45.7347 77.6694 45.9107 78.3615 46.0867Z" fill="#9E958F"/>
<path d="M176.985 112.738C177.146 112.658 177.291 112.546 177.452 112.53C178.321 112.418 179.206 112.258 180.091 112.274C180.848 112.274 180.976 111.922 180.848 111.329C180.526 109.937 180.156 108.545 179.801 107.153C179.705 106.769 179.48 106.401 179.447 106.017C179.383 105.28 178.916 105.184 178.337 105.168C176.824 105.152 175.311 105.152 173.798 105.152C172.704 105.152 171.61 105.136 170.515 105.2C170.274 105.216 169.904 105.473 169.839 105.697C169.244 107.681 168.713 109.681 168.101 111.874C169.163 112.034 170.177 112.162 171.175 112.354C171.465 112.402 171.706 112.642 171.964 112.802C171.738 112.93 171.513 113.186 171.288 113.186C170.113 113.154 168.954 113.026 167.779 113.01C166.685 113.01 165.591 113.122 164.496 113.154C164.239 113.154 163.981 113.026 163.724 112.962C163.917 112.77 164.062 112.482 164.303 112.386C164.786 112.194 165.349 112.162 165.832 111.938C166.202 111.762 166.637 111.442 166.765 111.089C167.57 108.817 168.294 106.497 169.051 104.208C169.485 102.928 169.952 101.664 170.37 100.368C170.95 98.5594 171.481 96.7351 172.076 94.9268C172.833 92.6064 173.637 90.286 174.458 87.9976C174.523 87.8216 174.893 87.6616 175.134 87.6456C175.746 87.5656 176.293 87.6616 176.534 88.3817C176.872 89.4379 177.275 90.494 177.645 91.5502C178.611 94.3027 179.576 97.0711 180.558 99.8236C181.33 101.984 182.119 104.112 182.891 106.273C183.358 107.601 183.777 108.945 184.259 110.257C184.597 111.169 185.016 112.05 186.223 112.018C186.271 112.018 186.336 112.034 186.368 112.066C187.189 112.866 188.154 112.498 189.072 112.354C189.699 112.258 190.295 112.082 191.019 111.906C191.099 110.785 191.18 109.585 191.309 108.369C191.775 103.936 191.695 99.5035 191.55 95.0548C191.486 93.2305 191.373 91.3902 191.341 89.5659C191.325 88.9738 191.099 88.7817 190.536 88.7497C189.844 88.7177 189.152 88.6217 188.46 88.5097C188.154 88.4617 187.881 88.3017 187.591 88.2057C187.607 88.1096 187.623 87.9976 187.639 87.9016C188.379 87.9016 189.136 87.9016 189.876 87.9016C192.306 87.8856 194.72 87.8216 197.151 87.8856C198.567 87.9176 200.015 87.9816 201.367 88.3337C203.62 88.9418 204.554 90.8141 204.876 92.9424C205.149 94.7507 205.085 96.6231 204.361 98.3353C203.846 99.5195 203.089 100.56 201.931 101.376C200.321 102.512 198.599 102.56 196.813 102.432C196.346 102.4 195.879 102.208 195.413 102.08C195.429 102 195.445 101.904 195.461 101.824C195.767 101.792 196.056 101.76 196.362 101.744C199.356 101.68 201.625 99.7756 201.77 96.511C201.834 94.9748 201.802 93.4545 201.222 92.0303C200.402 90.046 198.921 88.9418 196.668 89.0698C196.137 89.1018 195.606 89.1338 195.026 89.1498C195.026 89.7099 195.026 90.206 195.026 90.7021C194.978 93.5505 194.881 96.399 194.881 99.2475C194.881 100.864 195.058 102.48 195.075 104.096C195.091 105.537 194.946 106.977 194.978 108.401C194.994 109.457 195.123 110.513 195.252 111.57C195.268 111.714 195.557 111.922 195.734 111.954C196.459 112.082 197.199 112.13 197.939 112.274C198.245 112.338 198.503 112.53 198.792 112.674C198.76 112.802 198.728 112.93 198.696 113.058C191.486 112.738 184.259 113.394 177.049 113.074C177.017 112.962 177.001 112.85 176.985 112.738ZM178.401 103.648C177.275 100.032 176.261 96.431 174.33 93.2305C174.233 93.2465 174.136 93.2465 174.024 93.2625C172.881 96.7031 171.738 100.144 170.564 103.712C173.187 104 175.794 104.128 178.401 103.648ZM193.079 90.6861H193.063C193.063 90.238 193.095 89.7739 193.047 89.3258C193.031 89.1178 192.854 88.9098 192.757 88.7017C192.644 88.9098 192.451 89.1178 192.451 89.3258C192.435 90.302 192.483 91.2942 192.483 92.2863C192.483 96.7351 192.467 101.168 192.467 105.617C192.467 107.585 192.483 109.553 192.516 111.522C192.516 111.746 192.612 111.97 192.677 112.194C192.805 111.986 193.047 111.762 193.047 111.554C193.047 110.705 192.918 109.857 192.934 109.009C192.966 106.113 193.047 103.232 193.079 100.336C193.095 97.1031 193.079 93.9026 193.079 90.6861ZM175.263 90.414C175.134 90.446 175.005 90.494 174.877 90.526C175.327 93.0385 176.486 95.3428 177.291 97.7592C178.095 100.176 179.109 102.528 179.85 104.96C180.59 107.377 181.652 109.649 182.36 112.066C182.489 112.018 182.634 111.97 182.763 111.922C180.268 104.752 177.758 97.5832 175.263 90.414ZM202.623 98.1753C203.958 94.1426 202.558 89.9339 199.871 89.1498C203.154 91.4702 202.8 94.8468 202.623 98.1753Z" fill="#9E958F"/>
<path d="M146.889 110.386C148.386 110.578 149.705 110.818 151.009 110.882C153.568 111.01 156.143 111.058 158.702 111.106C160.327 111.122 160.746 110.77 161.164 109.201C161.374 108.417 161.567 107.617 161.792 106.833C161.889 106.481 162.017 106.113 162.21 105.793C162.323 105.601 162.613 105.505 162.822 105.377C162.919 105.601 163.112 105.825 163.096 106.033C163.047 106.641 162.902 107.233 162.822 107.841C162.645 109.425 162.484 111.01 162.323 112.594C162.259 113.202 161.872 113.314 161.357 113.282C159.523 113.202 157.688 113.09 155.837 113.058C153.455 113.026 151.073 113.074 148.692 113.074C147.356 113.074 146.02 113.026 144.684 113.026C143.622 113.026 142.544 113.106 141.481 113.122C141.208 113.122 140.95 112.994 140.677 112.914C140.838 112.658 140.999 112.418 141.176 112.162C141.578 111.602 142.013 111.042 142.399 110.466C142.56 110.226 142.592 109.905 142.753 109.681C143.912 108.081 145.247 106.593 146.197 104.897C147.082 103.344 148.434 102.064 148.901 100.24C149.094 99.4877 149.802 98.8956 150.253 98.1915C151.009 96.9913 151.749 95.7751 152.457 94.5429C153.31 93.0707 154.147 91.5664 154.968 90.0622C155.435 89.198 155.821 88.3019 156.256 87.4377C156.578 86.7976 156.932 86.1735 157.366 85.3574C156.079 85.0373 154.807 84.5573 153.52 84.4612C151.669 84.3012 149.802 84.3812 147.935 84.4452C146.857 84.4772 145.779 84.6693 144.7 84.8293C144.539 84.8453 144.314 85.0373 144.282 85.1974C143.912 86.4936 143.574 87.7898 143.22 89.086C143.171 89.294 143.123 89.5341 142.994 89.6781C142.866 89.8221 142.624 89.9502 142.431 89.9662C142.334 89.9662 142.141 89.6461 142.157 89.4861C142.254 88.5419 142.415 87.6138 142.495 86.6856C142.608 85.5014 142.688 84.3012 142.753 83.101C142.785 82.6369 142.914 82.4609 143.429 82.4929C145.328 82.5729 147.243 82.6049 149.142 82.6529C150.397 82.6849 151.653 82.909 152.876 82.765C155.564 82.4449 158.251 82.941 160.923 82.6689C161.325 82.6369 161.711 82.4769 162.114 82.4929C162.484 82.5089 163.079 82.6049 163.16 82.813C163.305 83.213 163.273 83.7731 163.079 84.1572C162.323 85.6294 161.502 87.0697 160.665 88.5099C160.199 89.31 159.668 90.0782 159.201 90.8943C158.992 91.2464 158.911 91.6784 158.686 92.0465C157.559 93.9508 156.401 95.8551 155.258 97.7594C155.016 98.1755 154.839 98.6236 154.678 99.0717C154.067 100.752 152.651 101.904 151.83 103.44C151.025 104.929 150.365 106.481 149.689 108.033C149.207 109.121 148.643 110.065 147.291 110.177C147.211 110.129 147.13 110.226 146.889 110.386ZM142.801 111.794C142.801 111.874 142.817 111.954 142.817 112.034C143.268 111.906 143.912 111.906 144.105 111.618C145.183 110.081 146.181 108.465 147.179 106.865C148.064 105.441 148.901 104 149.77 102.56C150.832 100.816 151.926 99.1037 152.956 97.3434C154.019 95.5191 155.016 93.6628 156.063 91.8225C157.237 89.7741 158.428 87.7258 159.603 85.6934C159.925 85.1334 160.279 84.5893 160.633 83.9972C159.812 83.6931 159.523 84.1892 159.249 84.6853C158.267 86.4776 157.318 88.2859 156.32 90.0622C155.387 91.7264 154.389 93.3587 153.407 95.007C152.087 97.2154 150.8 99.4557 149.416 101.632C147.259 105.041 145.006 108.401 142.801 111.794Z" fill="#9E958F"/>
<path d="M23.8996 106.801C23.5938 107.521 23.3042 108.241 22.9662 108.961C22.5156 109.921 22.0166 110.849 21.5499 111.794C21.4695 111.954 21.5016 112.146 21.4695 112.338C21.4051 112.978 21.0832 113.25 20.4394 113.074C18.9427 112.658 17.4299 112.866 15.9171 112.962C13.9536 113.09 12.0545 113.042 10.0589 112.466C7.6287 111.762 5.90665 110.177 3.9432 108.865C2.96147 108.209 2.51084 107.073 1.94755 106.049C-0.0319977 102.528 -0.305594 98.7675 0.209411 94.8468C0.434725 93.1505 0.820979 91.5343 1.64177 90.078C2.31771 88.8778 3.26725 87.8216 4.10413 86.7014C5.23071 85.1972 6.92057 84.3811 8.46558 83.4689C9.44731 82.8928 10.7509 82.6688 11.9097 82.6368C14.6939 82.5728 17.4782 82.7488 20.2624 82.7808C21.0349 82.7968 21.7913 82.6528 22.5638 82.5728C22.9662 82.5248 23.2881 82.5728 23.3042 83.0528C23.4007 84.9892 23.4812 86.9255 23.5617 88.8618C23.5617 88.9898 23.5778 89.1499 23.5134 89.2459C23.4007 89.4059 23.2398 89.5339 23.0949 89.6619C22.9501 89.5019 22.7248 89.3739 22.6765 89.1979C22.3868 88.0137 22.1132 86.8295 21.8879 85.6293C21.7913 85.1492 21.5338 84.9572 21.0993 84.8772C18.4921 84.3651 15.8849 83.933 13.2133 84.3011C11.7165 84.5091 10.429 85.1012 9.27028 86.0613C7.77354 87.2935 6.55041 88.7178 5.87446 90.5101C5.40774 91.7583 4.95711 93.1025 4.90883 94.4147C4.81227 96.7991 4.9893 99.1835 5.13414 101.568C5.19852 102.72 5.7779 103.728 6.45384 104.672C7.0976 105.569 7.66089 106.545 8.28855 107.457C9.60825 109.393 11.4269 110.529 13.7605 110.753C15.1124 110.881 16.4803 110.929 17.8483 110.913C19.2324 110.913 20.2946 110.177 21.1476 109.185C21.7752 108.449 22.3385 107.649 22.9662 106.913C23.111 106.737 23.4168 106.705 23.6421 106.593C23.7548 106.673 23.8353 106.737 23.8996 106.801ZM13.3098 112.194C13.2938 112.066 13.2938 112.034 13.2777 112.018C13.2133 111.97 13.1489 111.922 13.0684 111.922C10.7509 111.602 8.77137 110.609 7.06541 109.025C5.90665 107.937 4.60305 106.993 4.00757 105.425C3.55694 104.24 2.83272 103.104 2.6235 101.888C2.31771 100.112 2.22115 98.2714 2.28552 96.4791C2.33381 95.1188 2.54303 93.6786 3.07413 92.4464C3.78226 90.7821 4.58695 89.1499 5.72962 87.6776C6.63088 86.5254 7.78964 85.7893 8.85184 84.9092C9.222 84.6051 9.737 84.4291 10.2037 84.2851C11.4108 83.917 12.6339 83.5969 13.7927 83.2769C13.8249 83.2929 13.7766 83.2609 13.7283 83.2609C10.7992 83.2289 8.4173 84.3811 6.26072 86.3654C4.74789 87.7576 3.62132 89.3899 2.52693 91.0702C2.25334 91.5022 2.02802 91.9983 1.88318 92.4944C1.33598 94.4947 1.01411 96.5111 1.12676 98.6394C1.27161 101.184 1.86708 103.504 3.17069 105.745C4.39383 107.857 6.21244 109.249 8.07933 110.641C8.25636 110.769 8.51386 110.817 8.73918 110.897C9.222 111.089 9.72091 111.25 10.1876 111.474C11.1694 111.97 12.1994 112.162 13.3098 112.194Z" fill="#9E958F"/>
<path d="M80.7591 112.386C81.8052 111.746 83.141 112.21 84.332 111.634C84.4285 109.761 84.5573 107.825 84.6216 105.889C84.7021 103.536 84.7665 101.2 84.7504 98.8476C84.7504 96.2231 84.6699 93.5987 84.5895 90.9743C84.5734 90.1581 83.2698 88.8779 82.3685 88.7339C81.6604 88.6219 80.9683 88.4939 80.2602 88.3658C80.2441 88.2858 80.228 88.2058 80.2119 88.1258C80.405 88.0298 80.5821 87.8537 80.7752 87.8537C82.3202 87.8377 83.8652 87.8698 85.4102 87.8537C85.9896 87.8537 86.569 87.7577 87.1484 87.7897C87.3737 87.8057 87.6956 87.9498 87.8082 88.1418C89.2728 90.7022 90.85 93.1826 92.8295 95.391C93.1675 95.7591 93.3767 96.2391 93.6503 96.6552C94.1331 97.3753 94.6803 98.0634 95.131 98.7996C96.1932 100.496 97.2232 102.224 98.3015 103.936C98.559 104.352 98.7199 104.945 99.428 104.929C99.5568 104.929 99.7177 105.137 99.8465 105.265C100.217 105.665 100.587 106.097 100.957 106.513C101.054 106.481 101.134 106.433 101.231 106.401C101.279 105.313 101.359 104.224 101.375 103.12C101.424 100.8 101.472 98.4955 101.472 96.1751C101.472 94.0948 101.424 92.0304 101.408 89.9501C101.408 89.198 100.86 89.246 100.345 89.166C99.3315 89.0059 98.3336 88.7979 97.3358 88.6059C97.3358 88.5099 97.3358 88.4138 97.3197 88.3178C97.5129 88.2378 97.706 88.0778 97.8991 88.0778C100.764 88.0618 103.645 88.0618 106.509 88.0458C106.542 88.0458 106.574 88.0458 106.59 88.0458C106.767 88.1418 106.944 88.2538 107.137 88.3658C106.96 88.4939 106.783 88.7179 106.574 88.7499C105.689 88.9099 104.787 89.0379 103.902 89.134C103.371 89.198 103.21 89.422 103.194 89.9661C103.049 93.7427 102.808 97.5034 102.695 101.28C102.599 104.144 102.647 107.025 102.615 109.905C102.599 110.994 102.534 112.082 102.47 113.17C102.454 113.314 102.357 113.442 102.228 113.746C101.585 112.946 100.973 112.274 100.442 111.538C99.5568 110.321 98.8647 108.929 97.7865 107.905C96.6599 106.833 95.9678 105.505 95.0344 104.32C93.7147 102.624 92.4433 100.912 91.2041 99.1676C90.1097 97.6314 89.0957 96.0311 88.0014 94.4788C87.5025 93.7587 86.9231 93.0866 86.3437 92.3345C86.2632 92.9586 86.1023 93.5827 86.0862 94.2068C86.054 95.9511 86.0862 97.7114 86.0701 99.4717C86.0379 102.032 85.9735 104.577 85.9574 107.137C85.9413 108.513 85.9896 109.905 85.9896 111.282C85.9896 111.778 86.2793 111.97 86.746 112.018C87.4059 112.082 88.0818 112.13 88.7256 112.242C88.9348 112.274 89.1118 112.498 89.305 112.626C89.1118 112.706 88.9026 112.882 88.7095 112.882C86.8587 112.85 85.024 112.802 83.1732 112.754C82.3846 112.738 81.596 112.754 80.8074 112.754C80.7913 112.594 80.7752 112.498 80.7591 112.386ZM89.2245 94.4948C89.1279 94.1588 89.1118 93.7587 88.9348 93.4707C88.0818 92.1905 87.1967 90.9423 86.2954 89.6941C86.0218 89.326 85.6516 89.0539 85.3137 88.7339C85.2493 88.7979 85.1688 88.8619 85.1045 88.9259C85.5229 89.502 85.9413 90.0941 86.3759 90.6702C87.3093 91.9664 88.275 93.2146 89.2245 94.4948C89.5303 94.9589 89.8039 95.455 90.1258 95.9031C91.1397 97.3113 92.1858 98.6875 93.1836 100.112C93.94 101.184 94.616 102.336 95.4046 103.392C96.515 104.881 97.706 106.305 98.8326 107.761C99.6533 108.833 100.458 109.921 101.295 111.042C101.617 110.353 101.424 109.873 100.925 109.441C100.651 109.201 100.361 108.945 100.152 108.641C99.3154 107.505 98.5268 106.353 97.6899 105.233C95.0988 101.792 92.5077 98.3675 89.8844 94.9429C89.7234 94.7349 89.4337 94.6389 89.2245 94.4948Z" fill="#9E958F"/>
<path d="M254.734 112.866C255.41 112.69 256.086 112.45 256.778 112.37C257.502 112.29 258.243 112.354 259.031 112.354C258.725 111.01 258.5 109.729 258.146 108.497C257.889 107.585 257.486 106.721 257.1 105.841C257.036 105.681 256.746 105.553 256.553 105.537C254.686 105.425 252.819 105.313 250.952 105.249C249.938 105.217 248.924 105.249 247.91 105.297C247.717 105.297 247.411 105.441 247.363 105.585C246.703 107.489 246.076 109.393 245.448 111.298C245.207 112.066 245.303 112.178 246.14 112.258C246.961 112.338 247.782 112.418 248.586 112.562C248.892 112.61 249.182 112.818 249.471 112.962C249.439 113.074 249.423 113.17 249.391 113.282C248.393 113.282 247.395 113.282 246.414 113.282C245.834 113.282 245.271 113.202 244.692 113.25C243.613 113.33 242.535 113.49 241.457 113.554C241.054 113.57 240.652 113.426 239.992 113.314C240.314 112.978 240.443 112.802 240.62 112.69C240.749 112.61 240.926 112.594 241.087 112.594C242.503 112.594 243.42 112.13 243.935 110.609C244.756 108.193 245.931 105.905 246.832 103.52C248.152 99.9677 249.359 96.3831 250.614 92.7985C251.129 91.2943 251.628 89.79 252.143 88.2858C252.384 87.5816 252.964 87.8697 253.431 87.8217C253.849 87.7897 254.187 87.8057 254.364 88.3338C255.314 91.3103 256.279 94.2867 257.309 97.2312C257.712 98.3514 258.339 99.3756 258.87 100.432C258.935 100.544 258.983 100.672 259.015 100.8C259.273 101.68 259.482 102.592 259.804 103.456C260.56 105.473 261.349 107.473 262.17 109.473C262.475 110.209 262.862 110.914 263.216 111.618C263.57 112.338 264.262 112.53 264.986 112.69C265.356 112.77 265.678 113.026 266.016 113.202C265.662 113.282 265.308 113.442 264.954 113.426C261.783 113.41 258.613 113.378 255.442 113.33C255.217 113.33 255.008 113.218 254.782 113.17C254.766 113.074 254.75 112.962 254.734 112.866ZM247.814 103.904C250.662 103.904 253.527 103.904 256.44 103.904C255.265 100.08 253.962 96.5431 252.079 93.1826C251.097 95.567 250.244 97.9514 249.391 100.336C248.956 101.568 248.747 102.896 247.814 103.904ZM260.528 112.514C260.608 112.45 260.689 112.402 260.769 112.338C260.721 112.082 260.705 111.826 260.625 111.57C260.013 109.761 259.401 107.953 258.79 106.129C258.323 104.752 257.905 103.344 257.374 101.984C256.537 99.8077 255.619 97.6633 254.782 95.4709C254.171 93.9027 253.656 92.3024 253.093 90.7182C252.996 90.7342 252.9 90.7502 252.819 90.7662C252.819 91.1342 252.722 91.5343 252.835 91.8383C253.189 92.7505 253.672 93.6146 254.026 94.5268C254.847 96.6551 255.635 98.7995 256.376 100.944C257.631 104.56 258.822 108.193 260.061 111.826C260.142 112.098 260.367 112.29 260.528 112.514Z" fill="#9E958F"/>
<path d="M64.0215 112.482C64.3756 112.37 64.7135 112.226 65.0676 112.145C65.4377 112.065 65.8079 112.081 66.1781 112.017C67.3529 111.825 67.5782 111.633 67.6426 110.433C67.8036 107.313 68.045 104.176 68.0289 101.056C68.0128 97.231 67.7553 93.4064 67.6104 89.5818C67.5943 88.9576 67.3851 88.6376 66.6609 88.6216C65.8884 88.6056 65.132 88.4136 64.3595 88.3015C64.3595 88.2055 64.3595 88.0935 64.3595 87.9975C64.5526 87.9335 64.7618 87.8375 64.9549 87.8215C66.9828 87.7414 68.9945 87.6294 71.0223 87.5974C72.2616 87.5814 73.5008 87.7254 74.7239 87.7414C75.9471 87.7575 77.1702 87.6614 78.3933 87.6774C78.6026 87.6774 78.9888 87.9815 79.0049 88.1735C79.1819 89.6778 79.3107 91.198 79.3912 92.7023C79.4073 92.8943 79.1176 93.1183 78.9727 93.3264C78.8118 93.1183 78.5543 92.9263 78.506 92.7023C78.329 91.7901 78.2002 90.862 78.0715 89.9498C78.0071 89.5017 77.814 89.2937 77.3472 89.3097C75.6896 89.3577 74.048 89.3897 72.3903 89.4057C71.2316 89.4217 71.312 89.3897 71.3281 90.5739C71.3603 91.8701 71.1833 93.1824 71.1672 94.4786C71.1511 95.5347 71.2155 96.5749 71.2316 97.6311C71.2316 98.0792 71.1672 98.5272 71.1189 99.1833C72.6317 99.1033 74.1285 98.9913 75.6252 98.9753C76.5425 98.9593 77.0415 98.6873 77.0093 97.6951C76.9932 97.247 77.0897 96.799 77.2185 96.3669C77.299 96.0788 77.5404 95.8388 77.7174 95.5827C77.8622 95.8388 78.1358 96.0948 78.1358 96.3509C78.1358 97.8391 78.0715 99.3274 78.0393 100.816C78.0232 101.504 78.0393 102.192 78.0232 102.88C78.0232 103.104 77.9266 103.328 77.8622 103.552C77.7818 103.584 77.7174 103.6 77.6369 103.632C77.4438 103.36 77.2024 103.12 77.0897 102.816C76.9771 102.528 77.0093 102.192 76.9932 101.872C76.8966 100.432 76.8644 100.4 75.4482 100.384C74.1767 100.368 72.9053 100.384 71.65 100.448C71.4891 100.448 71.2155 100.784 71.2155 100.96C71.2155 102.928 71.2637 104.88 71.2798 106.849C71.2959 107.905 71.3442 108.977 71.2476 110.033C71.1833 110.737 71.4891 111.009 72.0523 111.041C73.8066 111.153 75.5447 111.233 77.299 111.249C77.4921 111.249 77.7818 110.833 77.8622 110.577C78.1841 109.489 78.4416 108.385 78.7635 107.297C78.8118 107.121 79.0854 107.009 79.2624 106.881C79.3912 107.089 79.6326 107.313 79.6165 107.521C79.4877 109.105 79.3429 110.689 79.1176 112.274C79.1015 112.45 78.683 112.706 78.4416 112.706C77.1058 112.738 75.7861 112.69 74.4503 112.722C71.2798 112.786 68.1093 112.866 64.9227 112.93C64.6331 112.93 64.3434 112.85 64.0698 112.802C64.0537 112.674 64.0376 112.578 64.0215 112.482ZM68.914 111.729C69.0106 111.729 69.0911 111.745 69.1876 111.745C69.5095 104.208 69.1876 96.6709 69.3808 89.1337C69.3808 88.9737 69.252 88.7976 69.1876 88.6376C69.1072 88.6536 69.0106 88.6696 68.914 88.6856C68.914 96.3669 68.914 104.048 68.914 111.729Z" fill="#9E958F"/>
<path d="M206.694 111.794C207.708 111.986 208.722 112.162 209.736 112.386C209.913 112.418 210.058 112.61 210.235 112.738C210.042 112.834 209.848 113.01 209.655 113.01C208.207 113.01 206.775 112.978 205.326 112.978C204.554 112.978 203.781 113.026 203.009 113.01C202.719 113.01 202.429 112.914 201.979 112.818C202.735 112.05 203.588 112.162 204.328 111.954C204.537 111.89 204.827 111.73 204.892 111.554C205.358 110.354 205.744 109.121 206.195 107.905C206.758 106.369 207.386 104.865 207.917 103.312C208.336 102.064 208.609 100.752 209.012 99.4877C209.559 97.7274 210.17 95.9831 210.75 94.2229C210.959 93.6148 211.2 93.0387 211.393 92.4306C211.828 91.0223 212.295 89.5981 212.649 88.1739C212.794 87.5498 213.18 87.3257 213.647 87.4217C213.985 87.4857 214.387 87.8218 214.516 88.1419C214.854 89.006 214.998 89.9341 215.304 90.8143C215.868 92.4946 216.527 94.1589 217.075 95.8391C218.314 99.5998 219.489 103.376 220.728 107.137C221.243 108.689 221.887 110.194 222.514 111.714C222.595 111.89 222.933 112.018 223.174 112.066C223.512 112.13 223.882 112.034 224.204 112.13C224.43 112.194 224.59 112.482 224.784 112.658C224.574 112.754 224.365 112.946 224.156 112.946C221.838 112.93 219.505 112.882 217.187 112.85C216.608 112.85 216.012 112.93 215.433 112.946C215.143 112.946 214.87 112.85 214.58 112.658C215.771 111.81 217.219 112.082 218.571 111.49C218.475 111.026 218.362 110.466 218.233 109.921C217.895 108.497 217.557 107.089 217.171 105.681C217.107 105.457 216.753 105.153 216.543 105.153C214.001 105.137 211.474 105.169 208.931 105.217C208.722 105.217 208.529 105.297 208.336 105.329C208.432 107.665 206.952 109.569 206.694 111.794ZM212.745 92.9106C212.665 92.9106 212.584 92.9106 212.52 92.9106C211.442 96.4472 210.363 99.9998 209.237 103.744C211.715 103.744 214.049 103.744 216.656 103.744C215.272 99.9678 214.017 96.4472 212.745 92.9106ZM213.148 90.9743C215.417 97.9835 217.686 104.993 220.02 112.178C220.245 111.01 214.29 92.6546 213.148 90.9743Z" fill="#9E958F"/>
<path d="M35.6968 112.69C35.9061 112.53 36.1153 112.242 36.3406 112.21C37.2097 112.082 38.0787 112.002 38.9478 111.97C39.5111 111.954 39.7525 111.826 39.5755 111.218C39.0444 109.409 38.5133 107.601 37.9822 105.793C37.8373 105.297 37.5155 105.057 36.9683 105.121C36.5176 105.185 36.0509 105.137 35.6003 105.169C33.7012 105.297 31.8182 105.537 29.9352 105.121C29.2915 104.977 28.9374 105.153 28.7604 105.873C28.4063 107.281 27.8913 108.657 27.4729 110.065C27.3119 110.593 27.2797 111.154 27.151 111.858C27.8752 111.954 28.5994 112.05 29.3237 112.146C29.8548 112.21 30.4824 112.066 30.7238 112.754C30.2571 112.85 29.8065 113.026 29.3397 113.042C27.7786 113.09 26.2175 113.09 24.6564 113.074C24.0609 113.074 23.4655 112.994 22.8539 112.946C22.8217 112.866 22.8056 112.802 22.7734 112.722C22.9505 112.594 23.1114 112.418 23.3045 112.338C23.6586 112.21 24.0127 112.098 24.3828 112.05C25.4128 111.906 25.6864 111.058 25.9761 110.289C26.5233 108.801 27.0705 107.297 27.4568 105.761C27.7947 104.416 28.5672 103.216 28.5994 101.728C28.6316 100.832 29.2593 99.9517 29.5812 99.0555C30.7238 95.855 31.8665 92.6545 32.9931 89.4699C33.0574 89.2939 33.0896 89.1019 33.1218 88.9258C33.4276 87.6776 33.4276 87.6616 34.6829 87.7256C34.8761 87.7416 35.1496 87.9977 35.214 88.2057C35.7773 89.742 36.3084 91.2942 36.8395 92.8465C37.7408 95.5029 38.642 98.1754 39.5594 100.832C40.3802 103.216 41.201 105.585 42.07 107.937C42.5689 109.249 43.1805 110.529 43.7599 111.81C43.8082 111.922 44.0013 112.002 44.1461 112.05C44.5002 112.146 44.8865 112.178 45.2405 112.29C45.4497 112.354 45.6268 112.546 45.8038 112.674C45.6107 112.77 45.4015 112.962 45.2083 112.962C44.2749 112.946 43.3575 112.85 42.4241 112.85C40.4767 112.866 38.5294 112.93 36.582 112.978C36.3084 112.978 36.0187 112.93 35.7451 112.914C35.7612 112.866 35.729 112.786 35.6968 112.69ZM29.4041 103.856C31.5768 103.856 33.6368 103.904 35.6968 103.84C37.274 103.792 37.3223 103.632 36.759 102.128C36.7108 102 36.6786 101.872 36.6303 101.744C35.5842 98.7995 34.5542 95.855 33.4276 92.6865C32.0596 96.5111 30.756 100.08 29.4041 103.856ZM34.2806 90.8462C34.184 90.8622 34.0874 90.8782 33.9909 90.8942C33.9909 91.3102 33.8782 91.7423 34.007 92.1104C34.7312 94.2387 35.552 96.3511 36.2762 98.4794C36.9683 100.544 37.5798 102.624 38.2719 104.688C39.0444 106.945 39.8813 109.185 40.7181 111.426C40.8147 111.682 41.0722 111.858 41.2492 112.082C41.3136 112.034 41.378 111.97 41.4424 111.922C39.0444 104.896 36.6625 97.8713 34.2806 90.8462Z" fill="#9E958F"/>
<path d="M127.995 112.45C128.703 112.61 129.524 112.786 130.506 112.994C129.749 113.41 120.286 113.25 119.546 112.834C121.107 111.746 122.909 112.594 124.487 112.034C123.215 111.185 123.215 109.841 122.926 108.561C122.716 107.569 122.25 106.609 121.831 105.665C121.751 105.473 121.364 105.312 121.107 105.312C118.886 105.28 116.681 105.312 114.46 105.296C113.752 105.296 113.06 105.232 112.561 105.2C112.127 106.305 111.74 107.201 111.386 108.129C111.161 108.705 111.016 109.297 110.807 109.873C110.582 110.465 110.372 111.057 109.664 111.281C109.391 111.377 109.165 111.618 108.924 111.794C108.94 111.874 108.94 111.938 108.956 112.018C110.549 112.21 112.159 112.402 113.752 112.61C113.752 112.69 113.736 112.786 113.736 112.866C110.936 112.866 108.151 112.866 105.351 112.866C105.335 112.802 105.319 112.738 105.303 112.674C105.448 112.594 105.576 112.45 105.737 112.418C106.043 112.354 106.381 112.322 106.687 112.306C108.039 112.29 108.538 111.345 108.972 110.305C109.471 109.137 110.002 107.985 110.453 106.801C111.064 105.2 111.628 103.568 112.207 101.968C113.076 99.6315 113.945 97.2952 114.814 94.9588C115.603 92.8624 116.44 90.7981 117.164 88.6857C117.438 87.8696 118.049 87.8536 118.596 87.9176C118.886 87.9496 119.176 88.4777 119.353 88.8458C119.626 89.3899 119.836 89.9499 120.029 90.526C120.914 93.0865 121.847 95.6309 122.62 98.2073C123.65 101.616 124.969 104.896 126.402 108.145C127.03 109.553 127.48 111.009 127.995 112.45ZM117.325 91.5342C116.23 95.8549 114.267 99.7276 113.076 103.856C115.635 103.856 118.291 103.856 121.139 103.856C120.705 102.496 120.318 101.264 119.884 100.048C119.321 98.4634 118.661 96.8951 118.113 95.2948C117.888 94.6387 117.824 93.9186 117.679 93.2305C117.566 92.6864 117.454 92.1423 117.325 91.5342ZM118.065 90.574C117.953 90.6061 117.856 90.6221 117.743 90.6541C117.776 90.9741 117.759 91.3262 117.856 91.6302C118.258 92.8464 118.661 94.0786 119.111 95.2788C119.739 96.9431 120.431 98.5754 121.026 100.24C121.702 102.16 122.298 104.112 122.958 106.049C123.553 107.825 124.213 109.585 124.76 111.377C124.937 111.97 124.986 112.45 125.887 112.242C123.264 104.992 120.672 97.7912 118.065 90.574Z" fill="#9E958F"/>
<path d="M234.649 111.906C235.84 112.162 237.031 112.418 238.238 112.674C238.222 112.77 238.206 112.866 238.19 112.978C234.456 112.978 230.738 112.978 226.924 112.978C227.214 111.97 228.002 112.29 228.517 112.082C228.904 111.922 229.419 112.018 229.805 111.858C230.046 111.762 230.32 111.393 230.352 111.137C230.481 110.065 230.529 108.977 230.577 107.889C230.706 105.136 230.851 102.368 230.899 99.6155C230.915 98.0793 230.706 96.527 230.658 94.9907C230.61 93.6145 230.658 92.2223 230.626 90.8461C230.593 89.7899 230.32 89.4698 229.274 89.3578C227.922 89.2298 226.57 89.1338 225.218 89.1018C224.124 89.0698 223.963 89.2618 223.754 90.27C223.577 91.1501 223.383 92.0303 223.158 92.9104C223.126 93.0704 222.901 93.1664 222.756 93.2945C222.643 93.1024 222.402 92.9104 222.418 92.7344C222.466 91.9502 222.595 91.1661 222.659 90.382C222.74 89.5979 222.804 88.7977 222.836 87.9976C222.852 87.5015 223.11 87.3415 223.56 87.4055C226.586 87.7896 229.628 87.9336 232.686 87.7095C233.877 87.6295 235.084 87.9656 236.275 87.9336C238.238 87.8856 240.218 87.6935 242.181 87.5655C243.034 87.5015 243.163 87.6455 243.195 88.4617C243.243 89.8699 243.356 91.2781 243.436 92.6864C243.452 92.9424 243.436 93.1985 243.436 93.4385C243.356 93.4705 243.259 93.5185 243.179 93.5505C243.018 93.3105 242.793 93.0864 242.712 92.8144C242.519 92.0943 242.358 91.3742 242.229 90.638C242.101 89.8539 241.73 89.3578 240.877 89.3738C238.978 89.4218 237.095 89.4538 235.196 89.5498C234.601 89.5819 234.279 89.9019 234.295 90.606C234.359 93.9826 234.392 97.3591 234.392 100.736C234.392 103.024 234.263 105.312 234.295 107.601C234.327 109.025 234.536 110.449 234.649 111.906ZM231.849 112.226C231.961 112.21 232.058 112.178 232.171 112.162C232.171 111.826 232.171 111.489 232.171 111.153C232.203 109.217 232.235 107.281 232.267 105.344C232.299 103.728 232.509 102.08 232.332 100.48C231.929 96.8311 232.332 93.1984 232.219 89.5498C232.219 89.3578 232.09 89.1658 232.026 88.9738C231.929 89.1498 231.752 89.3258 231.752 89.5018C231.736 92.7984 231.736 96.0949 231.736 99.3915C231.736 100.352 231.833 101.312 231.817 102.272C231.784 105.408 231.704 108.545 231.656 111.666C231.672 111.858 231.784 112.05 231.849 112.226Z" fill="#9E958F"/>
<path d="M47.1871 89.134C45.4007 89.182 45.4007 89.182 44.9984 90.8142C44.7891 91.6624 44.6121 92.5265 44.3868 93.3747C44.3385 93.5347 44.1615 93.6627 44.0327 93.8227C43.9523 93.6467 43.8074 93.4707 43.8235 93.3107C43.8879 91.6144 43.9683 89.9181 44.0971 88.2378C44.1132 88.0618 44.5155 87.7897 44.7248 87.7897C46.2698 87.8538 47.7987 88.0298 49.3276 88.0458C51.2911 88.0778 53.2706 88.0138 55.2341 87.9978C56.6664 87.9818 58.0988 88.0138 59.5311 87.9658C60.4324 87.9498 61.3337 87.8538 62.2349 87.7897C62.6051 87.7577 62.9752 87.6777 63.3454 87.6777C63.8121 87.6777 64.0374 87.8698 63.8926 88.3979C63.8121 88.7179 63.8121 89.054 63.8443 89.39C63.9248 90.5262 64.0535 91.6624 64.1179 92.7986C64.134 92.9746 63.8765 93.1826 63.7478 93.3747C63.5868 93.1826 63.3454 93.0226 63.2971 92.8146C63.104 91.8864 62.9752 90.9423 62.7821 90.0141C62.7338 89.8061 62.4924 89.518 62.2993 89.502C60.4163 89.278 58.5172 89.086 56.6503 89.55C56.425 89.598 56.1192 89.9181 56.1032 90.1261C55.91 92.5905 55.7169 95.055 55.6525 97.5194C55.5721 100.336 55.5881 103.152 55.6203 105.969C55.6364 107.697 55.7813 109.425 55.8939 111.154C55.91 111.362 56.0871 111.666 56.2641 111.714C57.0688 111.938 57.9057 112.066 58.7104 112.274C58.9679 112.338 59.1771 112.578 59.4024 112.738C59.1449 112.85 58.8713 113.074 58.6138 113.074C55.4594 113.058 52.3211 113.01 49.1667 112.962C48.9253 112.962 48.6839 112.786 48.4425 112.706C48.6517 112.578 48.8448 112.402 49.0701 112.338C49.7622 112.162 50.4542 111.986 51.1623 111.89C51.7578 111.81 51.9187 111.522 51.9992 110.962C52.5625 107.281 52.305 103.584 52.3372 99.8878C52.3533 96.7832 52.305 93.6627 52.2889 90.5582C52.2889 90.1101 52.2406 89.7581 51.7095 89.6941C50.1645 89.47 48.6356 89.294 47.1871 89.134ZM53.8178 88.8459C53.673 88.8299 53.5281 88.8299 53.3833 88.8139C53.3189 89.07 53.1902 89.342 53.1902 89.5981C53.1902 90.4462 53.2545 91.2943 53.2384 92.1425C53.2384 96.6872 53.2063 101.232 53.2063 105.793C53.2063 107.649 53.2223 109.521 53.2545 111.378C53.2545 111.618 53.3994 111.842 53.4798 112.082C53.5764 112.05 53.6569 112.034 53.7534 112.002C53.7856 104.272 53.9466 96.5592 53.8178 88.8459Z" fill="#9E958F"/>
<path d="M173.509 136.182C173.509 138.726 173.058 140.567 171.739 142.103C170.612 143.399 169.26 144.311 167.393 143.975C165.204 143.575 163.402 142.663 162.871 140.279C162.179 137.11 162.147 133.989 163.627 130.981C164.545 129.125 166.54 128.069 168.568 128.357C170.853 128.677 172.592 130.213 172.946 132.325C173.203 133.781 173.38 135.254 173.509 136.182ZM171.304 136.838C171.272 136.838 171.24 136.838 171.191 136.838C171.191 136.326 171.24 135.814 171.191 135.318C170.998 133.381 170.692 131.509 169.131 130.101C168.616 129.637 168.15 129.557 167.538 129.797C166.556 130.181 166.025 130.933 165.607 131.829C164.11 135.126 164.464 138.358 165.913 141.559C166.234 142.279 166.733 142.887 167.554 143.095C167.763 143.143 168.069 143.175 168.23 143.063C169.662 142.183 170.805 141.047 171.063 139.302C171.191 138.486 171.224 137.654 171.304 136.838Z" fill="#9E958F"/>
<path d="M150.527 145.383C151.347 144.967 152.104 144.599 152.876 144.215C155.725 142.775 157.64 140.454 158.879 137.59C159.201 136.838 159.169 135.877 159.137 135.013C159.121 134.133 158.96 133.269 158.799 132.405C158.541 131.125 157.704 130.276 156.497 129.844C155.145 129.364 153.681 129.94 152.989 131.205C152.281 132.485 151.991 133.829 152.361 135.285C152.619 136.325 153.778 137.302 154.856 137.318C155.467 137.334 156.095 137.302 156.707 137.334C156.851 137.334 156.996 137.51 157.141 137.59C157.045 137.734 156.98 137.926 156.851 138.006C154.775 139.334 151.734 138.294 150.897 136.005C150.237 134.197 150.237 132.501 151.347 130.821C153.359 127.812 157.479 127.54 159.877 130.292C161.1 131.685 161.47 133.349 161.358 135.141C161.116 138.566 159.394 141.19 156.626 143.127C155.355 144.023 154.003 144.791 152.651 145.543C151.557 146.151 151.09 146.103 150.527 145.383Z" fill="#9E958F"/>
<path d="M88.2593 132.901C88.0823 132.613 87.857 132.341 87.7121 132.037C87.0523 130.565 84.8635 129.925 83.5438 130.853C82.2402 131.765 82.8035 133.285 84.0266 134.037C85.1854 134.757 86.4568 135.286 87.5834 136.038C89.6756 137.446 89.7561 138.598 89.1767 141.143C88.8709 142.487 87.1006 143.687 85.3463 143.671C84.1876 143.671 83.0127 143.431 81.8861 143.143C80.8078 142.855 80.4699 142.295 80.5021 141.175C80.5182 140.614 80.6308 140.07 80.7435 139.526C80.7757 139.366 81.001 139.238 81.1458 139.078C81.2907 139.222 81.4838 139.334 81.5482 139.51C81.6769 139.798 81.7091 140.118 81.7896 140.438C82.0793 141.607 83.0449 142.503 84.2519 142.647C85.5877 142.807 86.7626 142.471 87.5351 141.271C87.9375 140.646 87.857 139.91 87.4063 139.398C86.827 138.726 86.1349 138.102 85.4107 137.59C84.6221 137.03 83.7369 136.646 82.9001 136.15C80.7274 134.87 80.3894 131.653 82.208 129.941C82.9966 129.205 84.0105 129.141 84.9762 129.045C85.7648 128.965 86.5856 129.077 87.3742 129.237C88.4364 129.445 88.8226 129.957 88.8226 131.029C88.8226 131.637 88.6778 132.245 88.5973 132.853C88.4846 132.853 88.372 132.885 88.2593 132.901Z" fill="#9E958F"/>
<path d="M177.629 141.847C179.142 142.519 180.526 142.759 181.958 142.503C182.344 142.439 182.666 142.039 183.036 141.879C183.406 141.735 183.809 141.703 184.195 141.607C184.259 142.023 184.469 142.455 184.372 142.839C184.163 143.767 183.616 144.119 182.634 144.119C180.316 144.087 177.983 144.055 175.665 144.007C174.78 143.991 174.635 143.799 175.134 143.111C175.665 142.359 176.277 141.639 176.921 140.983C178.321 139.526 179.866 138.182 181.169 136.646C182.135 135.51 182.344 134.005 182.087 132.549C181.878 131.397 180.188 130.437 179.029 130.853C178.128 131.173 177.323 131.813 176.47 132.277C176.213 132.421 175.907 132.501 175.617 132.597C175.553 132.197 175.311 131.733 175.456 131.429C176.035 130.181 178.144 128.885 179.592 129.029C181.008 129.173 182.296 129.333 183.39 130.405C184.308 131.301 184.694 132.261 184.404 133.493C183.938 135.478 182.908 137.126 181.33 138.422C180.461 139.142 179.56 139.814 178.723 140.55C178.369 140.887 178.063 141.335 177.629 141.847Z" fill="#9E958F"/>
<path d="M108.087 139.702C108.087 139.19 108.071 138.678 108.087 138.166C108.119 137.398 108.216 136.629 108.2 135.861C108.184 135.045 107.814 134.469 106.961 134.213C106.655 134.117 106.204 133.733 106.204 133.493C106.204 132.949 106.735 132.949 107.186 132.949C108.087 132.949 109.005 132.901 109.906 132.933C110.147 132.949 110.437 133.141 110.598 133.333C110.678 133.429 110.534 133.861 110.405 133.909C108.844 134.533 109.037 135.957 108.989 137.158C108.908 138.726 109.101 140.294 109.149 141.862C109.166 142.358 109.182 142.887 109.101 143.367C108.989 144.007 108.522 144.135 108.087 143.655C106.768 142.182 105.512 140.662 104.209 139.19C103.501 138.39 102.776 137.606 102.02 136.854C101.778 136.613 101.392 136.549 101.054 136.405C100.958 136.71 100.765 137.03 100.765 137.334C100.732 138.55 100.732 139.782 100.748 140.998C100.765 141.798 101.07 142.358 101.972 142.518C102.293 142.582 102.567 142.903 102.969 143.191C102.68 143.367 102.599 143.447 102.503 143.463C101.328 143.559 100.153 143.671 98.9781 143.719C98.7528 143.735 98.5114 143.479 98.27 143.335C98.4309 143.159 98.5758 142.887 98.7689 142.839C99.461 142.678 99.7024 142.198 99.7185 141.622C99.7667 139.478 99.7828 137.318 99.7346 135.173C99.7346 134.901 99.2035 134.629 98.8977 134.389C98.5597 134.133 98.2056 133.909 97.8516 133.685C98.2539 133.493 98.6402 133.189 99.0586 133.109C100.314 132.869 101.312 133.285 102.165 134.309C103.259 135.637 104.514 136.838 105.705 138.102C106.059 138.47 106.397 138.854 106.784 139.174C107.106 139.446 107.508 139.638 107.862 139.878C107.91 139.798 108.007 139.75 108.087 139.702Z" fill="#9E958F"/>
<path d="M141.997 143.319C142.093 143.271 142.174 143.207 142.27 143.175C144.153 142.647 144.298 142.343 144.363 140.214C144.443 137.494 144.298 134.789 144.234 132.069C144.218 131.445 143.799 131.173 143.075 131.285C142.705 131.333 142.335 131.413 141.965 131.381C141.417 131.333 141.176 130.693 141.578 130.341C141.949 130.021 142.399 129.748 142.866 129.572C143.815 129.22 144.797 128.964 145.763 128.644C146.374 128.452 146.664 128.788 146.712 129.268C146.761 129.812 146.664 130.373 146.632 130.933C146.584 132.389 146.519 133.845 146.471 135.301C146.423 136.55 146.374 137.798 146.358 139.046C146.358 139.894 146.407 140.742 146.455 141.59C146.487 142.135 146.696 142.487 147.308 142.551C147.791 142.599 148.257 142.711 148.708 142.871C148.917 142.951 149.062 143.207 149.239 143.367C149.062 143.543 148.901 143.767 148.692 143.863C148.483 143.959 148.193 144.023 147.984 143.959C146.262 143.335 144.54 143.815 142.818 143.943C142.319 144.007 142.077 143.831 141.997 143.319Z" fill="#9E958F"/>
<path d="M129.878 135.942C129.219 134.742 128.172 134.341 126.901 134.389C125.791 134.421 125.662 134.549 125.517 135.622C125.485 135.83 125.436 136.054 125.469 136.262C125.533 136.758 125.469 137.51 125.758 137.686C126.499 138.134 127.4 138.406 128.189 137.654C128.414 137.446 128.687 137.254 129.058 136.966C129.058 138.118 129.058 139.126 129.058 140.134C128.977 140.166 128.913 140.198 128.832 140.246C128.623 140.054 128.349 139.878 128.221 139.638C127.899 139.03 127.368 138.79 126.724 138.694C125.919 138.566 125.533 138.79 125.436 139.59C125.34 140.294 125.308 141.015 125.308 141.735C125.308 142.423 125.63 142.839 126.386 142.823C126.644 142.823 126.917 142.887 127.175 142.903C128.06 142.983 128.897 142.903 129.412 142.007C129.573 141.719 129.782 141.447 129.975 141.143C130.924 142.199 129.943 143.831 128.929 143.767C127.722 143.687 126.515 143.607 125.324 143.591C124.551 143.575 123.779 143.703 123.006 143.687C122.717 143.687 122.443 143.479 122.153 143.367C122.379 143.223 122.588 142.999 122.845 142.951C123.553 142.823 123.859 142.407 123.875 141.735C123.891 140.07 123.891 138.39 123.875 136.726C123.875 136.294 123.859 135.878 123.795 135.446C123.714 134.87 123.521 134.373 122.861 134.165C122.701 134.117 122.491 133.861 122.507 133.733C122.523 133.573 122.749 133.413 122.926 133.317C123.055 133.237 123.232 133.253 123.393 133.253C125.292 133.253 127.191 133.317 129.106 133.269C129.959 133.253 130.039 133.861 130.249 134.373C130.474 134.87 130.587 135.446 129.878 135.942Z" fill="#9E958F"/>
<path d="M119.884 135.941C119.61 135.733 119.546 135.701 119.498 135.637C117.808 133.909 116.923 133.765 114.863 135.029C114.396 135.317 114.01 135.829 113.752 136.325C113.446 136.902 113.285 137.574 113.108 138.214C112.497 140.502 114.09 142.919 116.456 143.319C117.244 143.447 117.92 143.175 118.532 142.663C118.999 142.262 119.465 141.894 119.932 141.51C120.608 142.374 120.479 143.175 119.626 143.543C116.198 145.031 111.628 143.719 110.903 139.334C110.517 136.982 112.674 133.781 115.04 133.477C116.247 133.317 117.486 133.301 118.709 133.381C119.675 133.445 120.238 134.133 120.206 134.949C120.206 135.253 120.029 135.541 119.884 135.941Z" fill="#9E958F"/>
<path d="M90.9306 133.445C91.2042 133.333 91.5743 133.045 91.9767 133.013C92.878 132.949 93.7953 132.997 94.6966 133.061C94.938 133.077 95.1472 133.333 95.3725 133.477C95.2116 133.717 95.115 134.069 94.8897 134.165C94.0528 134.501 93.8114 135.093 93.8436 135.926C93.8919 137.686 93.908 139.43 93.9241 141.19C93.9241 141.767 94.0689 142.231 94.6966 142.423C94.8414 142.471 95.0023 142.567 95.0828 142.695C95.2277 142.887 95.3403 143.127 95.4691 143.351C95.2438 143.431 95.0184 143.575 94.7931 143.575C93.6987 143.607 92.6044 143.623 91.51 143.607C91.3007 143.607 91.0754 143.431 90.8662 143.335C91.0111 143.191 91.1237 142.967 91.2847 142.903C91.9284 142.647 92.1698 142.167 92.1537 141.527C92.1215 139.478 92.1698 137.43 92.025 135.382C91.9767 134.789 91.3973 134.245 90.9306 133.445Z" fill="#9E958F"/>
<path d="M65.7275 58.2485C61.7684 59.1607 57.8093 60.1048 53.8502 61.001C49.2313 62.0571 44.564 62.8413 39.8324 63.2733C38.6737 63.3694 37.5632 63.8334 36.3562 64.1535C36.4366 64.4575 36.4849 64.6816 36.5976 65.1297C35.5193 64.5536 34.7307 63.9615 34.0869 62.8413C34.6824 62.9533 35.0365 63.0173 35.3905 63.0813C37.193 63.4174 38.9634 63.1133 40.7337 62.7773C48.2013 61.369 55.6849 59.9768 63.1525 58.5686C63.9894 58.4085 64.8263 58.2485 65.6631 58.1045C65.6953 58.1525 65.7114 58.2005 65.7275 58.2485Z" fill="#9E958F"/>
</g>
<defs>
<clipPath id="clip0_166_593">
<rect width="266" height="145" fill="white" transform="translate(0 0.959473)"/>
</clipPath>
</defs>
</svg>
