<svg width="301" height="94" viewBox="0 0 301 94" fill="none" xmlns="http://www.w3.org/2000/svg">
<path d="M28.7686 6.88671C28.1953 6.88671 27.9004 6.88671 27.5891 6.88671C23.8214 6.88671 20.0536 6.85394 16.2858 6.9031C14.9917 6.91948 13.6811 7.06695 12.387 7.27996C10.5686 7.59128 9.07789 8.54163 8.02946 10.0982C7.27591 11.2124 6.55511 12.343 5.83432 13.4572C5.29373 14.2929 5.12991 14.3584 4.2453 13.8996C3.63918 13.5883 3.08221 13.2115 2.4597 12.8346C2.65628 12.1792 2.83648 11.5893 3.0003 10.983C3.83576 7.9026 4.67122 4.80577 5.42478 1.69256C5.5886 1.00437 5.89985 0.660281 6.5715 0.578354C6.81722 0.545583 7.06294 0.512812 7.30867 0.447271C8.09499 0.234262 8.70111 0.512812 9.19256 1.13546C9.40552 1.39762 9.63486 1.65979 9.84782 1.92195C10.4703 2.69206 11.273 3.1017 12.2723 3.15085C17.5963 3.41302 22.904 3.69157 28.228 3.38025C30.8327 3.23278 33.4538 3.21639 36.0748 3.16724C36.468 3.16724 36.8939 3.21639 37.2707 3.33109C37.8604 3.52772 38.0898 4.00289 37.8604 4.59276C37.6802 5.05155 37.4345 5.49396 37.1724 5.90359C29.5713 17.9304 21.5607 29.6951 13.2552 41.2632C12.1904 42.7542 11.0437 44.1961 9.94611 45.6708C9.65124 46.0641 9.40552 46.4901 9.02874 47.0472C9.7823 47.1127 10.372 47.211 10.9782 47.211C13.7467 47.2438 16.5152 47.2438 19.2836 47.2602C21.4296 47.2602 23.5756 47.3093 25.7216 47.2274C27.0813 47.1783 28.4574 46.998 29.7843 46.7359C32.2415 46.2279 34.1582 44.8188 35.5998 42.787C36.1404 42.0333 36.599 41.214 37.0413 40.3947C37.5983 39.3788 37.713 39.2641 38.8761 39.4116C39.302 39.4608 39.7443 39.5591 40.1375 39.7229C40.7764 39.9851 40.9566 40.2964 40.8091 40.9682C40.6781 41.5745 40.4651 42.1644 40.2849 42.7542C39.6133 44.9499 38.9416 47.1619 38.27 49.3575C38.1225 49.8491 38.0406 50.3734 37.926 50.9141C36.4516 50.9141 35.01 50.9305 33.5848 50.9141C27.2615 50.8322 20.9546 50.7011 14.6313 50.6847C10.4867 50.6847 6.35853 50.865 2.21398 50.9469C1.80444 50.9633 1.3949 50.9305 1.00174 50.865C0.182656 50.7011 -0.17774 50.1768 0.0843662 49.3575C0.248183 48.8332 0.52667 48.3252 0.854303 47.8665C1.64062 46.7359 2.49247 45.6708 3.2624 44.5402C10.9454 33.349 18.612 22.1415 26.2786 10.9503C26.9175 10.0327 27.5564 9.09873 28.1625 8.16477C28.3755 7.85345 28.4901 7.47658 28.7686 6.88671Z" fill="#9E958F"/>
<path d="M253.459 50.5865C250.969 50.6684 248.479 50.7504 246.006 50.8159C245.563 50.8323 245.137 50.8323 244.695 50.8323C244.269 50.8323 243.991 50.7012 243.941 50.2097C243.876 49.4559 244.04 49.0299 244.548 48.9152C244.908 48.8333 245.285 48.8497 245.662 48.8005C247.136 48.6367 247.824 47.9813 248.053 46.5066C248.135 45.9495 248.184 45.3924 248.184 44.8353C248.201 38.1664 248.201 31.514 248.184 24.8451C248.184 24.0423 248.119 23.223 248.02 22.4201C247.873 21.1421 247.496 20.8307 246.202 20.798C245.793 20.798 245.383 20.8144 244.99 20.7652C244.417 20.6997 244.187 20.4703 244.138 19.9623C244.089 19.4216 244.269 19.012 244.793 18.8645C245.596 18.6351 246.415 18.4221 247.251 18.3402C251.952 17.7994 256.654 17.3407 261.404 17.7339C264.746 18.0125 267.99 18.6679 271.02 20.1589C275.918 22.584 278.572 26.582 279.195 31.9564C279.473 34.3486 279.408 36.7409 278.736 39.084C277.638 42.9346 275.247 45.7692 271.856 47.801C268.694 49.7017 265.221 50.6521 261.568 50.7831C258.865 50.8815 256.162 50.7995 253.443 50.7995C253.459 50.7504 253.459 50.6684 253.459 50.5865ZM254.557 33.9062C254.557 37.4291 254.54 40.9519 254.557 44.4584C254.557 46.523 255.507 47.7519 257.522 48.1779C260.52 48.8169 263.403 48.522 266.106 46.9654C268.678 45.4907 270.381 43.2623 271.364 40.5095C273.134 35.5939 272.773 30.7603 270.414 26.1232C268.956 23.2394 266.614 21.3223 263.468 20.4375C261.584 19.9132 259.651 19.8804 257.735 20.0442C257.243 20.0934 256.752 20.2081 256.277 20.3556C255.261 20.6997 254.721 21.437 254.59 22.502C254.557 22.8461 254.557 23.1902 254.557 23.5343C254.557 26.9916 254.557 30.4489 254.557 33.9062Z" fill="#9E958F"/>
<path d="M238.322 49.0464C238.371 49.5544 238.404 50.0295 238.453 50.5703C237.765 50.5703 237.175 50.603 236.602 50.5703C234.554 50.4392 232.49 50.2917 230.459 50.6194C229.312 50.7997 228.559 50.3572 228.002 49.3741C226.724 47.1293 225.413 44.9009 224.119 42.6725C223.071 40.8701 222.039 39.0514 220.99 37.249C220.286 36.0201 219.532 34.8239 217.943 34.6109C217.878 33.9391 217.812 33.3656 217.747 32.7102C218.156 32.6447 218.484 32.6119 218.812 32.5464C219.352 32.4317 219.926 32.3498 220.45 32.1859C223.284 31.3011 224.775 29.171 224.627 26.2052C224.594 25.6809 224.529 25.1402 224.414 24.6323C223.841 22.1908 222.022 20.6834 219.5 20.5359C219.074 20.5195 218.631 20.5031 218.189 20.5523C216.813 20.667 216.043 21.4207 215.879 22.7971C215.814 23.3214 215.797 23.8458 215.781 24.3865C215.781 30.957 215.765 37.5275 215.781 44.098C215.781 44.9009 215.863 45.7202 216.043 46.5067C216.42 48.1288 217.321 48.8334 218.992 49.0136C219.238 49.03 219.467 49.0956 219.745 49.1283C219.762 49.4561 219.778 49.7182 219.778 49.9968C219.778 50.177 219.729 50.3572 219.713 50.5375C214.962 50.5375 210.244 50.5375 205.428 50.5375C205.411 50.3081 205.362 50.0459 205.362 49.7838C205.379 49.1939 205.493 49.0956 206.067 49.0136C206.558 48.9481 207.05 48.899 207.541 48.817C208.786 48.604 209.458 47.8339 209.638 46.6378C209.753 45.9332 209.818 45.2122 209.818 44.4913C209.835 37.9535 209.834 31.4158 209.802 24.8616C209.802 23.9277 209.687 22.9937 209.49 22.0925C209.228 20.7817 208.606 20.3229 207.263 20.2901C206.706 20.2738 206.149 20.2901 205.477 20.2901C205.444 19.6839 205.411 19.1432 205.379 18.4878C205.968 18.4878 206.46 18.4714 206.951 18.4878C209.622 18.5533 212.308 18.668 214.978 18.668C217.305 18.668 219.647 18.5369 221.973 18.4878C223.857 18.4386 225.61 18.9465 227.248 19.8477C230.017 21.3552 231.36 23.9605 231 27.0737C230.819 28.6467 230.017 29.8756 228.788 30.8259C227.723 31.6616 226.478 32.1695 225.184 32.53C224.824 32.6283 224.48 32.7102 224.054 32.8249C224.136 32.9724 224.185 33.0871 224.267 33.1526C225.692 34.4307 226.822 35.9545 227.838 37.5603C229.525 40.2475 231.213 42.9511 232.883 45.6383C233.506 46.6214 234.227 47.5062 235.21 48.1616C236.16 48.7351 237.175 48.9809 238.322 49.0464Z" fill="#9E958F"/>
<path d="M75.5542 31.3994C75.5542 28.7777 75.5706 26.1724 75.5378 23.5508C75.5378 22.9937 75.4723 22.4366 75.3576 21.8959C75.2102 21.1585 74.7187 20.6833 73.9816 20.5359C73.441 20.4376 72.8676 20.4376 72.327 20.3229C72.0158 20.2573 71.5407 20.1262 71.4752 19.9296C71.3441 19.52 71.426 19.0284 71.4916 18.586C71.5079 18.4713 71.8356 18.3566 72.0322 18.3402C72.4089 18.3075 72.7857 18.3402 73.1461 18.373C75.6689 18.6188 78.1753 18.5696 80.698 18.3894C81.1895 18.3566 81.6973 18.3566 82.1888 18.3402C82.6638 18.3238 82.8768 18.5696 82.844 19.0284C82.8277 19.1759 82.844 19.3397 82.844 19.5036C82.8113 20.2082 82.7294 20.2901 82.025 20.3556C81.5007 20.4048 80.9602 20.4048 80.4523 20.5195C79.3384 20.7489 78.8305 21.2896 78.7159 22.4202C78.634 23.1903 78.6012 23.9768 78.6012 24.7469C78.5848 29.2037 78.6012 33.6605 78.6012 38.101C78.6012 39.7559 78.552 41.3944 78.1589 43.0166C77.6347 45.1794 76.5043 46.9654 74.7515 48.3418C72.2779 50.2917 69.4275 51.2912 66.315 51.5369C63.5956 51.75 60.909 51.5533 58.2552 50.8324C57.7474 50.7013 57.2395 50.521 56.7481 50.3244C53.1933 48.9153 51.3913 46.2281 51.0309 42.4922C50.9654 41.8696 50.9654 41.2469 50.9654 40.6243C50.9654 34.9222 50.9654 29.2201 50.9654 23.5344C50.9654 23.0101 50.9162 22.4693 50.8343 21.9614C50.7196 21.2077 50.2773 20.6997 49.5238 20.5686C48.9177 20.4539 48.2952 20.4376 47.6727 20.3884C47.3286 20.3556 46.8863 20.4376 46.7881 20.0443C46.6898 19.6019 46.7389 19.1103 46.8536 18.6843C46.8863 18.5205 47.3123 18.4058 47.558 18.3894C48.1805 18.3566 48.803 18.373 49.4255 18.4058C52.882 18.586 56.3222 18.7007 59.7787 18.3894C60.0244 18.373 60.2701 18.373 60.5322 18.373C61.5479 18.373 62.0394 19.1267 61.5643 20.0115C61.466 20.2082 61.122 20.3229 60.8763 20.372C60.3193 20.4539 59.7623 20.4212 59.2053 20.5195C58.0914 20.7325 57.5836 21.2732 57.4197 22.371C57.3378 22.8626 57.3378 23.3705 57.3378 23.8621C57.3378 29.4003 57.3214 34.955 57.3542 40.4932C57.3542 41.5419 57.4853 42.6069 57.7474 43.6228C58.2061 45.3924 59.3855 46.605 61.1056 47.244C61.7936 47.5061 62.5308 47.7028 63.268 47.7847C65.5778 48.0305 67.8712 47.9813 70.1155 47.2931C73.0806 46.3756 74.8007 44.3602 75.3085 41.3125C75.4395 40.5424 75.4887 39.7723 75.5051 38.9858C75.5706 36.446 75.5542 33.9227 75.5542 31.3994Z" fill="#9E958F"/>
<path d="M182.871 16.9146C183.051 17.2914 183.232 17.6027 183.363 17.9304C186.983 26.8768 190.603 35.8232 194.224 44.7696C194.551 45.5725 194.928 46.359 195.272 47.1619C195.714 48.1942 196.517 48.7513 197.631 48.9151C197.811 48.9479 198.008 48.9643 198.188 48.9971C198.925 49.1609 199.105 49.4558 198.991 50.1932C198.909 50.6356 198.68 50.8486 198.237 50.8486C197.435 50.8158 196.615 50.7831 195.813 50.7831C193.388 50.7667 190.964 50.7831 188.539 50.7831C187.36 50.7831 186.18 50.7831 184.968 50.7831C184.935 50.5864 184.87 50.4226 184.853 50.2423C184.804 48.9971 184.821 48.9807 186.098 48.8496C188.146 48.653 188.736 47.8337 188.015 45.933C187.114 43.5407 186.098 41.1976 185.148 38.8381C185.017 38.494 184.821 38.363 184.444 38.363C181.675 38.3794 178.907 38.3794 176.122 38.363C175.663 38.363 175.467 38.5596 175.336 38.9692C174.615 41.0993 173.878 43.1966 173.157 45.3267C173.009 45.7691 172.928 46.2279 172.862 46.6867C172.731 47.8009 173.141 48.3908 174.238 48.6694C174.713 48.784 175.237 48.7513 175.712 48.8496C176.024 48.9151 176.515 49.0298 176.564 49.2101C176.695 49.6361 176.646 50.1276 176.564 50.57C176.548 50.7011 176.155 50.8322 175.942 50.8322C175.188 50.8486 174.451 50.8486 173.698 50.7831C171.519 50.5864 169.34 50.5864 167.161 50.7994C166.85 50.8322 166.539 50.8322 166.227 50.8486C165.392 50.865 165.261 50.7831 165.228 50.1276C165.179 49.2592 165.359 48.9479 166.129 48.9315C168.013 48.8824 169.045 47.8337 169.7 46.1788C172.092 40.0998 174.14 33.8898 176.253 27.6961C177.023 25.4349 177.727 23.141 178.497 20.8634C178.645 20.4046 178.874 19.9458 179.169 19.5526C179.628 18.9299 181.921 17.357 182.871 16.9146ZM183.772 35.6922C182.413 32.4315 181.102 29.2691 179.693 25.8773C178.563 29.2691 177.465 32.4315 176.433 35.6922C178.94 35.6922 181.299 35.6922 183.772 35.6922Z" fill="#9E958F"/>
<path d="M118.262 27.5814C118.081 27.3029 117.918 27.0407 117.754 26.7786C117.131 25.8118 116.542 24.8123 115.87 23.8784C113.822 20.9781 110.923 19.9295 107.482 20.2244C102.748 20.6341 99.4063 23.1082 97.6207 27.4176C95.1144 33.4474 95.6549 39.2642 99.7176 44.5075C102.044 47.506 105.222 48.9971 109.072 48.9479C109.972 48.9315 110.873 48.8824 111.774 48.7513C113.953 48.4564 115.722 47.4241 116.967 45.6053C117.639 44.6386 118.147 43.5571 118.704 42.5249C118.9 42.1808 118.982 41.6728 119.474 41.6892C120.064 41.7056 120.702 41.8203 121.046 42.3446C121.21 42.5904 121.145 43.0656 121.063 43.4097C120.768 44.6877 120.44 45.9494 120.096 47.2111C119.933 47.8337 119.916 48.6366 119.507 49.0462C119.048 49.5214 118.262 49.7017 117.59 49.9474C111.693 52.0284 105.746 52.2741 99.8486 50.0785C93.4598 47.6863 89.8886 42.9673 89.1187 36.1837C88.3815 29.6296 91.0189 24.6485 96.4085 21.0928C100.52 18.3729 105.074 17.2751 110.005 17.6683C112.757 17.8977 115.411 18.5367 117.885 19.7656C118.196 19.9131 118.491 20.0933 118.786 20.2572C119.179 20.503 119.392 20.8471 119.441 21.3222C119.605 22.928 119.801 24.5338 119.965 26.1559C120.064 27.0571 120.031 27.0735 119.179 27.3357C118.9 27.434 118.606 27.4995 118.262 27.5814Z" fill="#9E958F"/>
<path d="M156.48 27.6144C156.267 27.2703 156.103 26.9917 155.923 26.6968C155.301 25.7301 154.711 24.7306 154.039 23.7966C151.959 20.9128 149.059 19.9133 145.619 20.241C140.77 20.6998 137.494 23.3542 135.708 27.7782C133.759 32.5955 133.923 37.4128 136.331 42.0499C138.067 45.4089 140.705 47.7684 144.472 48.6532C146.717 49.1775 148.994 49.0956 151.222 48.5057C152.778 48.0961 154.088 47.2276 155.006 45.9168C155.743 44.8518 156.349 43.672 156.988 42.5414C157.184 42.1973 157.266 41.6894 157.758 41.7058C158.348 41.7222 158.954 41.8696 159.347 42.3612C159.462 42.5087 159.478 42.7872 159.429 42.9838C158.954 44.9173 158.446 46.8508 157.987 48.7843C157.873 49.243 157.496 49.325 157.168 49.4561C155.104 50.3409 152.958 50.9799 150.73 51.2912C146.602 51.8647 142.523 51.6517 138.559 50.2753C131.711 47.8994 127.583 42.2137 127.304 34.9714C127.091 29.4823 129.254 25.1566 133.562 21.8959C137.887 18.6352 142.801 17.2752 148.207 17.6685C150.959 17.8651 153.613 18.5041 156.103 19.733C156.382 19.8641 156.66 20.028 156.922 20.1754C157.381 20.4376 157.66 20.7981 157.725 21.3552C157.889 23.0593 158.085 24.7633 158.266 26.4674C158.315 26.9098 158.151 27.172 157.709 27.2703C157.316 27.3522 156.955 27.4833 156.48 27.6144Z" fill="#9E958F"/>
<path d="M292.792 50.6193C290.384 50.7012 288.32 50.7831 286.272 50.8487C286.059 50.8487 285.83 50.8487 285.617 50.8487C285.289 50.8487 285.092 50.6521 285.076 50.3244C285.06 50.0786 285.06 49.8328 285.06 49.5706C285.06 49.161 285.289 48.948 285.698 48.9152C286.19 48.8661 286.698 48.8497 287.189 48.7677C288.418 48.5547 289.024 47.8993 289.171 46.6377C289.221 46.2444 289.237 45.8348 289.237 45.4251C289.237 38.1337 289.237 30.8422 289.237 23.5507C289.237 23.1083 289.221 22.6823 289.171 22.2399C289.04 21.1584 288.549 20.6341 287.484 20.4047C287.091 20.3228 286.681 20.3228 286.272 20.3064C285.256 20.2573 285.158 20.1589 285.191 19.1431C285.207 18.3893 285.305 18.291 286.075 18.291C286.223 18.291 286.386 18.3074 286.534 18.3074C290.302 18.5696 294.069 18.5532 297.821 18.3238C298.28 18.291 298.755 18.291 299.213 18.3074C299.574 18.3238 299.803 18.504 299.787 18.8973C299.787 19.1103 299.803 19.3397 299.787 19.5527C299.754 20.1262 299.656 20.2409 299.066 20.3064C298.722 20.3392 298.378 20.3228 298.034 20.3556C296.461 20.503 295.691 21.3223 295.609 22.8953C295.593 23.1738 295.593 23.4524 295.593 23.7309C295.593 30.9241 295.593 38.1173 295.593 45.3104C295.593 45.7201 295.593 46.1133 295.626 46.523C295.74 47.801 296.379 48.5056 297.641 48.735C298.067 48.8169 298.509 48.8333 298.935 48.8661C299.754 48.9316 299.901 49.0791 299.885 49.882C299.869 50.6521 299.688 50.8323 298.837 50.8159C297.837 50.7995 296.838 50.7668 295.855 50.734C294.741 50.7176 293.594 50.6521 292.792 50.6193Z" fill="#9E958F"/>
<path d="M149.73 92.6641C149.73 87.1586 149.73 81.7842 149.73 76.3443C149.993 76.3115 150.238 76.2788 150.468 76.2788C153.678 76.2788 156.873 76.246 160.084 76.2952C161.099 76.3115 162.148 76.4262 163.131 76.672C167.079 77.6224 169.438 80.9486 169.241 85.0285C169.044 89.2068 165.637 92.0251 162.23 92.5003C161.492 92.5986 160.739 92.6477 160.002 92.6477C156.955 92.6641 153.908 92.6477 150.844 92.6477C150.533 92.6641 150.189 92.6641 149.73 92.6641ZM152.433 90.0752C152.597 90.108 152.712 90.1735 152.843 90.1735C155.579 90.1735 158.331 90.2391 161.05 90.1408C164.114 90.0261 166.079 88.0598 166.292 85.0122C166.538 81.5057 164.327 79.5231 162.049 79.0315C161.361 78.884 160.641 78.8185 159.92 78.8021C157.708 78.7693 155.497 78.7857 153.285 78.8021C153.007 78.8021 152.745 78.8349 152.433 78.8677C152.433 82.6199 152.433 86.3394 152.433 90.0752Z" fill="#9E958F"/>
<path d="M184.345 90.1898C189.096 90.1898 193.814 90.1898 198.581 90.1898C198.581 91.0583 198.581 91.812 198.581 92.6149C192.896 92.6149 187.277 92.6149 181.675 92.6149C181.495 91.9103 181.446 77.4421 181.626 76.3442C187.015 76.3442 192.421 76.3442 197.893 76.3442C197.893 77.098 197.893 77.8681 197.893 78.7201C195.665 78.8348 193.404 78.7529 191.144 78.7693C188.899 78.7857 186.671 78.7693 184.312 78.7693C184.296 79.4902 184.28 80.162 184.28 80.8338C184.28 81.4892 184.28 82.1447 184.28 82.9148C185.377 82.9803 186.426 82.9311 187.458 82.9475C188.49 82.9475 189.505 82.9475 190.537 82.9475C191.586 82.9475 192.634 82.9475 193.748 82.9475C193.748 83.7668 193.748 84.5041 193.748 85.3726C192.733 85.4545 191.684 85.389 190.636 85.4053C189.604 85.4217 188.588 85.4053 187.556 85.4053C186.507 85.4053 185.443 85.4053 184.329 85.4053C184.345 86.9947 184.345 88.5022 184.345 90.1898Z" fill="#9E958F"/>
<path d="M112.954 92.5988C112.954 87.1424 112.954 81.7517 112.954 76.3281C118.409 76.3281 123.815 76.3281 129.319 76.3281C129.336 76.7378 129.352 77.131 129.352 77.5243C129.352 77.9011 129.352 78.2616 129.352 78.7368C124.782 78.7368 120.277 78.7368 115.821 78.7368C115.575 79.5233 115.526 81.6206 115.723 82.915C118.819 82.915 121.948 82.915 125.126 82.915C125.126 83.7998 125.126 84.5536 125.126 85.3892C121.964 85.3892 118.851 85.3892 115.69 85.3892C115.69 86.9786 115.69 88.486 115.69 90.141C117.279 90.1901 118.851 90.1574 120.424 90.1737C121.98 90.1737 123.537 90.1737 125.093 90.1737C126.682 90.1737 128.255 90.1737 129.909 90.1737C129.909 91.0258 129.909 91.7795 129.909 92.5988C124.257 92.5988 118.639 92.5988 112.954 92.5988Z" fill="#9E958F"/>
<path d="M289.957 75.7871C291.743 75.8035 293.496 76.082 295.118 76.8522C297.165 77.8353 298.836 79.2608 299.721 81.4073C301.097 84.7171 300.114 88.4694 297.28 90.7469C295.707 92.0086 293.905 92.7295 291.923 92.9753C289.449 93.2866 287.009 93.1883 284.699 92.1233C283.798 91.7137 282.946 91.1729 282.176 90.5667C278.392 87.5682 278.376 81.5547 282.078 78.4415C284.388 76.5244 287.041 75.7871 289.957 75.7871ZM289.99 78.2777C288.008 78.2777 286.239 78.6545 284.682 79.7524C282.422 81.3581 281.717 83.734 282.455 86.2573C283.012 88.158 284.404 89.3378 286.222 89.9932C288.581 90.8452 290.989 90.8616 293.348 90.026C294.102 89.7638 294.823 89.3378 295.445 88.8298C298.181 86.6014 298.197 82.4559 295.511 80.162C293.889 78.802 291.972 78.2941 289.99 78.2777Z" fill="#9E958F"/>
<path d="M50.4576 92.6646C49.4911 92.6646 48.7539 92.6318 48.0167 92.681C47.558 92.6974 47.3451 92.4843 47.1649 92.1075C46.657 91.0752 46.1165 90.0593 45.5759 89.027C45.3465 89.0107 45.1336 88.9779 44.9206 88.9779C41.7426 88.9779 38.5809 88.9943 35.4029 88.9615C34.8295 88.9615 34.5019 89.109 34.2561 89.6497C33.7811 90.6656 33.2405 91.6487 32.749 92.6154C31.7661 92.6154 30.8488 92.6154 29.7676 92.6154C32.6835 87.11 35.5339 81.7028 38.3843 76.312C39.531 76.312 40.6122 76.312 41.8081 76.312C44.6421 81.67 47.4925 87.0772 50.4576 92.6646ZM44.1998 86.4873C42.8237 83.8329 41.5132 81.3259 40.1535 78.7862C39.0068 80.4411 36.2547 85.8319 36.1892 86.4873C38.7939 86.4873 41.4149 86.4873 44.1998 86.4873Z" fill="#9E958F"/>
<path d="M268.874 80.0473C268.039 80.3423 267.285 80.6208 266.548 80.883C266.434 80.8174 266.352 80.7847 266.286 80.7355C263.19 77.9992 259.635 77.7042 255.884 78.9495C254.098 79.5394 252.755 80.7847 252.182 82.6362C251.477 84.9302 251.952 87.6501 254.606 89.305C256.457 90.4684 258.505 90.6978 260.634 90.5503C262.879 90.3865 264.877 89.6 266.499 87.9123C267.269 88.3383 267.99 88.7316 268.825 89.1903C268.563 89.4853 268.367 89.7474 268.137 89.9768C266.466 91.6481 264.451 92.5821 262.125 92.9098C259.881 93.2211 257.653 93.1884 255.474 92.5166C254.328 92.1725 253.295 91.6154 252.329 90.9108C248.086 87.8304 247.939 81.2598 252.28 78.0319C254.54 76.3606 257.08 75.738 259.832 75.7708C261.552 75.8035 263.239 76.0657 264.828 76.7703C266.434 77.4912 267.859 78.6054 268.874 80.0473Z" fill="#9E958F"/>
<path d="M233.982 76.3284C234.916 76.3284 235.702 76.3284 236.587 76.3284C236.619 76.5578 236.685 76.8036 236.685 77.033C236.685 80.4575 236.685 83.882 236.701 87.3066C236.701 89.0598 235.882 90.3215 234.506 91.3046C233.065 92.3205 231.443 92.8284 229.723 93.0087C227.642 93.2381 225.562 93.2217 223.498 92.6974C222.154 92.3533 220.909 91.7962 219.845 90.8786C218.796 89.9774 218.19 88.8468 218.19 87.454C218.174 83.9312 218.174 80.4083 218.19 76.8855C218.19 76.7053 218.239 76.525 218.272 76.312C219.14 76.312 219.959 76.312 220.909 76.312C220.909 76.6889 220.909 77.0166 220.909 77.3607C220.909 80.2936 220.909 83.2102 220.909 86.1432C220.909 88.388 221.745 89.5678 223.891 90.174C226.25 90.8294 228.625 90.813 231 90.1904C231.263 90.1249 231.525 90.0102 231.787 89.8955C233.228 89.24 233.982 88.1258 233.982 86.5201C233.966 83.5052 233.982 80.4739 233.982 77.459C233.982 77.1149 233.982 76.7708 233.982 76.3284Z" fill="#9E958F"/>
<path d="M14.5826 92.6476C13.5014 92.6476 12.5022 92.6476 11.4373 92.6476C8.5378 87.2569 5.62186 81.8497 2.62402 76.2951C3.65607 76.2951 4.49153 76.2623 5.31061 76.3115C5.52357 76.3278 5.78568 76.5736 5.91673 76.7703C6.27713 77.3437 6.572 77.9664 6.89963 78.5726C8.75076 82.0299 10.6183 85.4709 12.4694 88.9282C12.6168 89.1903 12.7806 89.4525 12.9936 89.8294C13.2229 89.4361 13.3868 89.1412 13.5506 88.8463C15.6638 84.9302 17.777 81.0141 19.8739 77.0816C20.1851 76.4753 20.5455 76.1968 21.2336 76.2623C21.8724 76.3278 22.5113 76.2787 23.3632 76.2787C20.4145 81.8497 17.4822 87.2077 14.5826 92.6476Z" fill="#9E958F"/>
<path d="M63.8911 76.3442C63.8911 78.671 63.8911 80.9485 63.8911 83.2425C63.8911 85.5036 63.8911 87.7648 63.8911 90.1407C68.1012 90.1407 72.2293 90.1407 76.4722 90.1407C76.4722 90.6486 76.4722 91.0419 76.4722 91.4351C76.4722 91.7956 76.4722 92.1725 76.4722 92.5985C71.3611 92.5985 66.3319 92.5985 61.3028 92.5985C61.1062 91.9431 61.0407 77.8353 61.2209 76.3442C62.0727 76.3442 62.9246 76.3442 63.8911 76.3442Z" fill="#9E958F"/>
<path d="M89.7411 90.1573C93.9512 90.1573 98.0794 90.1573 102.257 90.1573C102.257 91.0257 102.257 91.7958 102.257 92.6151C97.1947 92.6151 92.1656 92.6151 87.1528 92.6151C86.9562 91.9597 86.9071 77.6061 87.1037 76.3608C87.9391 76.3608 88.791 76.3608 89.7575 76.3608C89.7575 78.6876 89.7575 80.9651 89.7575 83.2591C89.7411 85.5202 89.7411 87.7814 89.7411 90.1573Z" fill="#9E958F"/>
</svg>
